{"glyphs":{"0":{"ha":949,"x_min":76,"x_max":872,"o":"m 856 429 q 863 406 863 419 q 854 383 863 392 q 872 321 872 354 q 838 256 872 274 q 840 235 840 242 q 819 183 840 204 q 809 144 821 165 q 779 108 797 122 q 713 58 749 64 q 685 33 704 44 q 644 21 665 21 q 631 22 635 21 q 594 6 622 13 q 539 -1 567 -1 q 497 6 515 -1 q 429 -6 461 -6 q 362 6 394 -6 q 307 36 329 17 q 249 81 282 40 q 181 147 210 79 q 144 191 157 171 q 132 233 132 211 q 136 257 132 244 q 110 278 121 260 q 99 314 99 296 q 100 328 99 324 q 76 372 76 349 q 88 406 76 386 q 82 438 82 421 q 100 507 82 461 q 85 558 85 526 q 94 610 85 585 q 119 647 104 636 q 115 679 115 663 q 128 741 115 711 q 165 786 140 771 q 173 813 165 800 q 192 833 181 826 q 203 867 192 846 q 231 903 214 888 q 264 915 247 918 q 290 944 271 933 q 329 953 308 956 q 365 976 340 965 q 406 985 389 986 q 433 1001 414 996 q 475 1007 453 1007 q 524 999 506 1007 l 533 1000 q 564 983 553 1000 q 588 981 579 983 q 601 971 597 979 l 611 972 q 646 956 629 972 q 695 936 668 963 q 725 885 722 910 q 738 870 733 879 q 746 843 742 861 q 777 821 764 836 q 789 786 790 806 q 813 751 803 778 q 819 706 822 724 q 857 618 857 672 q 853 571 857 596 q 860 536 860 553 q 853 507 860 519 q 865 485 860 496 q 871 464 871 474 q 856 429 871 449 m 436 103 q 475 90 464 103 q 496 106 478 100 q 533 111 514 111 q 558 107 550 111 q 583 128 567 119 q 618 138 599 138 q 631 136 626 138 q 659 163 639 150 q 694 176 679 175 q 703 219 692 194 q 732 260 715 243 q 728 292 728 289 q 746 342 728 328 q 731 381 731 360 q 739 410 731 396 q 733 435 733 421 q 744 469 733 454 q 735 514 735 490 q 740 547 735 532 q 739 568 739 554 q 746 621 739 593 q 714 659 722 638 q 703 714 706 681 q 675 757 676 729 q 647 781 657 764 q 638 817 636 799 q 624 832 632 821 q 576 857 593 832 q 537 864 558 857 q 504 882 515 871 q 489 879 499 881 q 465 878 479 878 q 450 879 454 878 q 431 864 444 869 q 401 858 417 858 q 351 832 383 832 q 308 806 336 808 q 302 774 310 789 q 279 751 294 760 q 269 722 279 735 q 244 701 260 708 q 247 672 247 688 q 238 605 247 640 q 210 544 229 569 q 217 515 217 532 q 212 485 217 501 q 206 463 207 469 q 210 433 210 449 q 200 383 210 410 q 213 342 214 364 q 240 305 228 333 q 251 251 251 276 l 250 240 q 272 221 263 235 q 281 189 282 207 q 317 171 296 188 q 351 138 338 154 q 394 128 376 135 q 428 103 413 122 l 436 103 z "},"1":{"ha":543,"x_min":32,"x_max":435,"o":"m 415 117 q 435 56 435 82 q 410 7 435 25 q 381 -1 396 -1 q 342 13 360 -1 q 322 49 325 26 q 301 114 301 76 q 306 147 301 131 q 294 201 294 174 q 306 250 294 232 q 299 282 299 267 q 303 310 299 297 q 317 328 308 322 q 306 363 306 346 q 311 383 306 374 q 295 409 301 393 q 289 440 289 425 q 300 471 289 460 q 299 490 299 478 q 300 508 299 503 q 289 542 289 521 q 304 582 289 567 q 289 606 294 590 q 283 640 283 622 q 297 686 283 674 q 292 719 292 711 q 297 750 292 731 q 282 790 282 769 q 289 815 282 801 q 282 843 282 826 q 219 825 253 825 q 190 829 204 825 q 142 806 174 806 q 122 808 129 806 q 90 797 107 797 q 50 814 68 797 q 32 856 32 831 q 63 904 32 883 q 122 922 93 925 q 148 939 131 933 q 186 944 165 944 q 213 940 203 944 q 254 951 228 951 q 263 966 254 960 q 282 971 272 972 q 331 985 307 985 q 374 971 354 985 q 403 944 392 964 q 414 901 414 924 q 400 860 414 875 q 419 815 419 844 q 408 781 419 793 q 417 728 417 760 q 400 647 417 676 q 425 596 425 631 q 411 544 425 569 q 418 515 418 528 q 413 492 418 501 q 421 464 421 479 q 413 435 421 450 q 431 343 431 399 q 418 274 431 301 q 426 244 426 261 q 417 214 426 228 q 424 174 424 200 q 415 117 424 147 z "},"2":{"ha":776,"x_min":53,"x_max":710,"o":"m 596 140 q 628 151 608 151 q 650 144 643 151 q 694 133 679 147 q 710 96 710 118 q 691 53 710 72 q 640 33 672 33 l 628 35 q 586 21 610 21 q 554 26 569 21 q 519 15 539 15 q 485 28 500 15 q 443 4 467 4 q 404 17 429 4 q 375 8 393 8 q 343 13 360 8 q 306 -3 328 -3 q 267 13 285 -3 q 250 10 261 10 q 236 11 240 10 q 197 -4 218 -4 q 175 0 186 -4 q 142 -10 161 -10 q 113 -1 128 -10 q 69 24 86 0 q 53 78 53 49 q 74 126 53 111 q 88 172 71 153 q 132 190 106 192 q 157 244 132 222 q 224 290 182 265 q 281 356 224 332 q 315 408 285 381 q 375 449 346 435 q 392 484 378 469 q 426 500 407 499 q 443 545 424 526 q 489 563 463 564 q 494 585 489 575 q 507 603 500 594 q 517 614 514 611 q 514 631 514 625 q 524 662 514 647 q 549 682 533 676 q 546 715 546 701 q 558 775 546 754 q 531 801 542 783 q 499 818 513 804 q 482 850 485 832 q 461 847 476 847 q 422 855 442 847 q 392 874 401 863 q 361 857 381 864 q 322 849 342 850 q 294 821 314 835 q 258 804 274 807 q 237 766 256 786 q 200 739 218 746 q 187 685 199 706 q 142 665 175 665 q 102 683 119 665 q 85 722 85 700 q 89 742 85 732 l 88 753 q 106 806 88 781 q 150 839 125 831 q 169 890 149 871 q 217 910 189 910 q 251 947 221 925 q 308 968 282 969 q 383 985 333 985 q 425 980 406 985 q 453 965 444 975 q 492 981 469 981 q 522 973 508 981 q 538 956 535 965 q 582 917 567 951 q 612 905 599 915 q 629 879 625 894 q 662 842 649 874 q 675 774 675 810 q 671 739 675 756 q 675 719 675 726 q 665 696 675 707 q 668 676 668 685 q 657 629 668 653 q 629 599 646 606 q 619 558 628 578 q 594 525 610 538 q 577 481 592 501 q 538 454 563 461 q 516 419 533 438 q 483 400 499 401 q 449 351 478 374 q 388 321 419 328 q 371 281 382 293 q 328 253 360 268 q 265 188 322 206 q 251 147 258 163 q 232 122 244 132 q 267 132 251 132 q 299 124 282 132 q 331 133 313 133 q 358 126 349 133 q 399 136 378 136 q 425 128 415 136 q 475 144 444 144 q 517 135 497 144 q 563 147 538 147 q 596 140 579 147 z "},"3":{"ha":775,"x_min":90,"x_max":697,"o":"m 661 836 q 690 779 690 815 q 685 750 690 769 q 697 719 697 742 q 685 679 697 699 q 690 661 690 674 q 681 629 690 646 q 658 606 672 613 q 639 551 657 576 q 597 518 621 525 q 640 488 622 510 q 658 439 658 465 q 656 421 658 432 q 676 388 669 413 q 682 344 682 364 q 693 296 693 329 q 688 253 693 274 q 672 224 682 233 q 676 201 676 211 q 656 160 676 181 q 642 131 653 144 q 615 110 631 117 q 597 72 613 85 q 551 46 582 58 q 479 14 519 14 q 457 15 465 14 q 424 -3 444 3 q 381 -10 403 -10 q 324 8 342 -10 l 311 7 q 253 18 286 7 q 203 43 221 29 q 136 140 151 69 q 115 183 111 161 q 90 228 90 203 q 108 267 90 250 q 147 285 125 285 q 193 257 175 285 q 217 233 208 250 q 222 200 225 217 q 257 178 235 203 q 279 136 279 154 q 293 139 285 139 q 344 127 314 139 q 383 103 375 115 q 415 127 385 115 q 461 133 446 139 q 507 153 476 153 q 516 185 507 171 q 540 207 525 200 q 547 219 540 213 q 546 235 546 224 q 553 263 546 250 q 571 283 560 276 q 560 333 560 301 l 561 347 q 546 375 553 356 q 539 410 539 394 q 540 421 539 418 q 513 431 528 421 q 488 454 499 440 q 449 449 476 449 q 383 458 407 449 q 325 475 346 457 q 304 518 304 493 q 325 562 304 543 q 383 579 346 581 q 418 586 397 586 q 440 582 432 586 q 472 593 451 593 q 488 592 482 593 q 544 625 500 613 q 551 656 547 646 q 568 676 556 667 q 564 692 564 683 q 569 716 564 704 q 581 729 575 728 q 554 763 564 739 q 547 810 544 786 q 511 824 532 810 q 490 850 490 838 q 474 858 483 851 q 457 871 464 865 l 431 869 q 410 874 421 869 q 378 855 397 863 q 343 847 358 847 q 293 824 324 824 q 274 809 285 815 q 250 803 263 803 q 222 769 246 793 q 214 748 222 757 q 193 736 206 739 q 167 710 183 719 q 135 701 151 701 q 108 710 118 701 q 93 749 93 724 q 99 780 93 765 q 115 803 106 794 q 129 844 117 826 q 156 867 142 861 q 170 908 158 893 q 213 924 182 922 q 233 944 219 936 q 260 951 246 951 q 279 947 271 951 q 317 967 294 967 q 329 964 321 967 q 378 992 344 992 l 390 990 q 413 996 400 996 q 454 981 436 996 l 467 982 q 532 963 497 982 q 581 917 567 943 q 633 892 613 915 q 661 836 653 869 z "},"4":{"ha":806,"x_min":28,"x_max":775,"o":"m 717 356 q 759 338 743 356 q 775 296 775 319 q 756 251 775 269 q 706 235 735 235 q 681 238 697 235 q 638 225 656 225 q 615 229 628 225 q 624 188 624 211 q 603 133 624 150 q 619 111 613 126 q 625 79 625 96 q 608 38 625 50 q 590 1 604 14 q 556 -11 575 -11 q 511 6 531 -11 q 492 51 492 24 q 497 81 492 65 q 492 108 492 92 q 507 156 492 140 q 498 176 501 160 q 494 211 494 193 q 497 242 494 231 q 469 236 486 236 q 415 251 435 236 q 351 232 388 232 q 299 246 319 232 q 232 231 264 231 q 193 238 208 231 q 165 228 183 232 q 128 225 146 225 q 79 233 99 225 q 42 250 56 235 q 28 288 28 265 q 35 317 28 300 q 58 356 43 336 q 88 382 74 375 q 107 410 92 399 q 142 425 122 422 q 145 434 142 429 q 150 443 149 439 q 147 460 147 454 q 156 491 147 476 q 179 513 165 506 q 197 544 182 532 q 232 561 211 557 q 246 594 235 576 q 267 614 257 611 q 283 647 274 635 q 314 674 293 658 q 328 723 311 699 q 367 757 344 747 q 383 799 369 776 q 411 831 397 821 q 432 866 417 850 q 467 892 447 882 q 489 928 467 913 q 497 957 489 943 q 551 993 517 993 q 598 971 578 993 q 618 917 618 949 q 615 892 618 900 q 618 871 618 886 q 615 849 618 856 q 622 811 622 836 q 611 757 622 776 q 619 715 619 739 q 608 660 619 689 q 624 607 624 640 q 611 561 624 576 q 622 485 622 535 q 611 425 622 442 q 618 386 618 413 q 615 360 618 374 q 638 353 628 360 q 686 358 654 358 q 717 356 706 358 m 507 488 q 499 553 499 500 q 507 610 499 599 q 490 656 490 625 q 497 692 490 678 q 489 722 489 708 q 492 742 489 728 q 469 702 485 722 q 429 656 453 682 q 415 612 432 635 q 376 578 399 589 q 347 519 376 558 q 299 469 318 481 q 290 437 299 451 q 267 417 282 422 q 254 380 267 399 q 224 347 242 361 q 243 351 229 351 q 263 343 263 351 q 311 353 278 353 q 358 343 343 353 q 424 358 385 358 q 456 353 446 358 q 475 357 460 356 q 493 356 490 358 q 492 374 492 363 q 497 417 492 386 q 494 442 494 433 q 507 488 494 467 z "},"5":{"ha":753,"x_min":60,"x_max":671,"o":"m 304 858 q 289 854 299 854 q 260 864 272 854 q 261 847 261 858 q 254 803 261 825 q 236 769 247 781 q 256 726 256 753 q 246 694 256 711 q 251 672 251 683 q 240 640 251 657 q 225 615 229 622 q 222 600 225 611 q 239 561 239 583 q 236 543 239 554 q 246 544 240 544 q 274 565 258 561 q 294 576 281 575 q 310 578 307 578 q 328 587 315 583 q 353 590 340 590 q 374 585 368 590 q 390 588 382 588 q 428 581 408 588 q 460 563 449 574 q 479 565 465 565 q 526 553 501 565 q 565 521 550 540 q 575 481 579 501 q 626 438 615 472 q 663 386 657 425 q 669 347 669 374 q 662 299 669 322 q 640 261 654 275 q 646 231 646 247 q 635 175 646 204 q 622 135 639 154 q 579 115 604 117 q 558 94 569 100 q 542 54 558 71 q 503 36 525 38 q 476 8 494 19 q 438 -3 457 -3 q 414 3 424 -3 q 350 -10 389 -10 q 278 7 307 -10 q 226 22 242 13 q 192 58 211 31 q 144 75 164 56 q 126 121 125 94 q 106 147 111 132 q 71 167 82 153 q 60 200 60 181 q 76 244 60 225 q 115 264 92 264 q 144 256 129 264 q 185 240 163 257 q 208 201 207 224 q 233 172 226 189 q 265 160 254 169 q 282 131 275 150 q 319 124 297 132 q 358 106 342 117 q 414 129 382 129 q 431 144 421 138 q 451 151 442 150 q 478 187 458 167 q 513 213 497 207 q 514 242 513 229 q 521 268 515 254 q 526 307 518 288 q 546 335 533 326 q 521 353 531 340 q 508 383 511 367 q 476 410 492 393 q 457 443 460 428 q 430 449 446 442 q 407 465 414 457 q 381 461 399 461 q 365 463 369 461 q 322 451 350 449 q 298 431 313 438 q 267 428 283 425 q 246 413 258 418 q 221 407 233 407 q 193 400 207 400 q 167 407 179 400 q 146 425 154 414 q 116 461 126 435 q 106 517 106 488 q 114 558 106 542 q 106 599 106 574 q 113 645 106 622 q 129 681 119 668 q 125 699 125 689 q 131 721 125 707 q 117 771 117 742 q 138 828 117 810 q 138 846 135 838 q 115 868 122 854 q 107 899 107 882 q 132 946 107 929 q 149 990 131 972 q 192 1007 168 1007 q 240 979 225 1007 q 275 982 263 982 q 349 965 322 982 q 389 981 367 981 q 421 971 407 981 q 443 975 432 975 q 465 971 456 975 q 507 981 485 981 q 551 968 536 981 q 583 974 561 974 q 644 960 617 974 q 671 919 671 946 q 653 869 671 883 q 613 854 636 854 q 583 858 604 854 q 535 847 557 847 q 497 857 515 847 q 471 850 483 850 q 450 854 461 850 q 415 843 432 843 q 385 851 397 843 q 357 847 372 847 q 304 858 333 847 z "},"6":{"ha":808,"x_min":54,"x_max":739,"o":"m 731 354 q 738 322 738 344 q 731 276 738 300 q 715 236 725 251 q 718 211 718 222 q 705 146 718 178 q 667 104 692 114 q 644 72 664 88 q 603 58 624 57 q 559 22 592 38 q 499 10 526 7 q 472 -7 490 -1 q 432 -12 454 -12 q 376 4 392 -12 q 360 1 365 1 q 318 19 336 1 q 306 18 314 18 q 281 26 292 18 q 257 47 269 33 q 193 101 221 54 q 147 137 163 119 q 136 181 132 154 q 90 239 108 203 q 72 310 72 275 q 81 351 72 331 q 68 392 64 368 q 54 444 54 414 q 65 483 54 469 q 61 504 61 494 q 72 546 61 524 q 71 568 71 554 q 85 604 71 589 q 84 609 83 606 q 85 614 85 613 q 79 651 79 632 q 93 693 79 678 q 100 744 90 721 q 129 775 110 768 q 147 803 135 794 q 144 819 144 814 q 162 863 144 843 q 200 885 179 882 q 235 917 210 903 q 282 928 260 932 q 338 949 307 953 q 384 976 354 967 q 440 982 414 985 q 457 983 446 983 q 501 969 488 983 q 531 957 521 963 q 550 940 542 951 q 568 942 556 942 q 624 913 606 942 q 656 867 656 894 q 638 826 656 844 q 597 808 619 808 q 553 833 572 808 q 517 837 532 831 q 492 860 503 843 q 438 869 453 860 q 402 846 419 853 q 361 839 385 839 q 330 815 350 824 q 289 806 310 806 q 281 795 288 800 q 267 790 274 790 q 261 757 268 772 q 239 732 254 742 q 234 710 239 715 q 211 699 229 704 q 213 689 213 696 q 193 656 213 668 q 197 621 200 636 l 199 606 q 194 578 199 589 q 233 586 219 593 q 256 603 239 596 q 282 608 272 611 q 310 627 285 618 q 357 636 336 636 q 368 635 365 636 q 383 641 371 638 q 406 644 394 644 q 422 640 418 644 q 454 644 433 644 q 519 625 500 644 q 587 613 557 629 q 621 558 617 597 q 653 531 640 549 q 667 499 667 514 q 706 468 689 492 q 721 425 724 444 q 739 383 739 408 q 731 354 739 367 m 608 251 q 607 272 607 258 q 621 315 607 301 q 615 340 619 326 q 611 361 611 353 q 618 385 611 375 q 611 400 611 392 q 576 422 594 403 q 553 458 558 440 q 521 476 533 463 q 507 510 508 490 q 470 514 492 510 q 438 525 449 518 q 399 510 428 510 q 361 517 382 510 q 340 494 354 503 q 310 486 326 486 q 289 489 296 486 q 258 476 276 476 q 235 450 250 457 q 194 440 221 443 q 203 386 203 419 q 188 328 203 344 q 213 284 200 325 q 224 221 226 243 q 245 201 233 218 q 258 183 257 185 q 328 142 304 172 q 340 143 332 143 q 383 122 367 143 q 428 107 413 125 q 479 124 446 124 q 493 122 490 124 q 519 135 500 135 q 542 158 525 146 q 571 169 560 169 q 593 193 576 183 q 608 251 597 228 z "},"7":{"ha":735,"x_min":39,"x_max":710,"o":"m 672 1000 q 699 974 688 993 q 710 933 710 954 q 675 874 710 897 q 643 806 675 822 q 646 786 646 792 q 611 731 646 753 q 613 717 613 726 q 606 688 613 701 q 586 667 599 675 q 583 640 588 650 q 564 619 578 629 q 533 582 556 594 q 535 569 535 578 q 525 528 535 550 q 501 497 515 507 q 494 463 503 479 q 469 440 485 447 q 447 376 474 408 q 435 345 446 364 q 418 321 425 326 q 393 275 413 292 q 388 226 396 251 q 361 190 379 201 q 355 162 361 172 q 333 142 349 151 q 313 103 332 119 q 314 88 314 99 q 297 34 314 60 q 253 6 279 8 q 215 -11 235 -11 q 174 9 192 -11 q 157 54 157 29 q 194 104 157 90 q 190 124 190 115 q 196 146 190 136 q 214 171 201 156 q 226 199 217 186 q 246 214 235 211 q 252 249 243 232 q 278 274 261 265 q 282 315 274 290 q 301 347 290 340 q 333 399 307 367 q 354 456 336 429 q 363 494 356 475 q 385 522 371 513 q 395 558 385 544 q 421 578 406 572 q 426 613 419 594 q 440 640 432 632 q 468 693 442 672 q 488 742 465 722 q 491 772 485 761 q 508 792 497 782 q 526 810 519 803 q 524 825 524 821 q 547 871 524 854 q 527 867 539 869 q 508 865 515 865 q 481 874 494 865 q 444 867 464 867 q 390 882 408 867 q 346 863 375 863 q 310 874 325 863 q 260 861 275 861 q 231 869 246 861 q 196 861 213 861 q 151 872 178 861 q 99 856 126 856 q 54 873 69 856 q 39 914 39 890 q 52 951 39 935 q 89 971 65 968 q 122 985 101 981 q 165 990 143 990 q 208 982 193 990 q 235 988 219 988 q 264 979 251 988 q 318 994 292 994 q 339 990 329 994 q 383 1003 356 1003 q 443 982 424 1003 q 463 987 450 983 q 486 990 476 990 q 515 982 501 990 q 539 995 522 990 q 571 1000 556 1000 q 590 996 583 1000 q 635 1007 608 1007 q 672 1000 656 1007 z "},"8":{"ha":700,"x_min":32,"x_max":658,"o":"m 639 407 q 653 367 650 392 q 658 325 658 350 q 638 242 658 278 q 643 219 643 225 q 628 179 643 203 q 596 142 626 156 q 590 119 596 132 q 576 100 585 107 q 558 75 569 85 q 525 57 546 65 q 501 38 514 43 q 465 33 488 32 q 443 19 460 25 q 410 14 426 14 q 393 17 401 14 q 321 -10 358 -10 q 265 7 290 -10 q 238 10 253 4 q 218 24 222 15 q 208 22 215 22 q 190 31 197 22 q 146 39 165 28 q 122 78 126 50 q 63 140 75 99 q 44 164 51 147 q 38 197 38 181 q 43 219 38 208 q 35 240 38 225 q 32 271 32 254 q 47 325 32 314 q 42 354 42 336 q 50 401 42 379 q 74 432 58 424 q 85 477 71 453 q 114 506 99 501 q 128 531 118 521 q 154 546 139 542 q 131 572 140 556 q 119 606 121 589 q 93 690 89 640 q 89 726 89 710 q 101 778 89 756 q 121 844 99 810 q 140 883 128 865 q 167 906 153 901 q 192 936 175 925 q 226 949 208 947 q 252 968 236 961 q 285 975 268 975 l 296 974 q 333 983 306 983 q 372 976 356 983 q 406 985 382 985 q 449 976 426 985 q 486 967 469 978 q 511 936 503 957 q 544 913 528 935 q 557 871 560 890 q 581 828 578 854 q 598 806 590 825 q 604 768 606 788 q 611 739 611 751 q 597 697 611 717 q 600 678 600 683 q 579 631 600 651 q 571 599 579 617 q 551 575 563 581 q 535 553 550 564 q 503 540 519 543 q 540 507 535 533 q 588 480 563 504 q 615 428 614 456 q 639 407 626 424 m 307 858 q 277 840 297 850 q 249 833 257 831 q 238 814 247 826 q 222 796 229 801 q 217 769 224 783 q 201 746 211 754 q 208 693 208 733 q 207 667 208 672 q 233 631 224 653 q 263 617 246 628 q 289 596 279 607 q 319 599 308 599 q 353 594 338 599 q 382 601 364 601 q 408 596 397 601 q 447 621 419 614 q 468 646 450 632 q 497 663 486 660 q 494 679 494 667 q 500 717 494 697 q 514 743 506 736 q 498 767 507 747 q 493 796 489 786 q 474 815 483 799 q 465 842 464 831 l 464 842 q 446 847 456 842 q 435 858 436 853 q 404 867 418 858 q 378 860 390 860 q 354 864 365 860 q 325 856 342 856 q 307 858 318 856 m 282 118 q 318 110 310 118 q 383 128 351 128 q 404 125 397 128 q 443 140 431 142 q 485 169 457 165 q 503 210 494 194 q 524 233 511 226 q 526 265 522 247 q 539 290 529 283 q 535 314 535 301 q 539 344 535 328 q 520 362 526 351 q 510 383 514 372 q 504 399 506 394 q 456 454 464 419 q 435 450 447 450 q 401 456 418 450 q 381 471 385 463 q 338 464 369 464 q 303 471 314 464 q 256 454 282 454 q 233 457 242 454 q 209 432 226 447 q 181 411 192 417 q 161 376 178 392 q 167 346 167 365 q 161 304 167 326 q 149 269 156 282 q 165 230 158 261 q 168 183 171 199 q 202 170 179 183 q 228 149 225 157 q 256 140 240 149 q 282 118 272 131 z "},"9":{"ha":715,"x_min":60,"x_max":649,"o":"m 636 572 q 640 551 640 564 q 625 510 640 525 q 629 485 629 497 q 600 415 629 447 q 608 388 608 403 q 600 353 608 371 q 579 325 592 336 q 565 283 582 308 q 528 251 549 258 q 475 183 508 207 q 450 132 476 163 q 407 103 424 101 q 376 82 392 86 q 360 53 371 63 q 329 39 349 43 q 303 6 326 21 q 256 -10 281 -10 q 216 8 232 -10 q 200 49 200 26 q 224 94 200 79 q 248 123 231 107 q 276 140 265 139 q 297 173 281 160 q 332 186 313 186 q 357 227 333 207 q 397 247 381 247 q 414 297 397 269 q 449 328 431 324 q 469 357 449 346 q 419 347 438 347 q 393 351 406 347 q 365 347 378 347 q 322 363 342 347 q 276 372 304 358 q 233 406 249 386 q 199 413 214 404 q 165 438 183 421 q 131 466 144 447 q 114 501 117 485 q 84 523 96 508 q 72 557 72 538 q 76 579 72 567 q 61 636 61 599 q 63 657 61 650 q 60 679 60 671 q 76 733 60 711 q 72 754 72 744 q 97 803 72 786 q 119 870 94 838 q 174 911 143 903 q 216 949 189 933 q 275 965 243 965 q 293 964 288 965 q 333 985 310 985 q 350 982 339 985 q 385 996 364 996 q 397 993 389 996 q 451 984 422 994 q 486 956 481 974 q 507 958 493 958 q 552 938 533 958 q 571 890 571 917 q 607 819 601 863 q 624 760 624 783 q 621 739 624 753 q 640 706 632 728 q 649 661 649 683 q 640 622 649 642 q 644 603 644 617 q 636 572 644 585 m 226 539 q 253 510 246 535 l 256 510 q 278 492 268 510 q 321 475 301 492 q 339 479 328 479 q 379 465 369 479 q 394 468 382 468 q 421 464 413 468 q 440 486 428 479 q 472 499 451 493 q 482 516 475 507 q 497 528 489 525 q 496 539 496 532 q 510 578 496 560 q 506 603 506 589 q 521 658 506 636 q 494 738 494 696 q 497 765 494 746 q 471 835 478 783 q 406 874 442 835 q 372 865 393 865 q 351 868 363 865 q 282 850 333 850 q 253 822 271 833 q 219 808 235 810 q 215 787 218 801 q 206 760 211 772 q 192 739 201 749 q 193 725 193 735 q 179 688 193 703 q 183 665 183 675 q 175 642 183 653 q 194 620 188 633 q 201 592 201 607 q 200 578 201 582 q 220 560 215 568 q 226 539 225 551 z "},"\u0000":{"ha":0,"x_min":0,"x_max":0,"o":""},"\r":{"ha":301,"x_min":0,"x_max":0,"o":""}," ":{"ha":301,"x_min":0,"x_max":0,"o":""},"A":{"ha":901,"x_min":76,"x_max":858,"o":"m 810 150 q 834 140 810 150 q 853 75 858 131 q 858 50 858 64 q 840 14 858 28 q 799 0 822 0 q 763 13 778 0 q 749 51 749 26 q 717 76 733 54 q 701 119 701 97 q 704 136 701 125 q 680 165 690 143 q 665 210 669 186 q 663 243 661 233 q 634 284 644 251 q 626 340 624 317 q 603 336 617 336 q 551 353 575 336 q 497 335 533 335 q 450 351 464 335 q 411 336 432 336 q 385 343 394 336 q 356 336 375 336 q 322 342 339 336 q 296 357 306 347 q 289 354 294 357 q 297 307 297 328 q 265 251 297 275 q 271 225 271 240 q 250 167 271 194 q 210 136 229 139 q 215 107 215 124 q 190 38 215 69 q 129 7 165 7 q 114 8 119 7 q 86 19 96 8 q 76 49 76 31 q 83 78 76 61 q 82 94 82 83 q 110 143 82 122 q 108 156 108 147 q 119 198 108 176 q 146 226 129 219 q 144 239 144 229 q 156 294 144 263 q 181 329 167 325 q 221 453 178 390 q 231 513 221 485 q 265 554 240 542 q 278 607 267 581 q 303 651 289 633 q 299 679 299 667 q 306 710 299 699 q 324 725 314 722 q 322 742 322 731 q 344 790 322 772 l 343 799 q 360 836 343 819 q 358 851 358 842 q 371 901 358 876 q 399 935 383 926 q 451 969 424 969 q 483 961 464 969 q 542 899 524 960 q 560 863 554 883 q 564 826 565 843 q 583 804 576 818 q 588 775 589 790 q 612 736 601 763 q 622 686 622 710 q 621 671 622 675 q 638 643 631 661 q 646 610 646 625 q 644 597 646 601 q 674 558 663 585 q 691 506 686 532 q 693 471 696 481 q 708 451 696 467 q 728 419 721 435 q 735 389 735 403 q 732 371 735 376 q 744 355 738 364 q 756 339 751 346 q 760 322 760 332 q 758 308 760 313 q 778 279 769 297 q 786 244 786 261 q 781 224 786 231 q 804 192 796 213 q 810 150 813 171 m 554 451 q 567 462 557 460 q 583 460 576 464 q 581 472 581 468 q 586 489 581 483 q 566 514 574 499 q 560 544 558 529 q 542 559 550 547 q 535 585 535 571 q 538 600 535 589 q 508 654 508 618 q 513 686 508 668 q 506 692 511 688 q 501 708 500 697 q 475 753 474 717 q 457 774 464 758 q 432 724 460 742 q 426 689 433 708 q 410 660 419 669 q 411 642 411 654 q 385 557 411 610 q 374 529 378 542 q 362 501 368 515 q 346 481 356 488 q 340 456 346 467 l 351 457 q 372 450 365 457 q 389 457 376 457 q 401 453 397 457 q 443 465 418 465 q 476 460 461 465 q 501 444 492 454 q 531 460 515 460 q 554 451 540 460 z "},"Á":{"ha":935,"x_min":76,"x_max":858,"o":"m 810 150 q 834 140 810 150 q 853 75 858 131 q 858 50 858 64 q 840 14 858 28 q 799 0 822 0 q 763 13 778 0 q 749 51 749 26 q 717 76 733 54 q 701 119 701 97 q 704 136 701 125 q 680 165 690 143 q 665 210 669 186 q 663 243 661 233 q 634 284 644 251 q 626 340 624 317 q 603 336 617 336 q 551 353 575 336 q 497 335 533 335 q 450 351 464 335 q 411 336 432 336 q 385 343 394 336 q 356 336 375 336 q 322 342 339 336 q 296 357 306 347 q 289 354 294 357 q 297 307 297 328 q 265 251 297 275 q 271 225 271 240 q 250 167 271 194 q 210 136 229 139 q 215 107 215 124 q 190 38 215 69 q 129 7 165 7 q 114 8 119 7 q 86 19 96 8 q 76 49 76 31 q 83 78 76 61 q 82 94 82 83 q 110 143 82 122 q 108 156 108 147 q 119 198 108 176 q 146 226 129 219 q 144 239 144 229 q 156 294 144 263 q 181 329 167 325 q 221 453 178 390 q 231 513 221 485 q 265 554 240 542 q 278 607 267 581 q 303 651 289 633 q 299 679 299 667 q 306 710 299 699 q 324 725 314 722 q 322 742 322 731 q 344 790 322 772 l 343 799 q 360 836 343 819 q 358 851 358 842 q 371 901 358 876 q 399 935 383 926 q 451 969 424 969 q 483 961 464 969 q 542 899 524 960 q 560 863 554 883 q 564 826 565 843 q 583 804 576 818 q 588 775 589 790 q 612 736 601 763 q 622 686 622 710 q 621 671 622 675 q 638 643 631 661 q 646 610 646 625 q 644 597 646 601 q 674 558 663 585 q 691 506 686 532 q 693 471 696 481 q 708 451 696 467 q 728 419 721 435 q 735 389 735 403 q 732 371 735 376 q 744 355 738 364 q 756 339 751 346 q 760 322 760 332 q 758 308 760 313 q 778 279 769 297 q 786 244 786 261 q 781 224 786 231 q 804 192 796 213 q 810 150 813 171 m 554 451 q 567 462 557 460 q 583 460 576 464 q 581 472 581 468 q 586 489 581 483 q 566 514 574 499 q 560 544 558 529 q 542 559 550 547 q 535 585 535 571 q 538 600 535 589 q 508 654 508 618 q 513 686 508 668 q 506 692 511 688 q 501 708 500 697 q 475 753 474 717 q 457 774 464 758 q 432 724 460 742 q 426 689 433 708 q 410 660 419 669 q 411 642 411 654 q 385 557 411 610 q 374 529 378 542 q 362 501 368 515 q 346 481 356 488 q 340 456 346 467 l 351 457 q 372 450 365 457 q 389 457 376 457 q 401 453 397 457 q 443 465 418 465 q 476 460 461 465 q 501 444 492 454 q 531 460 515 460 q 554 451 540 460 m 490 1097 q 469 1056 488 1078 q 435 1032 451 1033 q 399 1015 417 1015 q 367 1029 381 1015 q 353 1063 353 1043 q 383 1110 353 1090 q 396 1132 385 1118 q 406 1168 396 1153 q 442 1185 417 1183 q 451 1215 440 1201 q 478 1233 461 1229 q 494 1255 482 1246 q 519 1264 506 1264 q 546 1272 532 1272 q 580 1256 565 1272 q 594 1219 594 1239 q 565 1183 594 1193 q 543 1156 564 1165 q 525 1119 542 1138 q 490 1097 508 1100 z "},"Ă":{"ha":935,"x_min":76,"x_max":858,"o":"m 810 150 q 834 140 810 150 q 853 75 858 131 q 858 50 858 64 q 840 14 858 28 q 799 0 822 0 q 763 13 778 0 q 749 51 749 26 q 717 76 733 54 q 701 119 701 97 q 704 136 701 125 q 680 165 690 143 q 665 210 669 186 q 663 243 661 233 q 634 284 644 251 q 626 340 624 317 q 603 336 617 336 q 551 353 575 336 q 497 335 533 335 q 450 351 464 335 q 411 336 432 336 q 385 343 394 336 q 356 336 375 336 q 322 342 339 336 q 296 357 306 347 q 289 354 294 357 q 297 307 297 328 q 265 251 297 275 q 271 225 271 240 q 250 167 271 194 q 210 136 229 139 q 215 107 215 124 q 190 38 215 69 q 129 7 165 7 q 114 8 119 7 q 86 19 96 8 q 76 49 76 31 q 83 78 76 61 q 82 94 82 83 q 110 143 82 122 q 108 156 108 147 q 119 198 108 176 q 146 226 129 219 q 144 239 144 229 q 156 294 144 263 q 181 329 167 325 q 221 453 178 390 q 231 513 221 485 q 265 554 240 542 q 278 607 267 581 q 303 651 289 633 q 299 679 299 667 q 306 710 299 699 q 324 725 314 722 q 322 742 322 731 q 344 790 322 772 l 343 799 q 360 836 343 819 q 358 851 358 842 q 371 901 358 876 q 399 935 383 926 q 451 969 424 969 q 483 961 464 969 q 542 899 524 960 q 560 863 554 883 q 564 826 565 843 q 583 804 576 818 q 588 775 589 790 q 612 736 601 763 q 622 686 622 710 q 621 671 622 675 q 638 643 631 661 q 646 610 646 625 q 644 597 646 601 q 674 558 663 585 q 691 506 686 532 q 693 471 696 481 q 708 451 696 467 q 728 419 721 435 q 735 389 735 403 q 732 371 735 376 q 744 355 738 364 q 756 339 751 346 q 760 322 760 332 q 758 308 760 313 q 778 279 769 297 q 786 244 786 261 q 781 224 786 231 q 804 192 796 213 q 810 150 813 171 m 554 451 q 567 462 557 460 q 583 460 576 464 q 581 472 581 468 q 586 489 581 483 q 566 514 574 499 q 560 544 558 529 q 542 559 550 547 q 535 585 535 571 q 538 600 535 589 q 508 654 508 618 q 513 686 508 668 q 506 692 511 688 q 501 708 500 697 q 475 753 474 717 q 457 774 464 758 q 432 724 460 742 q 426 689 433 708 q 410 660 419 669 q 411 642 411 654 q 385 557 411 610 q 374 529 378 542 q 362 501 368 515 q 346 481 356 488 q 340 456 346 467 l 351 457 q 372 450 365 457 q 389 457 376 457 q 401 453 397 457 q 443 465 418 465 q 476 460 461 465 q 501 444 492 454 q 531 460 515 460 q 554 451 540 460 m 307 1051 q 261 1084 282 1061 q 242 1138 240 1107 q 233 1165 233 1153 q 251 1200 233 1186 q 292 1214 269 1214 q 325 1202 311 1214 q 339 1165 339 1190 q 373 1142 361 1151 q 389 1118 385 1133 q 407 1121 400 1121 q 438 1116 422 1121 q 460 1104 453 1111 q 544 1131 493 1129 q 543 1142 543 1135 q 551 1168 543 1156 q 574 1188 560 1181 q 591 1222 575 1208 q 626 1235 607 1235 q 664 1218 647 1235 q 676 1178 676 1204 q 670 1144 676 1161 q 653 1118 664 1128 q 639 1081 656 1103 q 594 1043 622 1060 q 539 1024 567 1026 q 507 1006 529 1014 q 464 999 485 999 q 432 1008 442 999 q 401 1001 422 1001 q 361 1011 372 1001 q 329 1019 344 1007 q 307 1051 314 1031 z "},"Ắ":{"ha":935,"x_min":76,"x_max":858,"o":"m 549 1379 q 557 1343 557 1363 q 542 1304 557 1318 q 481 1233 535 1253 q 457 1208 472 1217 q 428 1199 442 1199 q 401 1210 411 1199 q 394 1242 392 1221 q 392 1257 392 1253 q 400 1282 392 1269 q 421 1301 408 1294 q 461 1346 425 1325 q 456 1372 456 1358 q 474 1412 456 1396 q 514 1428 493 1428 q 540 1418 529 1428 q 550 1390 550 1408 l 549 1379 m 336 1069 q 297 1098 315 1076 q 279 1146 278 1119 q 272 1169 272 1157 q 288 1199 272 1188 q 322 1211 303 1211 q 353 1200 340 1211 q 365 1168 365 1189 q 392 1149 382 1158 q 406 1128 403 1140 q 422 1129 410 1129 q 449 1126 436 1129 q 468 1117 463 1122 q 544 1140 499 1136 q 549 1169 542 1154 q 568 1189 556 1185 q 585 1218 571 1207 q 618 1229 600 1229 q 650 1217 638 1229 q 660 1183 660 1206 q 654 1153 660 1168 q 639 1129 649 1138 q 626 1096 640 1115 q 588 1062 611 1076 q 540 1046 564 1047 q 511 1031 532 1038 q 472 1024 490 1024 q 444 1032 453 1024 q 417 1025 438 1025 q 383 1033 393 1025 q 354 1042 368 1032 q 336 1069 340 1053 m 810 150 q 834 140 810 150 q 853 75 858 131 q 858 50 858 64 q 840 14 858 28 q 799 0 822 0 q 763 13 778 0 q 749 51 749 26 q 717 76 733 54 q 701 119 701 97 q 704 136 701 125 q 680 165 690 143 q 665 210 669 186 q 663 243 661 233 q 634 284 644 251 q 626 340 624 317 q 603 336 617 336 q 551 353 575 336 q 497 335 533 335 q 450 351 464 335 q 411 336 432 336 q 385 343 394 336 q 356 336 375 336 q 322 342 339 336 q 296 357 306 347 q 289 354 294 357 q 297 307 297 328 q 265 251 297 275 q 271 225 271 240 q 250 167 271 194 q 210 136 229 139 q 215 107 215 124 q 190 38 215 69 q 129 7 165 7 q 114 8 119 7 q 86 19 96 8 q 76 49 76 31 q 83 78 76 61 q 82 94 82 83 q 110 143 82 122 q 108 156 108 147 q 119 198 108 176 q 146 226 129 219 q 144 239 144 229 q 156 294 144 263 q 181 329 167 325 q 221 453 178 390 q 231 513 221 485 q 265 554 240 542 q 278 607 267 581 q 303 651 289 633 q 299 679 299 667 q 306 710 299 699 q 324 725 314 722 q 322 742 322 731 q 344 790 322 772 l 343 799 q 360 836 343 819 q 358 851 358 842 q 371 901 358 876 q 399 935 383 926 q 451 969 424 969 q 483 961 464 969 q 542 899 524 960 q 560 863 554 883 q 564 826 565 843 q 583 804 576 818 q 588 775 589 790 q 612 736 601 763 q 622 686 622 710 q 621 671 622 675 q 638 643 631 661 q 646 610 646 625 q 644 597 646 601 q 674 558 663 585 q 691 506 686 532 q 693 471 696 481 q 708 451 696 467 q 728 419 721 435 q 735 389 735 403 q 732 371 735 376 q 744 355 738 364 q 756 339 751 346 q 760 322 760 332 q 758 308 760 313 q 778 279 769 297 q 786 244 786 261 q 781 224 786 231 q 804 192 796 213 q 810 150 813 171 m 554 451 q 567 462 557 460 q 583 460 576 464 q 581 472 581 468 q 586 489 581 483 q 566 514 574 499 q 560 544 558 529 q 542 559 550 547 q 535 585 535 571 q 538 600 535 589 q 508 654 508 618 q 513 686 508 668 q 506 692 511 688 q 501 708 500 697 q 475 753 474 717 q 457 774 464 758 q 432 724 460 742 q 426 689 433 708 q 410 660 419 669 q 411 642 411 654 q 385 557 411 610 q 374 529 378 542 q 362 501 368 515 q 346 481 356 488 q 340 456 346 467 l 351 457 q 372 450 365 457 q 389 457 376 457 q 401 453 397 457 q 443 465 418 465 q 476 460 461 465 q 501 444 492 454 q 531 460 515 460 q 554 451 540 460 z "},"Ặ":{"ha":935,"x_min":76,"x_max":858,"o":"m 810 150 q 834 140 810 150 q 853 75 858 131 q 858 50 858 64 q 840 14 858 28 q 799 0 822 0 q 763 13 778 0 q 749 51 749 26 q 717 76 733 54 q 701 119 701 97 q 704 136 701 125 q 680 165 690 143 q 665 210 669 186 q 663 243 661 233 q 634 284 644 251 q 626 340 624 317 q 603 336 617 336 q 551 353 575 336 q 497 335 533 335 q 450 351 464 335 q 411 336 432 336 q 385 343 394 336 q 356 336 375 336 q 322 342 339 336 q 296 357 306 347 q 289 354 294 357 q 297 307 297 328 q 265 251 297 275 q 271 225 271 240 q 250 167 271 194 q 210 136 229 139 q 215 107 215 124 q 190 38 215 69 q 129 7 165 7 q 114 8 119 7 q 86 19 96 8 q 76 49 76 31 q 83 78 76 61 q 82 94 82 83 q 110 143 82 122 q 108 156 108 147 q 119 198 108 176 q 146 226 129 219 q 144 239 144 229 q 156 294 144 263 q 181 329 167 325 q 221 453 178 390 q 231 513 221 485 q 265 554 240 542 q 278 607 267 581 q 303 651 289 633 q 299 679 299 667 q 306 710 299 699 q 324 725 314 722 q 322 742 322 731 q 344 790 322 772 l 343 799 q 360 836 343 819 q 358 851 358 842 q 371 901 358 876 q 399 935 383 926 q 451 969 424 969 q 483 961 464 969 q 542 899 524 960 q 560 863 554 883 q 564 826 565 843 q 583 804 576 818 q 588 775 589 790 q 612 736 601 763 q 622 686 622 710 q 621 671 622 675 q 638 643 631 661 q 646 610 646 625 q 644 597 646 601 q 674 558 663 585 q 691 506 686 532 q 693 471 696 481 q 708 451 696 467 q 728 419 721 435 q 735 389 735 403 q 732 371 735 376 q 744 355 738 364 q 756 339 751 346 q 760 322 760 332 q 758 308 760 313 q 778 279 769 297 q 786 244 786 261 q 781 224 786 231 q 804 192 796 213 q 810 150 813 171 m 554 451 q 567 462 557 460 q 583 460 576 464 q 581 472 581 468 q 586 489 581 483 q 566 514 574 499 q 560 544 558 529 q 542 559 550 547 q 535 585 535 571 q 538 600 535 589 q 508 654 508 618 q 513 686 508 668 q 506 692 511 688 q 501 708 500 697 q 475 753 474 717 q 457 774 464 758 q 432 724 460 742 q 426 689 433 708 q 410 660 419 669 q 411 642 411 654 q 385 557 411 610 q 374 529 378 542 q 362 501 368 515 q 346 481 356 488 q 340 456 346 467 l 351 457 q 372 450 365 457 q 389 457 376 457 q 401 453 397 457 q 443 465 418 465 q 476 460 461 465 q 501 444 492 454 q 531 460 515 460 q 554 451 540 460 m 386 -60 q 424 -49 399 -49 q 449 -54 442 -49 q 479 -101 479 -68 q 470 -131 479 -117 q 446 -151 461 -144 q 410 -167 431 -167 q 388 -161 401 -167 q 354 -145 365 -160 q 343 -110 343 -131 q 354 -76 343 -90 q 386 -60 365 -61 m 321 1075 q 285 1101 301 1082 q 269 1144 268 1119 q 263 1167 263 1158 q 276 1194 263 1183 q 308 1204 290 1204 q 336 1194 325 1204 q 347 1164 347 1183 q 385 1128 381 1147 q 399 1129 389 1129 q 442 1118 428 1129 q 511 1139 467 1135 q 514 1165 508 1151 q 532 1183 519 1179 q 547 1210 535 1200 q 576 1221 560 1221 q 607 1208 594 1221 q 615 1179 615 1199 q 596 1129 615 1146 q 584 1099 597 1117 q 549 1067 571 1081 q 507 1053 528 1054 q 479 1040 497 1046 q 444 1033 461 1033 q 419 1040 426 1033 q 394 1035 414 1035 q 364 1042 372 1035 q 338 1049 350 1040 q 321 1075 325 1058 z "},"Ằ":{"ha":843,"x_min":76,"x_max":858,"o":"m 461 1286 q 494 1259 481 1279 q 507 1218 507 1239 q 488 1179 507 1190 q 464 1172 478 1172 q 425 1189 449 1172 q 378 1221 399 1194 q 361 1282 358 1246 q 332 1332 339 1301 q 301 1374 301 1343 q 316 1412 301 1394 q 351 1429 331 1429 q 383 1415 368 1429 q 429 1369 429 1410 l 428 1358 q 449 1328 442 1344 q 461 1286 456 1313 m 329 1053 q 292 1080 310 1060 q 275 1125 274 1100 q 268 1149 268 1136 q 283 1176 268 1165 q 315 1188 297 1188 q 344 1177 332 1188 q 356 1146 356 1167 q 396 1108 389 1131 q 410 1110 400 1110 q 454 1097 442 1110 q 528 1119 481 1115 q 530 1147 524 1133 q 549 1167 536 1161 q 565 1194 551 1183 q 594 1206 578 1206 q 628 1192 614 1206 q 636 1163 636 1182 q 631 1133 636 1147 q 615 1110 625 1118 q 603 1077 617 1096 q 567 1044 590 1058 q 522 1029 544 1031 q 493 1015 513 1022 q 457 1008 474 1008 q 432 1017 440 1008 q 406 1011 426 1011 q 374 1018 382 1011 q 346 1026 358 1017 q 329 1053 333 1036 m 810 150 q 834 140 810 150 q 853 75 858 131 q 858 50 858 64 q 840 14 858 28 q 799 0 822 0 q 763 13 778 0 q 749 51 749 26 q 717 76 733 54 q 701 119 701 97 q 704 136 701 125 q 680 165 690 143 q 665 210 669 186 q 663 243 661 233 q 634 284 644 251 q 626 340 624 317 q 603 336 617 336 q 551 353 575 336 q 497 335 533 335 q 450 351 464 335 q 411 336 432 336 q 385 343 394 336 q 356 336 375 336 q 322 342 339 336 q 296 357 306 347 q 289 354 294 357 q 297 307 297 328 q 265 251 297 275 q 271 225 271 240 q 250 167 271 194 q 210 136 229 139 q 215 107 215 124 q 190 38 215 69 q 129 7 165 7 q 114 8 119 7 q 86 19 96 8 q 76 49 76 31 q 83 78 76 61 q 82 94 82 83 q 110 143 82 122 q 108 156 108 147 q 119 198 108 176 q 146 226 129 219 q 144 239 144 229 q 156 294 144 263 q 181 329 167 325 q 221 453 178 390 q 231 513 221 485 q 265 554 240 542 q 278 607 267 581 q 303 651 289 633 q 299 679 299 667 q 306 710 299 699 q 324 725 314 722 q 322 742 322 731 q 344 790 322 772 l 343 799 q 360 836 343 819 q 358 851 358 842 q 371 901 358 876 q 399 935 383 926 q 451 969 424 969 q 483 961 464 969 q 542 899 524 960 q 560 863 554 883 q 564 826 565 843 q 583 804 576 818 q 588 775 589 790 q 612 736 601 763 q 622 686 622 710 q 621 671 622 675 q 638 643 631 661 q 646 610 646 625 q 644 597 646 601 q 674 558 663 585 q 691 506 686 532 q 693 471 696 481 q 708 451 696 467 q 728 419 721 435 q 735 389 735 403 q 732 371 735 376 q 744 355 738 364 q 756 339 751 346 q 760 322 760 332 q 758 308 760 313 q 778 279 769 297 q 786 244 786 261 q 781 224 786 231 q 804 192 796 213 q 810 150 813 171 m 554 451 q 567 462 557 460 q 583 460 576 464 q 581 472 581 468 q 586 489 581 483 q 566 514 574 499 q 560 544 558 529 q 542 559 550 547 q 535 585 535 571 q 538 600 535 589 q 508 654 508 618 q 513 686 508 668 q 506 692 511 688 q 501 708 500 697 q 475 753 474 717 q 457 774 464 758 q 432 724 460 742 q 426 689 433 708 q 410 660 419 669 q 411 642 411 654 q 385 557 411 610 q 374 529 378 542 q 362 501 368 515 q 346 481 356 488 q 340 456 346 467 l 351 457 q 372 450 365 457 q 389 457 376 457 q 401 453 397 457 q 443 465 418 465 q 476 460 461 465 q 501 444 492 454 q 531 460 515 460 q 554 451 540 460 z "},"Ẳ":{"ha":843,"x_min":76,"x_max":858,"o":"m 374 1325 q 357 1329 364 1325 q 336 1364 336 1340 q 351 1399 336 1383 q 386 1414 365 1415 q 413 1421 400 1421 q 440 1410 432 1421 q 486 1385 464 1410 q 504 1331 508 1361 q 515 1311 511 1324 q 519 1286 519 1299 q 501 1250 519 1261 q 492 1212 507 1232 q 460 1193 478 1192 q 422 1172 446 1172 q 386 1185 403 1172 q 369 1214 369 1197 q 379 1236 369 1226 q 390 1260 381 1250 q 411 1272 399 1269 l 418 1281 q 406 1311 408 1290 q 381 1325 390 1315 l 374 1325 m 315 1058 q 278 1085 296 1065 q 263 1131 260 1106 q 256 1154 256 1142 q 270 1182 256 1171 q 303 1193 285 1193 q 331 1183 319 1193 q 343 1151 343 1172 q 371 1133 361 1142 q 383 1113 381 1125 q 399 1115 392 1115 q 443 1103 425 1115 q 515 1125 471 1121 q 519 1153 513 1139 q 538 1171 525 1167 q 553 1200 540 1189 q 583 1211 567 1211 q 617 1197 603 1211 q 625 1168 625 1188 q 619 1138 625 1153 q 604 1114 614 1122 q 592 1082 606 1100 q 556 1050 579 1064 q 511 1035 533 1036 q 483 1020 503 1026 q 446 1014 463 1014 q 419 1021 428 1014 q 393 1015 414 1015 q 361 1022 369 1015 q 333 1031 346 1021 q 315 1058 321 1040 m 810 150 q 834 140 810 150 q 853 75 858 131 q 858 50 858 64 q 840 14 858 28 q 799 0 822 0 q 763 13 778 0 q 749 51 749 26 q 717 76 733 54 q 701 119 701 97 q 704 136 701 125 q 680 165 690 143 q 665 210 669 186 q 663 243 661 233 q 634 284 644 251 q 626 340 624 317 q 603 336 617 336 q 551 353 575 336 q 497 335 533 335 q 450 351 464 335 q 411 336 432 336 q 385 343 394 336 q 356 336 375 336 q 322 342 339 336 q 296 357 306 347 q 289 354 294 357 q 297 307 297 328 q 265 251 297 275 q 271 225 271 240 q 250 167 271 194 q 210 136 229 139 q 215 107 215 124 q 190 38 215 69 q 129 7 165 7 q 114 8 119 7 q 86 19 96 8 q 76 49 76 31 q 83 78 76 61 q 82 94 82 83 q 110 143 82 122 q 108 156 108 147 q 119 198 108 176 q 146 226 129 219 q 144 239 144 229 q 156 294 144 263 q 181 329 167 325 q 221 453 178 390 q 231 513 221 485 q 265 554 240 542 q 278 607 267 581 q 303 651 289 633 q 299 679 299 667 q 306 710 299 699 q 324 725 314 722 q 322 742 322 731 q 344 790 322 772 l 343 799 q 360 836 343 819 q 358 851 358 842 q 371 901 358 876 q 399 935 383 926 q 451 969 424 969 q 483 961 464 969 q 542 899 524 960 q 560 863 554 883 q 564 826 565 843 q 583 804 576 818 q 588 775 589 790 q 612 736 601 763 q 622 686 622 710 q 621 671 622 675 q 638 643 631 661 q 646 610 646 625 q 644 597 646 601 q 674 558 663 585 q 691 506 686 532 q 693 471 696 481 q 708 451 696 467 q 728 419 721 435 q 735 389 735 403 q 732 371 735 376 q 744 355 738 364 q 756 339 751 346 q 760 322 760 332 q 758 308 760 313 q 778 279 769 297 q 786 244 786 261 q 781 224 786 231 q 804 192 796 213 q 810 150 813 171 m 554 451 q 567 462 557 460 q 583 460 576 464 q 581 472 581 468 q 586 489 581 483 q 566 514 574 499 q 560 544 558 529 q 542 559 550 547 q 535 585 535 571 q 538 600 535 589 q 508 654 508 618 q 513 686 508 668 q 506 692 511 688 q 501 708 500 697 q 475 753 474 717 q 457 774 464 758 q 432 724 460 742 q 426 689 433 708 q 410 660 419 669 q 411 642 411 654 q 385 557 411 610 q 374 529 378 542 q 362 501 368 515 q 346 481 356 488 q 340 456 346 467 l 351 457 q 372 450 365 457 q 389 457 376 457 q 401 453 397 457 q 443 465 418 465 q 476 460 461 465 q 501 444 492 454 q 531 460 515 460 q 554 451 540 460 z "},"Ẵ":{"ha":843,"x_min":76,"x_max":858,"o":"m 401 1283 q 388 1282 397 1282 q 372 1288 376 1282 q 356 1279 367 1282 q 338 1281 344 1276 q 328 1263 339 1274 q 310 1250 318 1253 q 292 1224 306 1233 q 264 1215 279 1215 q 236 1224 249 1215 q 217 1260 217 1239 q 232 1296 217 1278 q 281 1357 236 1340 q 305 1371 286 1364 q 338 1379 324 1378 q 354 1382 342 1382 q 388 1376 371 1382 q 406 1360 404 1369 q 421 1363 414 1363 q 443 1357 433 1363 q 457 1342 453 1351 q 519 1321 481 1343 q 549 1340 528 1332 q 581 1346 569 1349 q 601 1396 581 1374 q 635 1411 615 1411 q 669 1397 654 1411 q 685 1363 685 1383 q 682 1347 685 1358 q 610 1254 685 1276 q 572 1236 596 1243 q 522 1229 547 1229 q 486 1235 499 1229 q 458 1241 471 1233 q 442 1260 444 1249 q 420 1267 435 1258 q 401 1283 406 1275 m 319 1046 q 281 1074 299 1053 q 264 1119 263 1094 q 257 1143 257 1133 q 272 1172 257 1161 q 306 1183 286 1183 q 335 1172 322 1183 q 347 1140 347 1161 q 388 1103 382 1124 q 403 1104 392 1104 q 449 1092 435 1104 q 522 1114 475 1110 q 526 1142 519 1128 q 546 1161 533 1157 q 563 1190 549 1179 q 593 1201 576 1201 q 625 1189 613 1201 q 635 1157 635 1178 q 629 1126 635 1142 q 614 1104 624 1111 q 601 1071 615 1090 q 564 1038 588 1051 q 518 1022 540 1024 q 489 1007 508 1014 q 451 1000 469 1000 q 425 1008 435 1000 q 399 1003 419 1003 q 365 1010 374 1003 q 337 1019 350 1008 q 319 1046 324 1029 m 810 150 q 834 140 810 150 q 853 75 858 131 q 858 50 858 64 q 840 14 858 28 q 799 0 822 0 q 763 13 778 0 q 749 51 749 26 q 717 76 733 54 q 701 119 701 97 q 704 136 701 125 q 680 165 690 143 q 665 210 669 186 q 663 243 661 233 q 634 284 644 251 q 626 340 624 317 q 603 336 617 336 q 551 353 575 336 q 497 335 533 335 q 450 351 464 335 q 411 336 432 336 q 385 343 394 336 q 356 336 375 336 q 322 342 339 336 q 296 357 306 347 q 289 354 294 357 q 297 307 297 328 q 265 251 297 275 q 271 225 271 240 q 250 167 271 194 q 210 136 229 139 q 215 107 215 124 q 190 38 215 69 q 129 7 165 7 q 114 8 119 7 q 86 19 96 8 q 76 49 76 31 q 83 78 76 61 q 82 94 82 83 q 110 143 82 122 q 108 156 108 147 q 119 198 108 176 q 146 226 129 219 q 144 239 144 229 q 156 294 144 263 q 181 329 167 325 q 221 453 178 390 q 231 513 221 485 q 265 554 240 542 q 278 607 267 581 q 303 651 289 633 q 299 679 299 667 q 306 710 299 699 q 324 725 314 722 q 322 742 322 731 q 344 790 322 772 l 343 799 q 360 836 343 819 q 358 851 358 842 q 371 901 358 876 q 399 935 383 926 q 451 969 424 969 q 483 961 464 969 q 542 899 524 960 q 560 863 554 883 q 564 826 565 843 q 583 804 576 818 q 588 775 589 790 q 612 736 601 763 q 622 686 622 710 q 621 671 622 675 q 638 643 631 661 q 646 610 646 625 q 644 597 646 601 q 674 558 663 585 q 691 506 686 532 q 693 471 696 481 q 708 451 696 467 q 728 419 721 435 q 735 389 735 403 q 732 371 735 376 q 744 355 738 364 q 756 339 751 346 q 760 322 760 332 q 758 308 760 313 q 778 279 769 297 q 786 244 786 261 q 781 224 786 231 q 804 192 796 213 q 810 150 813 171 m 554 451 q 567 462 557 460 q 583 460 576 464 q 581 472 581 468 q 586 489 581 483 q 566 514 574 499 q 560 544 558 529 q 542 559 550 547 q 535 585 535 571 q 538 600 535 589 q 508 654 508 618 q 513 686 508 668 q 506 692 511 688 q 501 708 500 697 q 475 753 474 717 q 457 774 464 758 q 432 724 460 742 q 426 689 433 708 q 410 660 419 669 q 411 642 411 654 q 385 557 411 610 q 374 529 378 542 q 362 501 368 515 q 346 481 356 488 q 340 456 346 467 l 351 457 q 372 450 365 457 q 389 457 376 457 q 401 453 397 457 q 443 465 418 465 q 476 460 461 465 q 501 444 492 454 q 531 460 515 460 q 554 451 540 460 z "},"Â":{"ha":843,"x_min":76,"x_max":858,"o":"m 810 150 q 834 140 810 150 q 853 75 858 131 q 858 50 858 64 q 840 14 858 28 q 799 0 822 0 q 763 13 778 0 q 749 51 749 26 q 717 76 733 54 q 701 119 701 97 q 704 136 701 125 q 680 165 690 143 q 665 210 669 186 q 663 243 661 233 q 634 284 644 251 q 626 340 624 317 q 603 336 617 336 q 551 353 575 336 q 497 335 533 335 q 450 351 464 335 q 411 336 432 336 q 385 343 394 336 q 356 336 375 336 q 322 342 339 336 q 296 357 306 347 q 289 354 294 357 q 297 307 297 328 q 265 251 297 275 q 271 225 271 240 q 250 167 271 194 q 210 136 229 139 q 215 107 215 124 q 190 38 215 69 q 129 7 165 7 q 114 8 119 7 q 86 19 96 8 q 76 49 76 31 q 83 78 76 61 q 82 94 82 83 q 110 143 82 122 q 108 156 108 147 q 119 198 108 176 q 146 226 129 219 q 144 239 144 229 q 156 294 144 263 q 181 329 167 325 q 221 453 178 390 q 231 513 221 485 q 265 554 240 542 q 278 607 267 581 q 303 651 289 633 q 299 679 299 667 q 306 710 299 699 q 324 725 314 722 q 322 742 322 731 q 344 790 322 772 l 343 799 q 360 836 343 819 q 358 851 358 842 q 371 901 358 876 q 399 935 383 926 q 451 969 424 969 q 483 961 464 969 q 542 899 524 960 q 560 863 554 883 q 564 826 565 843 q 583 804 576 818 q 588 775 589 790 q 612 736 601 763 q 622 686 622 710 q 621 671 622 675 q 638 643 631 661 q 646 610 646 625 q 644 597 646 601 q 674 558 663 585 q 691 506 686 532 q 693 471 696 481 q 708 451 696 467 q 728 419 721 435 q 735 389 735 403 q 732 371 735 376 q 744 355 738 364 q 756 339 751 346 q 760 322 760 332 q 758 308 760 313 q 778 279 769 297 q 786 244 786 261 q 781 224 786 231 q 804 192 796 213 q 810 150 813 171 m 554 451 q 567 462 557 460 q 583 460 576 464 q 581 472 581 468 q 586 489 581 483 q 566 514 574 499 q 560 544 558 529 q 542 559 550 547 q 535 585 535 571 q 538 600 535 589 q 508 654 508 618 q 513 686 508 668 q 506 692 511 688 q 501 708 500 697 q 475 753 474 717 q 457 774 464 758 q 432 724 460 742 q 426 689 433 708 q 410 660 419 669 q 411 642 411 654 q 385 557 411 610 q 374 529 378 542 q 362 501 368 515 q 346 481 356 488 q 340 456 346 467 l 351 457 q 372 450 365 457 q 389 457 376 457 q 401 453 397 457 q 443 465 418 465 q 476 460 461 465 q 501 444 492 454 q 531 460 515 460 q 554 451 540 460 m 528 1182 q 557 1163 539 1182 q 576 1129 575 1144 q 604 1103 593 1122 q 618 1069 615 1085 q 643 1032 643 1054 q 622 1003 643 1015 q 604 999 614 999 q 575 1010 588 999 q 560 1038 563 1022 q 533 1060 547 1043 q 517 1090 519 1078 q 486 1103 504 1089 q 465 1129 468 1117 q 444 1096 461 1114 q 417 1076 428 1078 q 401 1050 413 1064 q 379 1033 390 1036 q 360 1003 374 1017 q 331 990 347 990 q 304 999 319 990 q 292 1014 297 1004 q 288 1033 288 1024 q 304 1069 288 1056 q 317 1099 307 1085 q 340 1121 326 1114 q 352 1145 342 1135 q 378 1158 363 1156 q 397 1182 383 1176 q 408 1195 399 1189 q 425 1204 417 1201 q 442 1226 429 1217 q 467 1236 454 1236 q 490 1226 481 1236 q 517 1213 506 1228 q 528 1182 528 1199 z "},"Ấ":{"ha":843,"x_min":76,"x_max":858,"o":"m 810 150 q 834 140 810 150 q 853 75 858 131 q 858 50 858 64 q 840 14 858 28 q 799 0 822 0 q 763 13 778 0 q 749 51 749 26 q 717 76 733 54 q 701 119 701 97 q 704 136 701 125 q 680 165 690 143 q 665 210 669 186 q 663 243 661 233 q 634 284 644 251 q 626 340 624 317 q 603 336 617 336 q 551 353 575 336 q 497 335 533 335 q 450 351 464 335 q 411 336 432 336 q 385 343 394 336 q 356 336 375 336 q 322 342 339 336 q 296 357 306 347 q 289 354 294 357 q 297 307 297 328 q 265 251 297 275 q 271 225 271 240 q 250 167 271 194 q 210 136 229 139 q 215 107 215 124 q 190 38 215 69 q 129 7 165 7 q 114 8 119 7 q 86 19 96 8 q 76 49 76 31 q 83 78 76 61 q 82 94 82 83 q 110 143 82 122 q 108 156 108 147 q 119 198 108 176 q 146 226 129 219 q 144 239 144 229 q 156 294 144 263 q 181 329 167 325 q 221 453 178 390 q 231 513 221 485 q 265 554 240 542 q 278 607 267 581 q 303 651 289 633 q 299 679 299 667 q 306 710 299 699 q 324 725 314 722 q 322 742 322 731 q 344 790 322 772 l 343 799 q 360 836 343 819 q 358 851 358 842 q 371 901 358 876 q 399 935 383 926 q 451 969 424 969 q 483 961 464 969 q 542 899 524 960 q 560 863 554 883 q 564 826 565 843 q 583 804 576 818 q 588 775 589 790 q 612 736 601 763 q 622 686 622 710 q 621 671 622 675 q 638 643 631 661 q 646 610 646 625 q 644 597 646 601 q 674 558 663 585 q 691 506 686 532 q 693 471 696 481 q 708 451 696 467 q 728 419 721 435 q 735 389 735 403 q 732 371 735 376 q 744 355 738 364 q 756 339 751 346 q 760 322 760 332 q 758 308 760 313 q 778 279 769 297 q 786 244 786 261 q 781 224 786 231 q 804 192 796 213 q 810 150 813 171 m 554 451 q 567 462 557 460 q 583 460 576 464 q 581 472 581 468 q 586 489 581 483 q 566 514 574 499 q 560 544 558 529 q 542 559 550 547 q 535 585 535 571 q 538 600 535 589 q 508 654 508 618 q 513 686 508 668 q 506 692 511 688 q 501 708 500 697 q 475 753 474 717 q 457 774 464 758 q 432 724 460 742 q 426 689 433 708 q 410 660 419 669 q 411 642 411 654 q 385 557 411 610 q 374 529 378 542 q 362 501 368 515 q 346 481 356 488 q 340 456 346 467 l 351 457 q 372 450 365 457 q 389 457 376 457 q 401 453 397 457 q 443 465 418 465 q 476 460 461 465 q 501 444 492 454 q 531 460 515 460 q 554 451 540 460 m 533 1183 q 563 1165 544 1183 q 582 1131 581 1146 q 610 1105 599 1124 q 624 1071 621 1086 q 649 1033 649 1056 q 628 1004 649 1017 q 610 1000 619 1000 q 581 1012 593 1000 q 565 1039 568 1024 q 539 1062 553 1044 q 522 1092 525 1079 q 492 1104 510 1090 q 471 1131 474 1118 q 450 1097 467 1115 q 422 1078 433 1079 q 407 1051 418 1065 q 385 1035 396 1038 q 366 1005 379 1018 q 336 992 353 992 q 310 1000 325 992 q 298 1015 303 1006 q 293 1035 293 1025 q 310 1071 293 1057 q 322 1101 313 1086 q 346 1122 332 1115 q 358 1147 347 1136 q 383 1160 368 1157 q 403 1183 389 1178 q 413 1197 404 1190 q 431 1206 422 1203 q 447 1228 435 1218 q 472 1238 460 1238 q 496 1228 486 1238 q 522 1215 511 1229 q 533 1183 533 1200 m 747 1375 q 756 1339 756 1358 q 740 1300 756 1314 q 679 1229 733 1249 q 656 1203 671 1213 q 626 1194 640 1194 q 600 1206 610 1194 q 593 1238 590 1217 q 590 1253 590 1249 q 599 1278 590 1265 q 619 1297 607 1290 q 660 1342 624 1321 q 654 1368 654 1354 q 673 1408 654 1392 q 713 1424 692 1424 q 738 1414 728 1424 q 749 1386 749 1404 l 747 1375 z "},"Ậ":{"ha":935,"x_min":76,"x_max":858,"o":"m 810 150 q 834 140 810 150 q 853 75 858 131 q 858 50 858 64 q 840 14 858 28 q 799 0 822 0 q 763 13 778 0 q 749 51 749 26 q 717 76 733 54 q 701 119 701 97 q 704 136 701 125 q 680 165 690 143 q 665 210 669 186 q 663 243 661 233 q 634 284 644 251 q 626 340 624 317 q 603 336 617 336 q 551 353 575 336 q 497 335 533 335 q 450 351 464 335 q 411 336 432 336 q 385 343 394 336 q 356 336 375 336 q 322 342 339 336 q 296 357 306 347 q 289 354 294 357 q 297 307 297 328 q 265 251 297 275 q 271 225 271 240 q 250 167 271 194 q 210 136 229 139 q 215 107 215 124 q 190 38 215 69 q 129 7 165 7 q 114 8 119 7 q 86 19 96 8 q 76 49 76 31 q 83 78 76 61 q 82 94 82 83 q 110 143 82 122 q 108 156 108 147 q 119 198 108 176 q 146 226 129 219 q 144 239 144 229 q 156 294 144 263 q 181 329 167 325 q 221 453 178 390 q 231 513 221 485 q 265 554 240 542 q 278 607 267 581 q 303 651 289 633 q 299 679 299 667 q 306 710 299 699 q 324 725 314 722 q 322 742 322 731 q 344 790 322 772 l 343 799 q 360 836 343 819 q 358 851 358 842 q 371 901 358 876 q 399 935 383 926 q 451 969 424 969 q 483 961 464 969 q 542 899 524 960 q 560 863 554 883 q 564 826 565 843 q 583 804 576 818 q 588 775 589 790 q 612 736 601 763 q 622 686 622 710 q 621 671 622 675 q 638 643 631 661 q 646 610 646 625 q 644 597 646 601 q 674 558 663 585 q 691 506 686 532 q 693 471 696 481 q 708 451 696 467 q 728 419 721 435 q 735 389 735 403 q 732 371 735 376 q 744 355 738 364 q 756 339 751 346 q 760 322 760 332 q 758 308 760 313 q 778 279 769 297 q 786 244 786 261 q 781 224 786 231 q 804 192 796 213 q 810 150 813 171 m 554 451 q 567 462 557 460 q 583 460 576 464 q 581 472 581 468 q 586 489 581 483 q 566 514 574 499 q 560 544 558 529 q 542 559 550 547 q 535 585 535 571 q 538 600 535 589 q 508 654 508 618 q 513 686 508 668 q 506 692 511 688 q 501 708 500 697 q 475 753 474 717 q 457 774 464 758 q 432 724 460 742 q 426 689 433 708 q 410 660 419 669 q 411 642 411 654 q 385 557 411 610 q 374 529 378 542 q 362 501 368 515 q 346 481 356 488 q 340 456 346 467 l 351 457 q 372 450 365 457 q 389 457 376 457 q 401 453 397 457 q 443 465 418 465 q 476 460 461 465 q 501 444 492 454 q 531 460 515 460 q 554 451 540 460 m 385 -60 q 422 -49 397 -49 q 447 -54 440 -49 q 478 -101 478 -68 q 469 -131 478 -117 q 444 -151 460 -144 q 408 -167 429 -167 q 386 -161 400 -167 q 353 -145 364 -160 q 342 -110 342 -131 q 353 -76 342 -90 q 385 -60 364 -61 m 515 1167 q 544 1148 526 1167 q 564 1114 563 1129 q 592 1088 581 1107 q 606 1054 603 1069 q 631 1017 631 1039 q 610 988 631 1000 q 592 983 601 983 q 563 995 575 983 q 547 1022 550 1007 q 521 1045 535 1028 q 504 1075 507 1063 q 474 1088 492 1074 q 453 1114 456 1101 q 432 1081 449 1099 q 404 1061 415 1063 q 389 1035 400 1049 q 367 1018 378 1021 q 348 988 361 1001 q 318 975 335 975 q 292 983 307 975 q 280 999 285 989 q 275 1018 275 1008 q 292 1054 275 1040 q 304 1084 294 1069 q 328 1106 314 1099 q 340 1130 329 1119 q 365 1143 350 1140 q 385 1167 371 1161 q 395 1180 386 1174 q 413 1189 404 1186 q 429 1211 417 1201 q 454 1221 442 1221 q 478 1211 468 1221 q 504 1198 493 1213 q 515 1167 515 1183 z "},"Ầ":{"ha":935,"x_min":76,"x_max":858,"o":"m 810 150 q 834 140 810 150 q 853 75 858 131 q 858 50 858 64 q 840 14 858 28 q 799 0 822 0 q 763 13 778 0 q 749 51 749 26 q 717 76 733 54 q 701 119 701 97 q 704 136 701 125 q 680 165 690 143 q 665 210 669 186 q 663 243 661 233 q 634 284 644 251 q 626 340 624 317 q 603 336 617 336 q 551 353 575 336 q 497 335 533 335 q 450 351 464 335 q 411 336 432 336 q 385 343 394 336 q 356 336 375 336 q 322 342 339 336 q 296 357 306 347 q 289 354 294 357 q 297 307 297 328 q 265 251 297 275 q 271 225 271 240 q 250 167 271 194 q 210 136 229 139 q 215 107 215 124 q 190 38 215 69 q 129 7 165 7 q 114 8 119 7 q 86 19 96 8 q 76 49 76 31 q 83 78 76 61 q 82 94 82 83 q 110 143 82 122 q 108 156 108 147 q 119 198 108 176 q 146 226 129 219 q 144 239 144 229 q 156 294 144 263 q 181 329 167 325 q 221 453 178 390 q 231 513 221 485 q 265 554 240 542 q 278 607 267 581 q 303 651 289 633 q 299 679 299 667 q 306 710 299 699 q 324 725 314 722 q 322 742 322 731 q 344 790 322 772 l 343 799 q 360 836 343 819 q 358 851 358 842 q 371 901 358 876 q 399 935 383 926 q 451 969 424 969 q 483 961 464 969 q 542 899 524 960 q 560 863 554 883 q 564 826 565 843 q 583 804 576 818 q 588 775 589 790 q 612 736 601 763 q 622 686 622 710 q 621 671 622 675 q 638 643 631 661 q 646 610 646 625 q 644 597 646 601 q 674 558 663 585 q 691 506 686 532 q 693 471 696 481 q 708 451 696 467 q 728 419 721 435 q 735 389 735 403 q 732 371 735 376 q 744 355 738 364 q 756 339 751 346 q 760 322 760 332 q 758 308 760 313 q 778 279 769 297 q 786 244 786 261 q 781 224 786 231 q 804 192 796 213 q 810 150 813 171 m 554 451 q 567 462 557 460 q 583 460 576 464 q 581 472 581 468 q 586 489 581 483 q 566 514 574 499 q 560 544 558 529 q 542 559 550 547 q 535 585 535 571 q 538 600 535 589 q 508 654 508 618 q 513 686 508 668 q 506 692 511 688 q 501 708 500 697 q 475 753 474 717 q 457 774 464 758 q 432 724 460 742 q 426 689 433 708 q 410 660 419 669 q 411 642 411 654 q 385 557 411 610 q 374 529 378 542 q 362 501 368 515 q 346 481 356 488 q 340 456 346 467 l 351 457 q 372 450 365 457 q 389 457 376 457 q 401 453 397 457 q 443 465 418 465 q 476 460 461 465 q 501 444 492 454 q 531 460 515 460 q 554 451 540 460 m 515 1169 q 544 1151 526 1169 q 564 1117 563 1132 q 592 1091 581 1110 q 606 1057 603 1072 q 631 1019 631 1042 q 610 990 631 1003 q 592 986 601 986 q 563 998 575 986 q 547 1025 550 1010 q 521 1048 535 1031 q 504 1078 507 1065 q 474 1090 492 1076 q 453 1117 456 1104 q 432 1083 449 1101 q 404 1064 415 1065 q 389 1038 400 1051 q 367 1021 378 1024 q 348 991 361 1004 q 318 978 335 978 q 292 986 307 978 q 280 1001 285 992 q 275 1021 275 1011 q 292 1057 275 1043 q 304 1087 294 1072 q 328 1108 314 1101 q 340 1133 329 1122 q 365 1146 350 1143 q 385 1169 371 1164 q 395 1183 386 1176 q 413 1192 404 1189 q 429 1214 417 1204 q 454 1224 442 1224 q 478 1214 468 1224 q 504 1201 493 1215 q 515 1169 515 1186 m 625 1319 q 658 1292 644 1313 q 671 1251 671 1272 q 651 1213 671 1224 q 628 1206 640 1206 q 589 1222 613 1206 q 542 1254 563 1228 q 525 1315 522 1279 q 496 1365 501 1335 q 465 1407 465 1376 q 480 1445 465 1428 q 515 1463 494 1463 q 547 1449 532 1463 q 593 1403 593 1443 l 592 1392 q 613 1362 606 1378 q 625 1319 619 1346 z "},"Ẩ":{"ha":935,"x_min":76,"x_max":858,"o":"m 810 150 q 834 140 810 150 q 853 75 858 131 q 858 50 858 64 q 840 14 858 28 q 799 0 822 0 q 763 13 778 0 q 749 51 749 26 q 717 76 733 54 q 701 119 701 97 q 704 136 701 125 q 680 165 690 143 q 665 210 669 186 q 663 243 661 233 q 634 284 644 251 q 626 340 624 317 q 603 336 617 336 q 551 353 575 336 q 497 335 533 335 q 450 351 464 335 q 411 336 432 336 q 385 343 394 336 q 356 336 375 336 q 322 342 339 336 q 296 357 306 347 q 289 354 294 357 q 297 307 297 328 q 265 251 297 275 q 271 225 271 240 q 250 167 271 194 q 210 136 229 139 q 215 107 215 124 q 190 38 215 69 q 129 7 165 7 q 114 8 119 7 q 86 19 96 8 q 76 49 76 31 q 83 78 76 61 q 82 94 82 83 q 110 143 82 122 q 108 156 108 147 q 119 198 108 176 q 146 226 129 219 q 144 239 144 229 q 156 294 144 263 q 181 329 167 325 q 221 453 178 390 q 231 513 221 485 q 265 554 240 542 q 278 607 267 581 q 303 651 289 633 q 299 679 299 667 q 306 710 299 699 q 324 725 314 722 q 322 742 322 731 q 344 790 322 772 l 343 799 q 360 836 343 819 q 358 851 358 842 q 371 901 358 876 q 399 935 383 926 q 451 969 424 969 q 483 961 464 969 q 542 899 524 960 q 560 863 554 883 q 564 826 565 843 q 583 804 576 818 q 588 775 589 790 q 612 736 601 763 q 622 686 622 710 q 621 671 622 675 q 638 643 631 661 q 646 610 646 625 q 644 597 646 601 q 674 558 663 585 q 691 506 686 532 q 693 471 696 481 q 708 451 696 467 q 728 419 721 435 q 735 389 735 403 q 732 371 735 376 q 744 355 738 364 q 756 339 751 346 q 760 322 760 332 q 758 308 760 313 q 778 279 769 297 q 786 244 786 261 q 781 224 786 231 q 804 192 796 213 q 810 150 813 171 m 554 451 q 567 462 557 460 q 583 460 576 464 q 581 472 581 468 q 586 489 581 483 q 566 514 574 499 q 560 544 558 529 q 542 559 550 547 q 535 585 535 571 q 538 600 535 589 q 508 654 508 618 q 513 686 508 668 q 506 692 511 688 q 501 708 500 697 q 475 753 474 717 q 457 774 464 758 q 432 724 460 742 q 426 689 433 708 q 410 660 419 669 q 411 642 411 654 q 385 557 411 610 q 374 529 378 542 q 362 501 368 515 q 346 481 356 488 q 340 456 346 467 l 351 457 q 372 450 365 457 q 389 457 376 457 q 401 453 397 457 q 443 465 418 465 q 476 460 461 465 q 501 444 492 454 q 531 460 515 460 q 554 451 540 460 m 518 1146 q 547 1127 529 1146 q 567 1093 565 1108 q 594 1067 583 1086 q 608 1033 606 1049 q 633 996 633 1018 q 613 967 633 979 q 594 963 604 963 q 565 974 578 963 q 550 1001 553 986 q 524 1024 538 1007 q 507 1054 510 1042 q 476 1067 494 1053 q 456 1093 458 1081 q 435 1060 451 1078 q 407 1040 418 1042 q 392 1014 403 1028 q 369 997 381 1000 q 351 967 364 981 q 321 954 338 954 q 294 963 310 954 q 283 978 288 968 q 278 997 278 988 q 294 1033 278 1019 q 307 1063 297 1049 q 331 1085 317 1078 q 342 1109 332 1099 q 368 1122 353 1119 q 388 1146 374 1140 q 398 1159 389 1153 q 415 1168 407 1165 q 432 1190 419 1181 q 457 1200 444 1200 q 481 1190 471 1200 q 507 1177 496 1192 q 518 1146 518 1163 m 569 1322 q 553 1326 560 1322 q 532 1361 532 1338 q 547 1397 532 1381 q 582 1411 561 1413 q 608 1418 596 1418 q 636 1407 628 1418 q 682 1383 660 1407 q 700 1328 704 1358 q 711 1308 707 1321 q 715 1283 715 1296 q 697 1247 715 1258 q 688 1209 703 1229 q 656 1190 674 1189 q 618 1169 642 1169 q 582 1182 599 1169 q 565 1211 565 1194 q 575 1233 565 1224 q 585 1257 576 1247 q 607 1269 594 1267 l 614 1278 q 601 1308 604 1288 q 576 1322 586 1313 l 569 1322 z "},"Ẫ":{"ha":935,"x_min":76,"x_max":858,"o":"m 810 150 q 834 140 810 150 q 853 75 858 131 q 858 50 858 64 q 840 14 858 28 q 799 0 822 0 q 763 13 778 0 q 749 51 749 26 q 717 76 733 54 q 701 119 701 97 q 704 136 701 125 q 680 165 690 143 q 665 210 669 186 q 663 243 661 233 q 634 284 644 251 q 626 340 624 317 q 603 336 617 336 q 551 353 575 336 q 497 335 533 335 q 450 351 464 335 q 411 336 432 336 q 385 343 394 336 q 356 336 375 336 q 322 342 339 336 q 296 357 306 347 q 289 354 294 357 q 297 307 297 328 q 265 251 297 275 q 271 225 271 240 q 250 167 271 194 q 210 136 229 139 q 215 107 215 124 q 190 38 215 69 q 129 7 165 7 q 114 8 119 7 q 86 19 96 8 q 76 49 76 31 q 83 78 76 61 q 82 94 82 83 q 110 143 82 122 q 108 156 108 147 q 119 198 108 176 q 146 226 129 219 q 144 239 144 229 q 156 294 144 263 q 181 329 167 325 q 221 453 178 390 q 231 513 221 485 q 265 554 240 542 q 278 607 267 581 q 303 651 289 633 q 299 679 299 667 q 306 710 299 699 q 324 725 314 722 q 322 742 322 731 q 344 790 322 772 l 343 799 q 360 836 343 819 q 358 851 358 842 q 371 901 358 876 q 399 935 383 926 q 451 969 424 969 q 483 961 464 969 q 542 899 524 960 q 560 863 554 883 q 564 826 565 843 q 583 804 576 818 q 588 775 589 790 q 612 736 601 763 q 622 686 622 710 q 621 671 622 675 q 638 643 631 661 q 646 610 646 625 q 644 597 646 601 q 674 558 663 585 q 691 506 686 532 q 693 471 696 481 q 708 451 696 467 q 728 419 721 435 q 735 389 735 403 q 732 371 735 376 q 744 355 738 364 q 756 339 751 346 q 760 322 760 332 q 758 308 760 313 q 778 279 769 297 q 786 244 786 261 q 781 224 786 231 q 804 192 796 213 q 810 150 813 171 m 554 451 q 567 462 557 460 q 583 460 576 464 q 581 472 581 468 q 586 489 581 483 q 566 514 574 499 q 560 544 558 529 q 542 559 550 547 q 535 585 535 571 q 538 600 535 589 q 508 654 508 618 q 513 686 508 668 q 506 692 511 688 q 501 708 500 697 q 475 753 474 717 q 457 774 464 758 q 432 724 460 742 q 426 689 433 708 q 410 660 419 669 q 411 642 411 654 q 385 557 411 610 q 374 529 378 542 q 362 501 368 515 q 346 481 356 488 q 340 456 346 467 l 351 457 q 372 450 365 457 q 389 457 376 457 q 401 453 397 457 q 443 465 418 465 q 476 460 461 465 q 501 444 492 454 q 531 460 515 460 q 554 451 540 460 m 518 1157 q 547 1138 529 1157 q 567 1104 565 1119 q 594 1078 583 1097 q 608 1044 606 1060 q 633 1007 633 1029 q 613 978 633 990 q 594 974 604 974 q 565 985 578 974 q 550 1013 553 997 q 524 1035 538 1018 q 507 1065 510 1053 q 476 1078 494 1064 q 456 1104 458 1092 q 435 1071 451 1089 q 407 1051 418 1053 q 392 1025 403 1039 q 369 1008 381 1011 q 351 978 364 992 q 321 965 338 965 q 294 974 310 965 q 283 989 288 979 q 278 1008 278 999 q 294 1044 278 1031 q 307 1074 297 1060 q 331 1096 317 1089 q 342 1120 332 1110 q 368 1133 353 1131 q 388 1157 374 1151 q 398 1170 389 1164 q 415 1179 407 1176 q 432 1201 419 1192 q 457 1211 444 1211 q 481 1201 471 1211 q 507 1188 496 1203 q 518 1157 518 1174 m 421 1290 q 407 1289 417 1289 q 392 1294 396 1289 q 375 1286 386 1289 q 357 1288 364 1283 q 348 1270 358 1281 q 329 1257 338 1260 q 312 1231 325 1240 q 283 1222 299 1222 q 256 1231 268 1222 q 236 1267 236 1246 q 251 1303 236 1285 q 300 1364 256 1347 q 324 1378 306 1371 q 357 1386 343 1385 q 374 1389 361 1389 q 407 1383 390 1389 q 425 1367 424 1376 q 440 1369 433 1369 q 463 1364 453 1369 q 476 1349 472 1358 q 539 1328 500 1350 q 568 1347 547 1339 q 600 1353 589 1356 q 621 1403 600 1381 q 654 1418 635 1418 q 689 1404 674 1418 q 704 1369 704 1390 q 701 1354 704 1365 q 629 1261 704 1283 q 591 1243 615 1250 q 542 1236 567 1236 q 506 1242 518 1236 q 477 1248 490 1240 q 461 1267 464 1256 q 440 1274 454 1265 q 421 1290 425 1282 z "},"Ȁ":{"ha":935,"x_min":76,"x_max":858,"o":"m 810 150 q 834 140 810 150 q 853 75 858 131 q 858 50 858 64 q 840 14 858 28 q 799 0 822 0 q 763 13 778 0 q 749 51 749 26 q 717 76 733 54 q 701 119 701 97 q 704 136 701 125 q 680 165 690 143 q 665 210 669 186 q 663 243 661 233 q 634 284 644 251 q 626 340 624 317 q 603 336 617 336 q 551 353 575 336 q 497 335 533 335 q 450 351 464 335 q 411 336 432 336 q 385 343 394 336 q 356 336 375 336 q 322 342 339 336 q 296 357 306 347 q 289 354 294 357 q 297 307 297 328 q 265 251 297 275 q 271 225 271 240 q 250 167 271 194 q 210 136 229 139 q 215 107 215 124 q 190 38 215 69 q 129 7 165 7 q 114 8 119 7 q 86 19 96 8 q 76 49 76 31 q 83 78 76 61 q 82 94 82 83 q 110 143 82 122 q 108 156 108 147 q 119 198 108 176 q 146 226 129 219 q 144 239 144 229 q 156 294 144 263 q 181 329 167 325 q 221 453 178 390 q 231 513 221 485 q 265 554 240 542 q 278 607 267 581 q 303 651 289 633 q 299 679 299 667 q 306 710 299 699 q 324 725 314 722 q 322 742 322 731 q 344 790 322 772 l 343 799 q 360 836 343 819 q 358 851 358 842 q 371 901 358 876 q 399 935 383 926 q 451 969 424 969 q 483 961 464 969 q 542 899 524 960 q 560 863 554 883 q 564 826 565 843 q 583 804 576 818 q 588 775 589 790 q 612 736 601 763 q 622 686 622 710 q 621 671 622 675 q 638 643 631 661 q 646 610 646 625 q 644 597 646 601 q 674 558 663 585 q 691 506 686 532 q 693 471 696 481 q 708 451 696 467 q 728 419 721 435 q 735 389 735 403 q 732 371 735 376 q 744 355 738 364 q 756 339 751 346 q 760 322 760 332 q 758 308 760 313 q 778 279 769 297 q 786 244 786 261 q 781 224 786 231 q 804 192 796 213 q 810 150 813 171 m 554 451 q 567 462 557 460 q 583 460 576 464 q 581 472 581 468 q 586 489 581 483 q 566 514 574 499 q 560 544 558 529 q 542 559 550 547 q 535 585 535 571 q 538 600 535 589 q 508 654 508 618 q 513 686 508 668 q 506 692 511 688 q 501 708 500 697 q 475 753 474 717 q 457 774 464 758 q 432 724 460 742 q 426 689 433 708 q 410 660 419 669 q 411 642 411 654 q 385 557 411 610 q 374 529 378 542 q 362 501 368 515 q 346 481 356 488 q 340 456 346 467 l 351 457 q 372 450 365 457 q 389 457 376 457 q 401 453 397 457 q 443 465 418 465 q 476 460 461 465 q 501 444 492 454 q 531 460 515 460 q 554 451 540 460 m 418 1157 q 389 1219 389 1186 q 399 1251 389 1239 q 426 1263 410 1263 q 490 1222 456 1263 q 526 1198 507 1217 q 554 1161 546 1179 q 588 1145 571 1157 q 611 1119 606 1133 q 631 1076 631 1096 q 611 1044 631 1058 q 582 1033 596 1033 q 558 1040 571 1033 q 533 1056 546 1047 q 489 1066 511 1056 q 463 1099 467 1076 q 430 1120 439 1106 q 418 1157 421 1135 m 172 1157 q 143 1219 143 1186 q 153 1251 143 1239 q 181 1263 164 1263 q 244 1222 210 1263 q 281 1198 261 1217 q 308 1161 300 1179 q 342 1145 325 1157 q 365 1119 360 1133 q 385 1076 385 1096 q 365 1044 385 1058 q 336 1033 350 1033 q 313 1040 325 1033 q 288 1056 300 1047 q 243 1066 265 1056 q 217 1099 221 1076 q 184 1120 193 1106 q 172 1157 175 1135 z "},"Ä":{"ha":935,"x_min":76,"x_max":858,"o":"m 810 150 q 834 140 810 150 q 853 75 858 131 q 858 50 858 64 q 840 14 858 28 q 799 0 822 0 q 763 13 778 0 q 749 51 749 26 q 717 76 733 54 q 701 119 701 97 q 704 136 701 125 q 680 165 690 143 q 665 210 669 186 q 663 243 661 233 q 634 284 644 251 q 626 340 624 317 q 603 336 617 336 q 551 353 575 336 q 497 335 533 335 q 450 351 464 335 q 411 336 432 336 q 385 343 394 336 q 356 336 375 336 q 322 342 339 336 q 296 357 306 347 q 289 354 294 357 q 297 307 297 328 q 265 251 297 275 q 271 225 271 240 q 250 167 271 194 q 210 136 229 139 q 215 107 215 124 q 190 38 215 69 q 129 7 165 7 q 114 8 119 7 q 86 19 96 8 q 76 49 76 31 q 83 78 76 61 q 82 94 82 83 q 110 143 82 122 q 108 156 108 147 q 119 198 108 176 q 146 226 129 219 q 144 239 144 229 q 156 294 144 263 q 181 329 167 325 q 221 453 178 390 q 231 513 221 485 q 265 554 240 542 q 278 607 267 581 q 303 651 289 633 q 299 679 299 667 q 306 710 299 699 q 324 725 314 722 q 322 742 322 731 q 344 790 322 772 l 343 799 q 360 836 343 819 q 358 851 358 842 q 371 901 358 876 q 399 935 383 926 q 451 969 424 969 q 483 961 464 969 q 542 899 524 960 q 560 863 554 883 q 564 826 565 843 q 583 804 576 818 q 588 775 589 790 q 612 736 601 763 q 622 686 622 710 q 621 671 622 675 q 638 643 631 661 q 646 610 646 625 q 644 597 646 601 q 674 558 663 585 q 691 506 686 532 q 693 471 696 481 q 708 451 696 467 q 728 419 721 435 q 735 389 735 403 q 732 371 735 376 q 744 355 738 364 q 756 339 751 346 q 760 322 760 332 q 758 308 760 313 q 778 279 769 297 q 786 244 786 261 q 781 224 786 231 q 804 192 796 213 q 810 150 813 171 m 554 451 q 567 462 557 460 q 583 460 576 464 q 581 472 581 468 q 586 489 581 483 q 566 514 574 499 q 560 544 558 529 q 542 559 550 547 q 535 585 535 571 q 538 600 535 589 q 508 654 508 618 q 513 686 508 668 q 506 692 511 688 q 501 708 500 697 q 475 753 474 717 q 457 774 464 758 q 432 724 460 742 q 426 689 433 708 q 410 660 419 669 q 411 642 411 654 q 385 557 411 610 q 374 529 378 542 q 362 501 368 515 q 346 481 356 488 q 340 456 346 467 l 351 457 q 372 450 365 457 q 389 457 376 457 q 401 453 397 457 q 443 465 418 465 q 476 460 461 465 q 501 444 492 454 q 531 460 515 460 q 554 451 540 460 m 568 1057 q 535 1039 554 1039 q 505 1051 518 1039 q 492 1078 492 1063 q 508 1111 492 1094 q 539 1154 510 1140 q 578 1176 556 1176 q 615 1160 599 1176 q 632 1122 632 1143 q 610 1083 632 1100 q 602 1063 611 1069 q 579 1056 593 1056 l 568 1057 m 258 1111 q 250 1081 250 1094 q 267 1049 250 1061 q 304 1036 283 1036 q 342 1049 326 1036 q 357 1086 357 1061 q 356 1099 357 1094 q 361 1122 361 1110 q 344 1155 361 1143 q 307 1167 328 1167 q 269 1153 283 1167 q 258 1111 254 1139 z "},"Ạ":{"ha":935,"x_min":76,"x_max":858,"o":"m 810 150 q 834 140 810 150 q 853 75 858 131 q 858 50 858 64 q 840 14 858 28 q 799 0 822 0 q 763 13 778 0 q 749 51 749 26 q 717 76 733 54 q 701 119 701 97 q 704 136 701 125 q 680 165 690 143 q 665 210 669 186 q 663 243 661 233 q 634 284 644 251 q 626 340 624 317 q 603 336 617 336 q 551 353 575 336 q 497 335 533 335 q 450 351 464 335 q 411 336 432 336 q 385 343 394 336 q 356 336 375 336 q 322 342 339 336 q 296 357 306 347 q 289 354 294 357 q 297 307 297 328 q 265 251 297 275 q 271 225 271 240 q 250 167 271 194 q 210 136 229 139 q 215 107 215 124 q 190 38 215 69 q 129 7 165 7 q 114 8 119 7 q 86 19 96 8 q 76 49 76 31 q 83 78 76 61 q 82 94 82 83 q 110 143 82 122 q 108 156 108 147 q 119 198 108 176 q 146 226 129 219 q 144 239 144 229 q 156 294 144 263 q 181 329 167 325 q 221 453 178 390 q 231 513 221 485 q 265 554 240 542 q 278 607 267 581 q 303 651 289 633 q 299 679 299 667 q 306 710 299 699 q 324 725 314 722 q 322 742 322 731 q 344 790 322 772 l 343 799 q 360 836 343 819 q 358 851 358 842 q 371 901 358 876 q 399 935 383 926 q 451 969 424 969 q 483 961 464 969 q 542 899 524 960 q 560 863 554 883 q 564 826 565 843 q 583 804 576 818 q 588 775 589 790 q 612 736 601 763 q 622 686 622 710 q 621 671 622 675 q 638 643 631 661 q 646 610 646 625 q 644 597 646 601 q 674 558 663 585 q 691 506 686 532 q 693 471 696 481 q 708 451 696 467 q 728 419 721 435 q 735 389 735 403 q 732 371 735 376 q 744 355 738 364 q 756 339 751 346 q 760 322 760 332 q 758 308 760 313 q 778 279 769 297 q 786 244 786 261 q 781 224 786 231 q 804 192 796 213 q 810 150 813 171 m 554 451 q 567 462 557 460 q 583 460 576 464 q 581 472 581 468 q 586 489 581 483 q 566 514 574 499 q 560 544 558 529 q 542 559 550 547 q 535 585 535 571 q 538 600 535 589 q 508 654 508 618 q 513 686 508 668 q 506 692 511 688 q 501 708 500 697 q 475 753 474 717 q 457 774 464 758 q 432 724 460 742 q 426 689 433 708 q 410 660 419 669 q 411 642 411 654 q 385 557 411 610 q 374 529 378 542 q 362 501 368 515 q 346 481 356 488 q 340 456 346 467 l 351 457 q 372 450 365 457 q 389 457 376 457 q 401 453 397 457 q 443 465 418 465 q 476 460 461 465 q 501 444 492 454 q 531 460 515 460 q 554 451 540 460 m 378 -128 q 415 -117 390 -117 q 440 -122 433 -117 q 471 -169 471 -136 q 462 -199 471 -185 q 438 -219 453 -212 q 401 -235 422 -235 q 379 -229 393 -235 q 346 -213 357 -228 q 335 -178 335 -199 q 346 -144 335 -158 q 378 -128 357 -129 z "},"À":{"ha":935,"x_min":76,"x_max":858,"o":"m 810 150 q 834 140 810 150 q 853 75 858 131 q 858 50 858 64 q 840 14 858 28 q 799 0 822 0 q 763 13 778 0 q 749 51 749 26 q 717 76 733 54 q 701 119 701 97 q 704 136 701 125 q 680 165 690 143 q 665 210 669 186 q 663 243 661 233 q 634 284 644 251 q 626 340 624 317 q 603 336 617 336 q 551 353 575 336 q 497 335 533 335 q 450 351 464 335 q 411 336 432 336 q 385 343 394 336 q 356 336 375 336 q 322 342 339 336 q 296 357 306 347 q 289 354 294 357 q 297 307 297 328 q 265 251 297 275 q 271 225 271 240 q 250 167 271 194 q 210 136 229 139 q 215 107 215 124 q 190 38 215 69 q 129 7 165 7 q 114 8 119 7 q 86 19 96 8 q 76 49 76 31 q 83 78 76 61 q 82 94 82 83 q 110 143 82 122 q 108 156 108 147 q 119 198 108 176 q 146 226 129 219 q 144 239 144 229 q 156 294 144 263 q 181 329 167 325 q 221 453 178 390 q 231 513 221 485 q 265 554 240 542 q 278 607 267 581 q 303 651 289 633 q 299 679 299 667 q 306 710 299 699 q 324 725 314 722 q 322 742 322 731 q 344 790 322 772 l 343 799 q 360 836 343 819 q 358 851 358 842 q 371 901 358 876 q 399 935 383 926 q 451 969 424 969 q 483 961 464 969 q 542 899 524 960 q 560 863 554 883 q 564 826 565 843 q 583 804 576 818 q 588 775 589 790 q 612 736 601 763 q 622 686 622 710 q 621 671 622 675 q 638 643 631 661 q 646 610 646 625 q 644 597 646 601 q 674 558 663 585 q 691 506 686 532 q 693 471 696 481 q 708 451 696 467 q 728 419 721 435 q 735 389 735 403 q 732 371 735 376 q 744 355 738 364 q 756 339 751 346 q 760 322 760 332 q 758 308 760 313 q 778 279 769 297 q 786 244 786 261 q 781 224 786 231 q 804 192 796 213 q 810 150 813 171 m 554 451 q 567 462 557 460 q 583 460 576 464 q 581 472 581 468 q 586 489 581 483 q 566 514 574 499 q 560 544 558 529 q 542 559 550 547 q 535 585 535 571 q 538 600 535 589 q 508 654 508 618 q 513 686 508 668 q 506 692 511 688 q 501 708 500 697 q 475 753 474 717 q 457 774 464 758 q 432 724 460 742 q 426 689 433 708 q 410 660 419 669 q 411 642 411 654 q 385 557 411 610 q 374 529 378 542 q 362 501 368 515 q 346 481 356 488 q 340 456 346 467 l 351 457 q 372 450 365 457 q 389 457 376 457 q 401 453 397 457 q 443 465 418 465 q 476 460 461 465 q 501 444 492 454 q 531 460 515 460 q 554 451 540 460 m 279 1160 q 250 1222 250 1189 q 260 1253 250 1242 q 288 1265 271 1265 q 351 1225 317 1265 q 388 1201 368 1219 q 415 1164 407 1182 q 449 1148 432 1160 q 472 1122 467 1136 q 492 1079 492 1099 q 472 1047 492 1061 q 443 1036 457 1036 q 419 1043 432 1036 q 394 1058 407 1050 q 350 1069 372 1058 q 324 1101 328 1079 q 291 1123 300 1108 q 279 1160 282 1138 z "},"Ả":{"ha":935,"x_min":76,"x_max":858,"o":"m 810 150 q 834 140 810 150 q 853 75 858 131 q 858 50 858 64 q 840 14 858 28 q 799 0 822 0 q 763 13 778 0 q 749 51 749 26 q 717 76 733 54 q 701 119 701 97 q 704 136 701 125 q 680 165 690 143 q 665 210 669 186 q 663 243 661 233 q 634 284 644 251 q 626 340 624 317 q 603 336 617 336 q 551 353 575 336 q 497 335 533 335 q 450 351 464 335 q 411 336 432 336 q 385 343 394 336 q 356 336 375 336 q 322 342 339 336 q 296 357 306 347 q 289 354 294 357 q 297 307 297 328 q 265 251 297 275 q 271 225 271 240 q 250 167 271 194 q 210 136 229 139 q 215 107 215 124 q 190 38 215 69 q 129 7 165 7 q 114 8 119 7 q 86 19 96 8 q 76 49 76 31 q 83 78 76 61 q 82 94 82 83 q 110 143 82 122 q 108 156 108 147 q 119 198 108 176 q 146 226 129 219 q 144 239 144 229 q 156 294 144 263 q 181 329 167 325 q 221 453 178 390 q 231 513 221 485 q 265 554 240 542 q 278 607 267 581 q 303 651 289 633 q 299 679 299 667 q 306 710 299 699 q 324 725 314 722 q 322 742 322 731 q 344 790 322 772 l 343 799 q 360 836 343 819 q 358 851 358 842 q 371 901 358 876 q 399 935 383 926 q 451 969 424 969 q 483 961 464 969 q 542 899 524 960 q 560 863 554 883 q 564 826 565 843 q 583 804 576 818 q 588 775 589 790 q 612 736 601 763 q 622 686 622 710 q 621 671 622 675 q 638 643 631 661 q 646 610 646 625 q 644 597 646 601 q 674 558 663 585 q 691 506 686 532 q 693 471 696 481 q 708 451 696 467 q 728 419 721 435 q 735 389 735 403 q 732 371 735 376 q 744 355 738 364 q 756 339 751 346 q 760 322 760 332 q 758 308 760 313 q 778 279 769 297 q 786 244 786 261 q 781 224 786 231 q 804 192 796 213 q 810 150 813 171 m 554 451 q 567 462 557 460 q 583 460 576 464 q 581 472 581 468 q 586 489 581 483 q 566 514 574 499 q 560 544 558 529 q 542 559 550 547 q 535 585 535 571 q 538 600 535 589 q 508 654 508 618 q 513 686 508 668 q 506 692 511 688 q 501 708 500 697 q 475 753 474 717 q 457 774 464 758 q 432 724 460 742 q 426 689 433 708 q 410 660 419 669 q 411 642 411 654 q 385 557 411 610 q 374 529 378 542 q 362 501 368 515 q 346 481 356 488 q 340 456 346 467 l 351 457 q 372 450 365 457 q 389 457 376 457 q 401 453 397 457 q 443 465 418 465 q 476 460 461 465 q 501 444 492 454 q 531 460 515 460 q 554 451 540 460 m 383 1163 q 367 1167 374 1163 q 346 1201 346 1178 q 360 1237 346 1221 q 396 1251 375 1253 q 422 1258 410 1258 q 450 1247 442 1258 q 496 1223 474 1247 q 514 1168 518 1199 q 525 1149 521 1161 q 529 1124 529 1136 q 511 1088 529 1099 q 502 1049 517 1069 q 469 1031 488 1029 q 432 1010 456 1010 q 396 1022 413 1010 q 379 1051 379 1035 q 389 1074 379 1064 q 399 1097 390 1088 q 421 1110 408 1107 l 428 1118 q 415 1149 418 1128 q 390 1163 400 1153 l 383 1163 z "},"Ȃ":{"ha":935,"x_min":76,"x_max":858,"o":"m 810 150 q 834 140 810 150 q 853 75 858 131 q 858 50 858 64 q 840 14 858 28 q 799 0 822 0 q 763 13 778 0 q 749 51 749 26 q 717 76 733 54 q 701 119 701 97 q 704 136 701 125 q 680 165 690 143 q 665 210 669 186 q 663 243 661 233 q 634 284 644 251 q 626 340 624 317 q 603 336 617 336 q 551 353 575 336 q 497 335 533 335 q 450 351 464 335 q 411 336 432 336 q 385 343 394 336 q 356 336 375 336 q 322 342 339 336 q 296 357 306 347 q 289 354 294 357 q 297 307 297 328 q 265 251 297 275 q 271 225 271 240 q 250 167 271 194 q 210 136 229 139 q 215 107 215 124 q 190 38 215 69 q 129 7 165 7 q 114 8 119 7 q 86 19 96 8 q 76 49 76 31 q 83 78 76 61 q 82 94 82 83 q 110 143 82 122 q 108 156 108 147 q 119 198 108 176 q 146 226 129 219 q 144 239 144 229 q 156 294 144 263 q 181 329 167 325 q 221 453 178 390 q 231 513 221 485 q 265 554 240 542 q 278 607 267 581 q 303 651 289 633 q 299 679 299 667 q 306 710 299 699 q 324 725 314 722 q 322 742 322 731 q 344 790 322 772 l 343 799 q 360 836 343 819 q 358 851 358 842 q 371 901 358 876 q 399 935 383 926 q 451 969 424 969 q 483 961 464 969 q 542 899 524 960 q 560 863 554 883 q 564 826 565 843 q 583 804 576 818 q 588 775 589 790 q 612 736 601 763 q 622 686 622 710 q 621 671 622 675 q 638 643 631 661 q 646 610 646 625 q 644 597 646 601 q 674 558 663 585 q 691 506 686 532 q 693 471 696 481 q 708 451 696 467 q 728 419 721 435 q 735 389 735 403 q 732 371 735 376 q 744 355 738 364 q 756 339 751 346 q 760 322 760 332 q 758 308 760 313 q 778 279 769 297 q 786 244 786 261 q 781 224 786 231 q 804 192 796 213 q 810 150 813 171 m 554 451 q 567 462 557 460 q 583 460 576 464 q 581 472 581 468 q 586 489 581 483 q 566 514 574 499 q 560 544 558 529 q 542 559 550 547 q 535 585 535 571 q 538 600 535 589 q 508 654 508 618 q 513 686 508 668 q 506 692 511 688 q 501 708 500 697 q 475 753 474 717 q 457 774 464 758 q 432 724 460 742 q 426 689 433 708 q 410 660 419 669 q 411 642 411 654 q 385 557 411 610 q 374 529 378 542 q 362 501 368 515 q 346 481 356 488 q 340 456 346 467 l 351 457 q 372 450 365 457 q 389 457 376 457 q 401 453 397 457 q 443 465 418 465 q 476 460 461 465 q 501 444 492 454 q 531 460 515 460 q 554 451 540 460 m 561 1119 q 607 1087 586 1110 q 626 1033 628 1064 q 635 1006 635 1019 q 617 971 635 985 q 576 957 599 957 q 543 969 557 957 q 529 1006 529 982 q 495 1028 507 1019 q 479 1053 483 1038 q 461 1050 468 1050 q 431 1055 446 1050 q 408 1067 415 1060 q 324 1040 375 1042 q 325 1029 325 1036 q 317 1003 325 1015 q 294 983 308 990 q 277 949 293 963 q 242 936 261 936 q 204 953 221 936 q 192 993 192 968 q 198 1026 192 1010 q 215 1053 204 1043 q 229 1090 213 1068 q 274 1128 246 1111 q 329 1147 301 1144 q 361 1165 339 1157 q 404 1172 383 1172 q 436 1163 426 1172 q 467 1169 446 1169 q 507 1160 496 1169 q 539 1152 524 1164 q 561 1119 554 1140 z "},"Ā":{"ha":935,"x_min":76,"x_max":858,"o":"m 810 150 q 834 140 810 150 q 853 75 858 131 q 858 50 858 64 q 840 14 858 28 q 799 0 822 0 q 763 13 778 0 q 749 51 749 26 q 717 76 733 54 q 701 119 701 97 q 704 136 701 125 q 680 165 690 143 q 665 210 669 186 q 663 243 661 233 q 634 284 644 251 q 626 340 624 317 q 603 336 617 336 q 551 353 575 336 q 497 335 533 335 q 450 351 464 335 q 411 336 432 336 q 385 343 394 336 q 356 336 375 336 q 322 342 339 336 q 296 357 306 347 q 289 354 294 357 q 297 307 297 328 q 265 251 297 275 q 271 225 271 240 q 250 167 271 194 q 210 136 229 139 q 215 107 215 124 q 190 38 215 69 q 129 7 165 7 q 114 8 119 7 q 86 19 96 8 q 76 49 76 31 q 83 78 76 61 q 82 94 82 83 q 110 143 82 122 q 108 156 108 147 q 119 198 108 176 q 146 226 129 219 q 144 239 144 229 q 156 294 144 263 q 181 329 167 325 q 221 453 178 390 q 231 513 221 485 q 265 554 240 542 q 278 607 267 581 q 303 651 289 633 q 299 679 299 667 q 306 710 299 699 q 324 725 314 722 q 322 742 322 731 q 344 790 322 772 l 343 799 q 360 836 343 819 q 358 851 358 842 q 371 901 358 876 q 399 935 383 926 q 451 969 424 969 q 483 961 464 969 q 542 899 524 960 q 560 863 554 883 q 564 826 565 843 q 583 804 576 818 q 588 775 589 790 q 612 736 601 763 q 622 686 622 710 q 621 671 622 675 q 638 643 631 661 q 646 610 646 625 q 644 597 646 601 q 674 558 663 585 q 691 506 686 532 q 693 471 696 481 q 708 451 696 467 q 728 419 721 435 q 735 389 735 403 q 732 371 735 376 q 744 355 738 364 q 756 339 751 346 q 760 322 760 332 q 758 308 760 313 q 778 279 769 297 q 786 244 786 261 q 781 224 786 231 q 804 192 796 213 q 810 150 813 171 m 554 451 q 567 462 557 460 q 583 460 576 464 q 581 472 581 468 q 586 489 581 483 q 566 514 574 499 q 560 544 558 529 q 542 559 550 547 q 535 585 535 571 q 538 600 535 589 q 508 654 508 618 q 513 686 508 668 q 506 692 511 688 q 501 708 500 697 q 475 753 474 717 q 457 774 464 758 q 432 724 460 742 q 426 689 433 708 q 410 660 419 669 q 411 642 411 654 q 385 557 411 610 q 374 529 378 542 q 362 501 368 515 q 346 481 356 488 q 340 456 346 467 l 351 457 q 372 450 365 457 q 389 457 376 457 q 401 453 397 457 q 443 465 418 465 q 476 460 461 465 q 501 444 492 454 q 531 460 515 460 q 554 451 540 460 m 286 1022 q 273 1014 279 1015 q 250 1013 267 1013 q 202 1029 221 1013 q 183 1067 183 1046 q 199 1100 183 1086 q 244 1117 214 1114 q 282 1129 257 1129 q 326 1118 307 1129 q 385 1132 350 1132 q 458 1121 417 1132 q 525 1128 497 1128 q 579 1117 564 1128 q 631 1125 596 1125 q 682 1115 668 1125 q 700 1117 689 1117 q 736 1103 722 1117 q 750 1072 750 1090 q 735 1038 750 1053 q 694 1021 721 1022 q 647 1006 669 1006 q 617 1014 632 1006 q 583 1008 606 1008 q 535 1021 546 1008 q 499 1017 521 1017 q 450 1025 472 1017 q 417 1019 435 1019 q 374 1026 397 1019 q 328 1013 347 1013 q 286 1022 310 1013 z "},"Ą":{"ha":846,"x_min":76,"x_max":858,"o":"m 853 75 q 858 51 858 64 q 840 13 858 28 q 799 -1 822 -1 q 763 13 776 -1 q 724 -4 749 -1 q 707 -23 718 -17 q 683 -25 696 -29 q 665 -68 683 -51 q 685 -89 676 -75 q 694 -112 694 -103 q 706 -118 704 -115 q 729 -114 717 -114 q 770 -123 751 -114 q 794 -149 789 -132 q 796 -162 796 -154 q 782 -189 796 -181 q 749 -197 768 -197 q 726 -194 740 -197 q 703 -200 717 -200 q 661 -182 679 -200 q 631 -174 644 -185 q 618 -143 618 -162 q 619 -131 618 -135 q 597 -115 607 -128 q 588 -90 588 -103 l 590 -79 q 585 -54 585 -65 q 591 -24 585 -37 q 607 -4 597 -10 q 608 17 601 3 q 628 44 614 32 q 657 56 642 56 q 669 53 661 56 q 685 69 672 63 q 715 78 699 75 q 701 119 701 99 q 704 136 701 125 q 680 165 690 143 q 665 210 669 186 q 663 243 661 233 q 634 284 644 251 q 626 340 624 317 q 603 336 617 336 q 551 353 575 336 q 497 335 533 335 q 450 351 464 335 q 411 336 432 336 q 385 343 394 336 q 356 336 375 336 q 322 342 339 336 q 296 357 306 347 q 289 354 294 357 q 297 307 297 328 q 265 251 297 275 q 271 225 271 240 q 250 167 271 194 q 210 136 229 139 q 215 107 215 124 q 190 38 215 69 q 129 7 165 7 q 114 8 119 7 q 86 19 96 8 q 76 49 76 31 q 83 78 76 61 q 82 94 82 83 q 110 143 82 122 q 108 156 108 147 q 119 198 108 176 q 146 226 129 219 q 144 239 144 229 q 156 294 144 263 q 181 329 167 325 q 221 453 178 390 q 231 513 221 485 q 265 554 240 542 q 278 607 267 581 q 303 651 289 633 q 299 679 299 667 q 306 710 299 699 q 324 725 314 722 q 322 742 322 731 q 344 790 322 772 l 343 799 q 360 836 343 819 q 358 851 358 842 q 371 901 358 876 q 399 935 383 926 q 451 969 424 969 q 483 961 464 969 q 542 899 524 960 q 560 863 554 883 q 564 826 565 843 q 583 804 576 818 q 588 775 589 790 q 612 736 601 763 q 622 686 622 710 q 621 671 622 675 q 638 643 631 661 q 646 610 646 625 q 644 597 646 601 q 674 558 663 585 q 691 506 686 532 q 693 471 696 481 q 708 451 696 467 q 728 419 721 435 q 735 389 735 403 q 732 371 735 376 q 744 355 738 364 q 756 339 751 346 q 760 322 760 332 q 758 308 760 313 q 778 279 769 297 q 786 244 786 261 q 781 224 786 231 q 804 192 796 213 q 810 150 813 171 q 834 140 810 150 q 853 75 858 131 m 583 460 q 581 472 581 468 q 586 489 581 483 q 566 514 574 499 q 560 544 558 529 q 542 559 550 547 q 535 585 535 571 q 538 600 535 589 q 508 654 508 618 q 513 686 508 668 q 506 692 511 688 q 501 708 500 697 q 475 753 474 717 q 457 774 464 758 q 432 724 460 742 q 426 689 433 708 q 410 660 419 669 q 411 642 411 654 q 385 557 411 610 q 374 529 378 542 q 362 501 368 515 q 346 481 356 488 q 340 456 346 467 l 351 457 q 372 450 365 457 q 389 457 376 457 q 401 453 397 457 q 443 465 418 465 q 476 460 461 465 q 501 444 492 454 q 531 460 515 460 q 554 451 540 460 q 567 462 557 460 q 583 460 576 464 z "},"Å":{"ha":935,"x_min":76,"x_max":858,"o":"m 810 150 q 834 140 810 150 q 853 75 858 131 q 858 50 858 64 q 840 14 858 28 q 799 0 822 0 q 763 13 778 0 q 749 51 749 26 q 717 76 733 54 q 701 119 701 97 q 704 136 701 125 q 680 165 690 143 q 665 210 669 186 q 663 243 661 233 q 634 284 644 251 q 626 340 624 317 q 603 336 617 336 q 551 353 575 336 q 497 335 533 335 q 450 351 464 335 q 411 336 432 336 q 385 343 394 336 q 356 336 375 336 q 322 342 339 336 q 296 357 306 347 q 289 354 294 357 q 297 307 297 328 q 265 251 297 275 q 271 225 271 240 q 250 167 271 194 q 210 136 229 139 q 215 107 215 124 q 190 38 215 69 q 129 7 165 7 q 114 8 119 7 q 86 19 96 8 q 76 49 76 31 q 83 78 76 61 q 82 94 82 83 q 110 143 82 122 q 108 156 108 147 q 119 198 108 176 q 146 226 129 219 q 144 239 144 229 q 156 294 144 263 q 181 329 167 325 q 221 453 178 390 q 231 513 221 485 q 265 554 240 542 q 278 607 267 581 q 303 651 289 633 q 299 679 299 667 q 306 710 299 699 q 324 725 314 722 q 322 742 322 731 q 344 790 322 772 l 343 799 q 360 836 343 819 q 358 851 358 842 q 371 901 358 876 q 399 935 383 926 q 451 969 424 969 q 483 961 464 969 q 542 899 524 960 q 560 863 554 883 q 564 826 565 843 q 583 804 576 818 q 588 775 589 790 q 612 736 601 763 q 622 686 622 710 q 621 671 622 675 q 638 643 631 661 q 646 610 646 625 q 644 597 646 601 q 674 558 663 585 q 691 506 686 532 q 693 471 696 481 q 708 451 696 467 q 728 419 721 435 q 735 389 735 403 q 732 371 735 376 q 744 355 738 364 q 756 339 751 346 q 760 322 760 332 q 758 308 760 313 q 778 279 769 297 q 786 244 786 261 q 781 224 786 231 q 804 192 796 213 q 810 150 813 171 m 554 451 q 567 462 557 460 q 583 460 576 464 q 581 472 581 468 q 586 489 581 483 q 566 514 574 499 q 560 544 558 529 q 542 559 550 547 q 535 585 535 571 q 538 600 535 589 q 508 654 508 618 q 513 686 508 668 q 506 692 511 688 q 501 708 500 697 q 475 753 474 717 q 457 774 464 758 q 432 724 460 742 q 426 689 433 708 q 410 660 419 669 q 411 642 411 654 q 385 557 411 610 q 374 529 378 542 q 362 501 368 515 q 346 481 356 488 q 340 456 346 467 l 351 457 q 372 450 365 457 q 389 457 376 457 q 401 453 397 457 q 443 465 418 465 q 476 460 461 465 q 501 444 492 454 q 531 460 515 460 q 554 451 540 460 m 304 1124 q 299 1146 299 1131 q 306 1180 299 1164 q 325 1201 313 1196 q 319 1225 319 1213 q 328 1251 319 1240 q 351 1265 338 1263 q 363 1284 351 1276 q 386 1292 374 1292 q 408 1282 400 1292 q 431 1306 415 1296 q 464 1315 447 1315 q 489 1310 478 1315 q 516 1299 504 1310 q 528 1278 528 1288 q 554 1244 557 1268 q 582 1213 572 1238 q 588 1171 592 1189 q 589 1156 589 1165 q 581 1117 589 1136 q 558 1085 574 1097 q 540 1054 554 1068 q 503 1033 525 1040 q 457 1014 476 1014 q 424 1024 442 1014 q 413 1022 421 1022 q 376 1033 394 1022 q 350 1061 358 1043 q 316 1080 329 1065 q 303 1113 303 1094 q 304 1124 303 1119 m 453 1107 q 464 1122 456 1115 q 481 1129 472 1129 q 485 1141 481 1135 q 494 1150 490 1147 q 483 1179 483 1164 q 485 1192 483 1188 q 474 1205 479 1196 q 467 1217 469 1214 q 445 1202 460 1208 q 419 1193 431 1196 q 392 1142 418 1164 q 424 1114 415 1135 l 429 1114 q 453 1107 443 1114 z "},"Ǻ":{"ha":935,"x_min":76,"x_max":858,"o":"m 810 150 q 834 140 810 150 q 853 75 858 131 q 858 50 858 64 q 840 14 858 28 q 799 0 822 0 q 763 13 778 0 q 749 51 749 26 q 717 76 733 54 q 701 119 701 97 q 704 136 701 125 q 680 165 690 143 q 665 210 669 186 q 663 243 661 233 q 634 284 644 251 q 626 340 624 317 q 603 336 617 336 q 551 353 575 336 q 497 335 533 335 q 450 351 464 335 q 411 336 432 336 q 385 343 394 336 q 356 336 375 336 q 322 342 339 336 q 296 357 306 347 q 289 354 294 357 q 297 307 297 328 q 265 251 297 275 q 271 225 271 240 q 250 167 271 194 q 210 136 229 139 q 215 107 215 124 q 190 38 215 69 q 129 7 165 7 q 114 8 119 7 q 86 19 96 8 q 76 49 76 31 q 83 78 76 61 q 82 94 82 83 q 110 143 82 122 q 108 156 108 147 q 119 198 108 176 q 146 226 129 219 q 144 239 144 229 q 156 294 144 263 q 181 329 167 325 q 221 453 178 390 q 231 513 221 485 q 265 554 240 542 q 278 607 267 581 q 303 651 289 633 q 299 679 299 667 q 306 710 299 699 q 324 725 314 722 q 322 742 322 731 q 344 790 322 772 l 343 799 q 360 836 343 819 q 358 851 358 842 q 371 901 358 876 q 399 935 383 926 q 451 969 424 969 q 483 961 464 969 q 542 899 524 960 q 560 863 554 883 q 564 826 565 843 q 583 804 576 818 q 588 775 589 790 q 612 736 601 763 q 622 686 622 710 q 621 671 622 675 q 638 643 631 661 q 646 610 646 625 q 644 597 646 601 q 674 558 663 585 q 691 506 686 532 q 693 471 696 481 q 708 451 696 467 q 728 419 721 435 q 735 389 735 403 q 732 371 735 376 q 744 355 738 364 q 756 339 751 346 q 760 322 760 332 q 758 308 760 313 q 778 279 769 297 q 786 244 786 261 q 781 224 786 231 q 804 192 796 213 q 810 150 813 171 m 554 451 q 567 462 557 460 q 583 460 576 464 q 581 472 581 468 q 586 489 581 483 q 566 514 574 499 q 560 544 558 529 q 542 559 550 547 q 535 585 535 571 q 538 600 535 589 q 508 654 508 618 q 513 686 508 668 q 506 692 511 688 q 501 708 500 697 q 475 753 474 717 q 457 774 464 758 q 432 724 460 742 q 426 689 433 708 q 410 660 419 669 q 411 642 411 654 q 385 557 411 610 q 374 529 378 542 q 362 501 368 515 q 346 481 356 488 q 340 456 346 467 l 351 457 q 372 450 365 457 q 389 457 376 457 q 401 453 397 457 q 443 465 418 465 q 476 460 461 465 q 501 444 492 454 q 531 460 515 460 q 554 451 540 460 m 308 1114 q 303 1136 303 1121 q 310 1170 303 1154 q 329 1192 317 1186 q 324 1215 324 1203 q 333 1242 324 1231 q 356 1256 342 1253 q 367 1274 356 1267 q 390 1282 378 1282 q 413 1272 404 1282 q 435 1296 419 1286 q 468 1306 451 1306 q 493 1300 482 1306 q 520 1289 508 1300 q 532 1268 532 1278 q 558 1235 561 1258 q 586 1203 576 1228 q 592 1161 596 1179 q 593 1146 593 1156 q 585 1107 593 1126 q 563 1075 578 1088 q 544 1044 558 1058 q 507 1024 529 1031 q 461 1004 481 1004 q 428 1014 446 1004 q 417 1013 425 1013 q 381 1023 399 1013 q 354 1051 363 1033 q 320 1070 333 1056 q 307 1103 307 1085 q 308 1114 307 1110 m 457 1097 q 468 1113 460 1106 q 485 1119 476 1119 q 490 1131 485 1125 q 499 1140 494 1138 q 488 1169 488 1154 q 489 1182 488 1178 q 478 1195 483 1186 q 471 1207 474 1204 q 449 1192 464 1199 q 424 1183 435 1186 q 396 1132 422 1154 q 428 1104 419 1125 l 433 1104 q 457 1097 447 1104 m 475 1418 q 454 1376 472 1399 q 419 1353 436 1354 q 383 1336 401 1336 q 351 1350 365 1336 q 338 1383 338 1364 q 368 1431 338 1411 q 381 1453 369 1439 q 391 1489 381 1474 q 426 1506 401 1504 q 435 1536 425 1522 q 463 1554 446 1550 q 478 1576 467 1567 q 504 1585 490 1585 q 531 1593 517 1593 q 565 1576 550 1593 q 579 1540 579 1560 q 550 1504 579 1514 q 528 1476 549 1486 q 510 1440 526 1458 q 475 1418 493 1421 z "},"Ã":{"ha":935,"x_min":76,"x_max":858,"o":"m 810 150 q 834 140 810 150 q 853 75 858 131 q 858 50 858 64 q 840 14 858 28 q 799 0 822 0 q 763 13 778 0 q 749 51 749 26 q 717 76 733 54 q 701 119 701 97 q 704 136 701 125 q 680 165 690 143 q 665 210 669 186 q 663 243 661 233 q 634 284 644 251 q 626 340 624 317 q 603 336 617 336 q 551 353 575 336 q 497 335 533 335 q 450 351 464 335 q 411 336 432 336 q 385 343 394 336 q 356 336 375 336 q 322 342 339 336 q 296 357 306 347 q 289 354 294 357 q 297 307 297 328 q 265 251 297 275 q 271 225 271 240 q 250 167 271 194 q 210 136 229 139 q 215 107 215 124 q 190 38 215 69 q 129 7 165 7 q 114 8 119 7 q 86 19 96 8 q 76 49 76 31 q 83 78 76 61 q 82 94 82 83 q 110 143 82 122 q 108 156 108 147 q 119 198 108 176 q 146 226 129 219 q 144 239 144 229 q 156 294 144 263 q 181 329 167 325 q 221 453 178 390 q 231 513 221 485 q 265 554 240 542 q 278 607 267 581 q 303 651 289 633 q 299 679 299 667 q 306 710 299 699 q 324 725 314 722 q 322 742 322 731 q 344 790 322 772 l 343 799 q 360 836 343 819 q 358 851 358 842 q 371 901 358 876 q 399 935 383 926 q 451 969 424 969 q 483 961 464 969 q 542 899 524 960 q 560 863 554 883 q 564 826 565 843 q 583 804 576 818 q 588 775 589 790 q 612 736 601 763 q 622 686 622 710 q 621 671 622 675 q 638 643 631 661 q 646 610 646 625 q 644 597 646 601 q 674 558 663 585 q 691 506 686 532 q 693 471 696 481 q 708 451 696 467 q 728 419 721 435 q 735 389 735 403 q 732 371 735 376 q 744 355 738 364 q 756 339 751 346 q 760 322 760 332 q 758 308 760 313 q 778 279 769 297 q 786 244 786 261 q 781 224 786 231 q 804 192 796 213 q 810 150 813 171 m 554 451 q 567 462 557 460 q 583 460 576 464 q 581 472 581 468 q 586 489 581 483 q 566 514 574 499 q 560 544 558 529 q 542 559 550 547 q 535 585 535 571 q 538 600 535 589 q 508 654 508 618 q 513 686 508 668 q 506 692 511 688 q 501 708 500 697 q 475 753 474 717 q 457 774 464 758 q 432 724 460 742 q 426 689 433 708 q 410 660 419 669 q 411 642 411 654 q 385 557 411 610 q 374 529 378 542 q 362 501 368 515 q 346 481 356 488 q 340 456 346 467 l 351 457 q 372 450 365 457 q 389 457 376 457 q 401 453 397 457 q 443 465 418 465 q 476 460 461 465 q 501 444 492 454 q 531 460 515 460 q 554 451 540 460 m 593 1158 q 590 1174 590 1169 q 604 1207 590 1193 q 640 1221 618 1221 q 689 1172 686 1221 q 697 1144 697 1158 q 672 1107 697 1118 q 665 1092 671 1099 q 657 1085 658 1086 q 638 1069 653 1075 q 610 1065 624 1063 q 585 1042 600 1050 q 554 1035 569 1035 q 525 1044 533 1035 q 513 1043 521 1043 q 481 1057 493 1043 q 453 1059 469 1054 q 429 1075 436 1064 q 413 1072 418 1072 q 388 1079 399 1072 q 372 1099 378 1086 q 360 1097 368 1097 q 348 1078 358 1089 q 326 1065 338 1068 q 268 1024 307 1031 q 236 1013 253 1013 q 205 1026 218 1013 q 192 1057 192 1040 q 204 1088 192 1074 q 242 1107 217 1101 q 240 1122 240 1113 q 268 1173 240 1154 q 325 1192 296 1192 q 338 1190 333 1192 q 371 1200 349 1200 q 420 1188 396 1200 q 450 1157 444 1176 q 465 1160 464 1160 q 485 1154 474 1160 l 492 1154 q 521 1143 510 1154 q 539 1146 535 1146 q 563 1138 553 1146 q 593 1158 572 1154 z "},"Æ":{"ha":1211,"x_min":47,"x_max":1135,"o":"m 1101 911 q 1126 899 1117 911 q 1135 871 1135 888 q 1122 831 1135 849 q 1086 814 1108 814 q 1049 825 1067 814 q 1021 814 1039 814 q 982 826 999 814 q 942 819 964 819 q 883 832 904 819 q 843 822 864 822 q 810 828 825 822 q 778 822 797 822 q 735 833 753 822 q 693 817 710 818 q 701 768 701 792 q 688 718 701 736 q 703 661 703 690 q 690 614 703 639 q 703 579 703 600 q 694 549 703 561 q 722 556 706 556 q 742 553 736 556 q 772 563 753 563 q 808 549 793 563 q 836 553 825 553 q 857 551 850 553 q 876 554 871 554 q 911 542 897 554 q 935 549 919 549 q 954 542 950 549 q 975 547 965 547 q 997 542 985 547 q 1029 550 1014 550 q 1069 533 1053 550 q 1085 497 1085 517 q 1073 469 1085 481 q 1036 456 1061 457 q 996 440 1022 440 q 953 453 971 440 q 913 440 939 440 q 876 450 890 440 q 857 443 872 443 q 842 447 849 443 q 803 436 826 436 q 768 442 781 436 q 744 436 754 436 q 718 444 731 436 q 690 439 703 436 q 701 400 701 411 q 694 375 701 392 q 703 346 703 361 q 697 324 703 333 q 704 296 704 310 q 696 268 704 281 q 704 244 704 251 q 693 218 704 238 q 699 204 699 211 q 692 188 699 194 q 703 158 703 178 q 700 135 703 151 l 706 135 q 740 122 726 135 q 788 133 756 133 q 835 126 818 133 q 881 138 857 138 q 921 122 907 138 q 975 139 938 139 q 1013 129 999 139 q 1032 133 1024 133 q 1069 116 1054 133 q 1083 76 1083 99 q 1050 31 1083 42 q 1032 17 1044 22 q 1006 13 1019 13 q 964 26 978 13 q 925 19 954 19 q 888 22 906 19 q 865 31 871 25 q 832 17 860 17 q 790 26 807 17 q 739 10 763 10 q 703 21 718 10 q 661 -3 688 -3 q 620 15 638 -3 q 608 60 603 33 q 593 113 593 76 q 594 132 593 126 q 576 189 576 150 q 590 244 576 228 q 583 272 583 258 q 586 289 583 278 q 575 321 575 304 q 544 329 554 324 q 483 318 522 318 q 440 328 454 318 q 417 322 429 322 q 383 338 399 322 q 349 325 371 325 q 332 328 343 325 q 300 303 321 310 q 288 272 294 285 q 268 251 281 260 q 260 211 269 226 q 228 185 250 196 q 224 149 232 169 q 196 118 215 129 q 184 83 196 100 q 156 58 172 65 q 142 18 157 32 q 104 4 126 4 q 67 17 83 4 q 51 53 51 31 q 53 67 51 61 q 61 113 47 85 q 90 142 75 142 q 97 174 88 158 q 121 196 106 189 q 137 240 122 215 q 167 275 151 264 q 175 310 165 296 q 199 326 185 325 q 203 348 197 336 q 219 368 208 360 q 238 424 214 393 q 288 458 263 454 q 307 531 288 496 q 357 579 326 565 q 385 619 361 608 q 394 665 388 647 q 421 690 401 682 q 437 727 424 707 q 464 753 450 747 q 489 789 468 776 q 512 840 489 817 q 557 865 535 864 q 554 879 554 874 q 568 922 554 901 q 608 943 582 942 l 614 943 q 635 939 624 943 q 658 942 649 942 q 694 931 682 942 q 739 936 713 936 q 792 921 771 936 q 819 926 804 926 q 842 919 833 926 q 882 928 853 928 q 942 915 918 928 q 976 928 957 928 q 1007 922 994 928 q 1039 931 1019 931 q 1101 911 1074 931 m 476 425 q 529 435 497 435 q 556 433 540 435 q 578 431 571 431 q 593 500 574 471 q 579 541 585 515 q 574 592 574 567 q 592 647 574 633 q 583 683 589 658 q 579 726 578 707 l 569 718 q 558 679 572 696 q 522 660 544 663 q 515 626 525 642 q 489 604 506 611 q 485 581 488 596 q 478 558 483 567 q 460 542 472 549 q 447 504 458 515 q 411 489 436 493 q 390 440 415 465 l 397 440 q 426 432 414 440 q 446 435 438 435 q 476 425 465 435 z "},"Ǽ":{"ha":1158,"x_min":51,"x_max":1135,"o":"m 1101 911 q 1126 899 1117 911 q 1135 871 1135 888 q 1122 831 1135 849 q 1086 814 1108 814 q 1049 825 1067 814 q 1021 814 1039 814 q 982 826 999 814 q 942 819 964 819 q 883 832 904 819 q 843 822 864 822 q 810 828 825 822 q 778 822 797 822 q 735 833 753 822 q 693 817 710 818 q 701 768 701 792 q 688 718 701 736 q 703 661 703 690 q 690 614 703 639 q 703 579 703 600 q 694 549 703 561 q 722 556 706 556 q 742 553 736 556 q 772 563 753 563 q 808 549 793 563 q 836 553 825 553 q 857 551 850 553 q 876 554 871 554 q 911 542 897 554 q 935 549 919 549 q 954 542 950 549 q 975 547 965 547 q 997 542 985 547 q 1029 550 1014 550 q 1069 533 1053 550 q 1085 497 1085 517 q 1073 469 1085 481 q 1036 456 1061 457 q 996 440 1022 440 q 953 453 971 440 q 913 440 939 440 q 876 450 890 440 q 857 443 872 443 q 842 447 849 443 q 803 436 826 436 q 768 442 781 436 q 744 436 754 436 q 718 444 731 436 q 690 439 703 436 q 701 400 701 411 q 694 375 701 392 q 703 346 703 361 q 697 324 703 333 q 704 296 704 310 q 696 268 704 281 q 704 244 704 251 q 693 218 704 238 q 699 204 699 211 q 692 188 699 194 q 703 158 703 178 q 700 135 703 151 l 706 135 q 740 122 726 135 q 788 133 756 133 q 835 126 818 133 q 881 138 857 138 q 921 122 907 138 q 975 139 938 139 q 1013 129 999 139 q 1032 133 1024 133 q 1069 116 1054 133 q 1083 76 1083 99 q 1050 31 1083 42 q 1032 17 1044 22 q 1006 13 1019 13 q 964 26 978 13 q 925 19 954 19 q 888 22 906 19 q 865 31 871 25 q 832 17 860 17 q 790 26 807 17 q 739 10 763 10 q 703 21 718 10 q 661 -3 688 -3 q 620 15 638 -3 q 608 60 603 33 q 593 113 593 76 q 594 132 593 126 q 576 189 576 150 q 590 244 576 228 q 583 272 583 258 q 586 289 583 278 q 575 321 575 304 q 544 329 554 324 q 483 318 522 318 q 440 328 454 318 q 417 322 429 322 q 383 338 399 322 q 349 325 371 325 q 332 328 343 325 q 300 303 321 310 q 288 272 294 285 q 268 251 281 260 q 260 211 269 226 q 228 185 250 196 q 224 149 232 169 q 196 118 215 129 q 184 83 196 100 q 156 58 172 65 q 142 18 157 32 q 104 4 126 4 q 67 17 83 4 q 51 53 51 31 q 53 67 51 61 q 61 113 47 85 q 90 142 75 142 q 97 174 88 158 q 121 196 106 189 q 137 240 122 215 q 167 275 151 264 q 175 310 165 296 q 199 326 185 325 q 203 348 197 336 q 219 368 208 360 q 238 424 214 393 q 288 458 263 454 q 307 531 288 496 q 357 579 326 565 q 385 619 361 608 q 394 665 388 647 q 421 690 401 682 q 437 727 424 707 q 464 753 450 747 q 489 789 468 776 q 512 840 489 817 q 557 865 535 864 q 554 879 554 874 q 568 922 554 901 q 608 943 582 942 l 614 943 q 635 939 624 943 q 658 942 649 942 q 694 931 682 942 q 739 936 713 936 q 792 921 771 936 q 819 926 804 926 q 842 919 833 926 q 882 928 853 928 q 942 915 918 928 q 976 928 957 928 q 1007 922 994 928 q 1039 931 1019 931 q 1101 911 1074 931 m 476 425 q 529 435 497 435 q 556 433 540 435 q 578 431 571 431 q 593 500 574 471 q 579 541 585 515 q 574 592 574 567 q 592 647 574 633 q 583 683 589 658 q 579 726 578 707 l 569 718 q 558 679 572 696 q 522 660 544 663 q 515 626 525 642 q 489 604 506 611 q 485 581 488 596 q 478 558 483 567 q 460 542 472 549 q 447 504 458 515 q 411 489 436 493 q 390 440 415 465 l 397 440 q 426 432 414 440 q 446 435 438 435 q 476 425 465 435 m 811 1089 q 790 1047 808 1069 q 756 1024 772 1025 q 719 1007 738 1007 q 688 1021 701 1007 q 674 1054 674 1035 q 704 1101 674 1082 q 717 1124 706 1110 q 727 1160 717 1144 q 763 1176 738 1175 q 772 1207 761 1193 q 799 1225 782 1221 q 815 1247 803 1238 q 840 1256 826 1256 q 867 1264 853 1264 q 901 1247 886 1264 q 915 1211 915 1231 q 886 1175 915 1185 q 864 1147 885 1157 q 846 1110 863 1129 q 811 1089 829 1092 z "},"B":{"ha":786,"x_min":92,"x_max":721,"o":"m 707 306 q 715 268 715 296 q 697 206 715 225 q 699 196 699 201 q 676 172 699 178 q 679 160 679 164 q 656 116 679 139 q 615 94 633 93 q 592 60 606 71 q 556 50 578 50 q 539 51 546 50 q 508 24 536 38 q 451 11 481 11 q 426 14 435 11 q 400 7 417 7 q 375 13 386 7 q 336 3 360 3 q 299 15 311 3 q 257 3 282 3 q 201 22 225 3 q 182 71 178 42 q 135 158 135 86 q 136 189 135 179 q 125 257 125 219 q 136 311 125 292 q 124 356 129 326 q 118 413 118 385 q 135 474 118 458 q 119 514 119 489 q 124 535 119 525 q 113 565 113 549 q 125 599 113 586 q 121 621 121 610 q 125 640 121 631 q 113 686 113 653 q 119 742 113 711 q 99 803 99 758 q 103 844 99 824 q 117 878 108 864 q 99 908 106 889 q 92 946 92 926 q 100 981 92 967 q 146 1003 118 1003 q 178 993 164 1003 q 199 967 193 983 q 251 981 229 981 q 292 969 272 981 q 318 981 300 975 q 353 986 336 986 q 383 976 372 986 q 411 983 396 983 q 458 964 432 983 q 511 956 485 967 q 553 924 538 946 q 586 935 568 935 q 615 927 601 935 q 638 904 629 919 q 663 876 651 897 q 674 838 674 854 q 693 820 685 839 q 701 781 701 801 q 692 749 701 758 q 696 731 696 739 q 689 715 696 721 q 699 683 699 701 q 693 656 699 669 q 679 635 688 643 q 681 626 681 632 q 665 594 681 613 q 647 564 657 575 q 619 547 638 553 q 572 538 608 536 q 598 531 590 536 q 608 520 606 525 q 611 514 610 515 q 651 501 635 514 q 671 463 667 488 q 697 437 688 453 q 703 406 707 421 q 721 353 721 389 q 707 306 721 322 m 236 622 q 243 594 243 613 q 236 567 243 578 q 243 538 243 554 q 286 561 263 561 q 311 553 299 561 q 344 567 321 567 q 394 556 368 567 q 444 577 411 569 q 493 582 476 585 q 535 618 507 600 q 576 639 563 636 q 565 681 565 657 q 578 732 565 714 q 558 777 565 749 q 553 824 550 806 q 538 821 544 821 q 510 828 524 821 q 490 847 497 835 q 463 844 482 844 q 415 856 429 844 q 361 836 401 836 q 288 856 319 836 q 244 842 274 842 q 210 847 229 842 q 227 813 221 839 q 233 758 233 786 q 229 718 233 731 q 243 661 243 703 q 236 622 243 639 m 567 207 q 596 247 571 236 q 586 272 586 258 q 588 289 586 279 q 592 307 590 299 q 574 338 583 311 q 565 388 565 365 q 567 403 565 399 q 535 416 550 403 q 513 446 521 429 q 454 432 475 432 q 415 439 439 432 q 369 424 393 424 q 339 429 354 424 q 271 411 303 411 q 239 415 256 411 q 250 353 250 400 q 239 264 250 300 q 253 217 253 249 q 247 174 253 199 q 274 160 263 172 q 289 132 286 147 q 303 135 297 135 q 323 131 314 135 q 335 121 332 126 q 371 135 349 135 q 396 128 382 135 q 425 138 410 138 q 447 133 438 138 q 469 153 454 146 q 501 160 485 160 q 522 156 514 160 q 567 207 526 194 z "},"C":{"ha":857,"x_min":68,"x_max":801,"o":"m 688 363 q 710 388 693 378 q 744 399 726 399 q 761 396 750 399 q 801 349 801 385 q 774 283 801 317 q 776 264 776 272 q 769 228 776 246 q 747 194 761 210 q 735 156 743 172 q 713 119 728 140 q 680 88 696 97 q 636 71 664 79 q 614 35 629 51 q 576 19 599 19 q 553 24 565 19 q 526 6 543 13 q 490 0 508 0 q 453 10 467 0 q 410 3 436 3 q 343 14 375 3 q 293 49 311 25 q 238 64 260 46 q 213 89 218 75 q 163 181 161 114 q 125 219 138 197 q 106 274 113 240 q 94 303 94 285 q 96 317 94 311 q 83 350 83 329 q 88 369 83 360 q 68 429 68 390 q 83 483 68 464 q 74 514 74 497 q 81 540 74 526 q 74 574 74 549 q 82 630 74 601 q 103 668 90 658 q 99 692 99 676 q 106 733 99 714 q 128 754 114 753 q 151 800 128 783 q 166 843 150 819 q 203 875 182 867 q 228 926 207 906 q 274 950 249 947 q 299 972 281 963 q 336 981 318 981 q 360 975 350 981 q 407 994 381 994 q 436 983 429 994 q 456 986 447 986 q 493 968 481 986 q 510 972 499 972 q 553 962 529 972 q 582 942 578 951 q 635 913 611 936 q 654 867 658 890 q 682 840 674 857 q 688 807 690 822 q 704 783 700 797 q 710 765 708 768 q 738 706 738 742 q 735 688 738 699 q 736 674 736 682 q 719 634 736 650 q 679 618 701 618 q 640 635 657 618 q 597 718 601 676 q 571 740 581 724 q 563 775 561 756 q 544 797 550 783 q 539 824 538 810 q 500 839 514 824 q 485 838 496 838 q 451 842 469 838 q 424 854 433 847 q 407 853 418 853 q 386 856 392 853 q 351 844 368 844 q 332 847 346 844 q 303 833 317 835 q 291 793 300 811 q 268 772 282 775 q 263 740 271 756 q 239 714 254 724 q 232 692 238 703 q 218 676 226 682 q 221 660 219 669 q 222 639 222 651 q 197 593 222 610 q 190 564 197 575 q 197 536 197 550 q 192 511 197 522 q 200 485 200 497 q 193 456 200 472 q 185 422 186 438 q 204 403 197 415 q 211 376 211 390 q 203 349 211 361 q 219 329 214 343 q 225 300 225 315 q 219 275 225 285 q 262 241 250 258 q 279 186 274 224 q 302 172 289 182 q 319 156 315 163 q 369 145 343 157 q 404 114 394 133 q 431 126 413 121 q 468 131 450 131 q 494 125 488 131 q 542 149 514 149 q 554 147 550 149 q 589 173 576 165 q 618 185 601 181 q 635 225 619 206 q 643 252 636 236 q 657 276 650 268 q 656 290 656 281 q 665 330 656 308 q 688 363 675 351 z "},"Ć":{"ha":871,"x_min":68,"x_max":801,"o":"m 688 363 q 710 388 693 378 q 744 399 726 399 q 761 396 750 399 q 801 349 801 385 q 774 283 801 317 q 776 264 776 272 q 769 228 776 246 q 747 194 761 210 q 735 156 743 172 q 713 119 728 140 q 680 88 696 97 q 636 71 664 79 q 614 35 629 51 q 576 19 599 19 q 553 24 565 19 q 526 6 543 13 q 490 0 508 0 q 453 10 467 0 q 410 3 436 3 q 343 14 375 3 q 293 49 311 25 q 238 64 260 46 q 213 89 218 75 q 163 181 161 114 q 125 219 138 197 q 106 274 113 240 q 94 303 94 285 q 96 317 94 311 q 83 350 83 329 q 88 369 83 360 q 68 429 68 390 q 83 483 68 464 q 74 514 74 497 q 81 540 74 526 q 74 574 74 549 q 82 630 74 601 q 103 668 90 658 q 99 692 99 676 q 106 733 99 714 q 128 754 114 753 q 151 800 128 783 q 166 843 150 819 q 203 875 182 867 q 228 926 207 906 q 274 950 249 947 q 299 972 281 963 q 336 981 318 981 q 360 975 350 981 q 407 994 381 994 q 436 983 429 994 q 456 986 447 986 q 493 968 481 986 q 510 972 499 972 q 553 962 529 972 q 582 942 578 951 q 635 913 611 936 q 654 867 658 890 q 682 840 674 857 q 688 807 690 822 q 704 783 700 797 q 710 765 708 768 q 738 706 738 742 q 735 688 738 699 q 736 674 736 682 q 719 634 736 650 q 679 618 701 618 q 640 635 657 618 q 597 718 601 676 q 571 740 581 724 q 563 775 561 756 q 544 797 550 783 q 539 824 538 810 q 500 839 514 824 q 485 838 496 838 q 451 842 469 838 q 424 854 433 847 q 407 853 418 853 q 386 856 392 853 q 351 844 368 844 q 332 847 346 844 q 303 833 317 835 q 291 793 300 811 q 268 772 282 775 q 263 740 271 756 q 239 714 254 724 q 232 692 238 703 q 218 676 226 682 q 221 660 219 669 q 222 639 222 651 q 197 593 222 610 q 190 564 197 575 q 197 536 197 550 q 192 511 197 522 q 200 485 200 497 q 193 456 200 472 q 185 422 186 438 q 204 403 197 415 q 211 376 211 390 q 203 349 211 361 q 219 329 214 343 q 225 300 225 315 q 219 275 225 285 q 262 241 250 258 q 279 186 274 224 q 302 172 289 182 q 319 156 315 163 q 369 145 343 157 q 404 114 394 133 q 431 126 413 121 q 468 131 450 131 q 494 125 488 131 q 542 149 514 149 q 554 147 550 149 q 589 173 576 165 q 618 185 601 181 q 635 225 619 206 q 643 252 636 236 q 657 276 650 268 q 656 290 656 281 q 665 330 656 308 q 688 363 675 351 m 458 1129 q 438 1088 456 1110 q 403 1064 419 1065 q 367 1047 385 1047 q 335 1061 349 1047 q 321 1094 321 1075 q 351 1142 321 1122 q 364 1164 353 1150 q 374 1200 364 1185 q 410 1217 385 1215 q 419 1247 408 1233 q 446 1265 429 1261 q 462 1287 450 1278 q 488 1296 474 1296 q 514 1304 500 1304 q 548 1288 533 1304 q 563 1251 563 1271 q 533 1215 563 1225 q 511 1188 532 1197 q 493 1151 510 1169 q 458 1129 476 1132 z "},"Č":{"ha":868,"x_min":68,"x_max":801,"o":"m 688 363 q 710 388 693 378 q 744 399 726 399 q 761 396 750 399 q 801 349 801 385 q 774 283 801 317 q 776 264 776 272 q 769 228 776 246 q 747 194 761 210 q 735 156 743 172 q 713 119 728 140 q 680 88 696 97 q 636 71 664 79 q 614 35 629 51 q 576 19 599 19 q 553 24 565 19 q 526 6 543 13 q 490 0 508 0 q 453 10 467 0 q 410 3 436 3 q 343 14 375 3 q 293 49 311 25 q 238 64 260 46 q 213 89 218 75 q 163 181 161 114 q 125 219 138 197 q 106 274 113 240 q 94 303 94 285 q 96 317 94 311 q 83 350 83 329 q 88 369 83 360 q 68 429 68 390 q 83 483 68 464 q 74 514 74 497 q 81 540 74 526 q 74 574 74 549 q 82 630 74 601 q 103 668 90 658 q 99 692 99 676 q 106 733 99 714 q 128 754 114 753 q 151 800 128 783 q 166 843 150 819 q 203 875 182 867 q 228 926 207 906 q 274 950 249 947 q 299 972 281 963 q 336 981 318 981 q 360 975 350 981 q 407 994 381 994 q 436 983 429 994 q 456 986 447 986 q 493 968 481 986 q 510 972 499 972 q 553 962 529 972 q 582 942 578 951 q 635 913 611 936 q 654 867 658 890 q 682 840 674 857 q 688 807 690 822 q 704 783 700 797 q 710 765 708 768 q 738 706 738 742 q 735 688 738 699 q 736 674 736 682 q 719 634 736 650 q 679 618 701 618 q 640 635 657 618 q 597 718 601 676 q 571 740 581 724 q 563 775 561 756 q 544 797 550 783 q 539 824 538 810 q 500 839 514 824 q 485 838 496 838 q 451 842 469 838 q 424 854 433 847 q 407 853 418 853 q 386 856 392 853 q 351 844 368 844 q 332 847 346 844 q 303 833 317 835 q 291 793 300 811 q 268 772 282 775 q 263 740 271 756 q 239 714 254 724 q 232 692 238 703 q 218 676 226 682 q 221 660 219 669 q 222 639 222 651 q 197 593 222 610 q 190 564 197 575 q 197 536 197 550 q 192 511 197 522 q 200 485 200 497 q 193 456 200 472 q 185 422 186 438 q 204 403 197 415 q 211 376 211 390 q 203 349 211 361 q 219 329 214 343 q 225 300 225 315 q 219 275 225 285 q 262 241 250 258 q 279 186 274 224 q 302 172 289 182 q 319 156 315 163 q 369 145 343 157 q 404 114 394 133 q 431 126 413 121 q 468 131 450 131 q 494 125 488 131 q 542 149 514 149 q 554 147 550 149 q 589 173 576 165 q 618 185 601 181 q 635 225 619 206 q 643 252 636 236 q 657 276 650 268 q 656 290 656 281 q 665 330 656 308 q 688 363 675 351 m 288 1128 q 258 1150 274 1132 q 240 1176 242 1168 q 232 1211 229 1192 q 226 1231 226 1218 q 238 1260 226 1246 q 268 1275 250 1274 q 303 1264 294 1276 q 318 1222 313 1251 q 329 1210 328 1218 q 360 1197 347 1210 q 375 1167 374 1185 q 394 1153 383 1163 q 407 1135 404 1143 q 431 1161 413 1150 q 440 1188 431 1176 q 464 1203 450 1200 q 470 1238 460 1221 q 500 1260 481 1254 q 539 1288 511 1288 q 574 1274 558 1288 q 589 1243 589 1261 q 581 1218 589 1231 q 557 1182 578 1193 q 543 1150 556 1168 q 517 1126 531 1132 q 460 1063 514 1089 q 445 1035 457 1047 q 417 1022 433 1022 q 397 1026 408 1022 q 347 1044 372 1022 q 325 1092 322 1067 q 302 1102 313 1093 q 288 1128 292 1111 z "},"Ç":{"ha":871,"x_min":68,"x_max":801,"o":"m 761 396 q 801 349 801 385 q 774 283 801 317 q 776 264 776 272 q 769 228 776 246 q 747 194 761 210 q 735 156 743 172 q 713 119 728 140 q 680 88 696 97 q 636 71 664 79 q 614 35 629 51 q 576 19 599 19 q 553 24 565 19 l 550 21 q 576 -10 567 8 q 582 -50 585 -29 q 594 -76 589 -60 q 600 -108 600 -92 q 579 -153 600 -142 q 569 -189 586 -172 q 533 -204 553 -206 q 497 -225 519 -225 q 463 -211 478 -225 q 447 -179 447 -197 q 458 -150 447 -162 q 470 -123 460 -135 q 494 -110 481 -111 l 501 -100 q 488 -65 492 -89 q 461 -50 469 -62 l 450 -51 q 433 -46 440 -51 q 413 -26 418 -39 q 410 3 407 -12 q 343 14 375 3 q 293 49 311 25 q 238 64 260 46 q 213 89 218 75 q 163 181 161 114 q 125 219 138 197 q 106 274 113 240 q 94 303 94 285 q 96 317 94 311 q 83 350 83 329 q 88 369 83 360 q 68 429 68 390 q 83 483 68 464 q 74 514 74 497 q 81 540 74 526 q 74 574 74 549 q 82 630 74 601 q 103 668 90 658 q 99 692 99 676 q 106 733 99 714 q 128 754 114 753 q 151 800 128 783 q 166 843 150 819 q 203 875 182 867 q 228 926 207 906 q 274 950 249 947 q 299 972 281 963 q 336 981 318 981 q 360 975 350 981 q 407 994 381 994 q 436 983 429 994 q 456 986 447 986 q 493 968 481 986 q 510 972 499 972 q 553 962 529 972 q 582 942 578 951 q 635 913 611 936 q 654 867 658 890 q 682 840 674 857 q 688 807 690 822 q 704 783 700 797 q 710 765 708 768 q 738 706 738 742 q 735 688 738 699 q 736 674 736 682 q 719 634 736 650 q 679 618 701 618 q 640 635 657 618 q 597 718 601 676 q 571 740 581 724 q 563 775 561 756 q 544 797 550 783 q 539 824 538 810 q 500 839 514 824 q 485 838 496 838 q 451 842 469 838 q 424 854 433 847 q 407 853 418 853 q 386 856 392 853 q 351 844 368 844 q 332 847 346 844 q 303 833 317 835 q 291 793 300 811 q 268 772 282 775 q 263 740 271 756 q 239 714 254 724 q 232 692 238 703 q 218 676 226 682 q 221 660 219 669 q 222 639 222 651 q 197 593 222 610 q 190 564 197 575 q 197 536 197 550 q 192 511 197 522 q 200 485 200 497 q 193 456 200 472 q 185 422 186 438 q 204 403 197 415 q 211 376 211 390 q 203 349 211 361 q 219 329 214 343 q 225 300 225 315 q 219 275 225 285 q 262 241 250 258 q 279 186 274 224 q 302 172 289 182 q 319 156 315 163 q 369 145 343 157 q 404 114 394 133 q 431 126 413 121 q 468 131 450 131 q 494 125 488 131 q 542 149 514 149 q 554 147 550 149 q 589 173 576 165 q 618 185 601 181 q 635 225 619 206 q 643 252 636 236 q 657 276 650 268 q 656 290 656 281 q 665 330 656 308 q 688 363 675 351 q 710 388 693 378 q 744 399 726 399 q 761 396 750 399 z "},"Ḉ":{"ha":833,"x_min":68,"x_max":801,"o":"m 493 1136 q 469 1110 485 1119 q 440 1101 454 1101 q 414 1113 424 1101 q 407 1144 404 1124 q 404 1160 404 1156 q 413 1185 404 1172 q 433 1204 421 1197 q 474 1249 438 1228 q 468 1275 468 1261 q 487 1315 468 1299 q 526 1331 506 1331 q 552 1321 542 1331 q 563 1293 563 1311 l 561 1282 q 569 1246 569 1265 q 554 1207 569 1221 q 493 1136 547 1156 m 761 396 q 801 349 801 385 q 774 283 801 317 q 776 264 776 272 q 769 228 776 246 q 747 194 761 210 q 735 156 743 172 q 713 119 728 140 q 680 88 696 97 q 636 71 664 79 q 614 35 629 51 q 576 19 599 19 q 553 24 565 19 q 497 0 533 3 q 531 -33 518 -11 q 540 -79 544 -54 q 553 -105 547 -89 q 558 -137 558 -121 q 538 -182 558 -171 q 528 -218 544 -201 q 492 -233 511 -235 q 456 -254 478 -254 q 421 -240 436 -254 q 406 -208 406 -226 q 417 -179 406 -192 q 428 -152 418 -164 q 453 -139 439 -140 l 460 -129 q 446 -94 450 -118 q 419 -79 428 -92 l 408 -81 q 392 -75 399 -81 q 367 -35 367 -62 q 386 4 367 -11 q 332 19 357 7 q 293 49 307 31 q 238 64 260 46 q 213 89 218 75 q 163 181 161 114 q 125 219 138 197 q 106 274 113 240 q 94 303 94 285 q 96 317 94 311 q 83 350 83 329 q 88 369 83 360 q 68 429 68 390 q 83 483 68 464 q 74 514 74 497 q 81 540 74 526 q 74 574 74 549 q 82 630 74 601 q 103 668 90 658 q 99 692 99 676 q 106 733 99 714 q 128 754 114 753 q 151 800 128 783 q 166 843 150 819 q 203 875 182 867 q 228 926 207 906 q 274 950 249 947 q 299 972 281 963 q 336 981 318 981 q 360 975 350 981 q 407 994 381 994 q 436 983 429 994 q 456 986 447 986 q 493 968 481 986 q 510 972 499 972 q 553 962 529 972 q 582 942 578 951 q 635 913 611 936 q 654 867 658 890 q 682 840 674 857 q 688 807 690 822 q 704 783 700 797 q 710 765 708 768 q 738 706 738 742 q 735 688 738 699 q 736 674 736 682 q 719 634 736 650 q 679 618 701 618 q 640 635 657 618 q 597 718 601 676 q 571 740 581 724 q 563 775 561 756 q 544 797 550 783 q 539 824 538 810 q 500 839 514 824 q 485 838 496 838 q 451 842 469 838 q 424 854 433 847 q 407 853 418 853 q 386 856 392 853 q 351 844 368 844 q 332 847 346 844 q 303 833 317 835 q 291 793 300 811 q 268 772 282 775 q 263 740 271 756 q 239 714 254 724 q 232 692 238 703 q 218 676 226 682 q 221 660 219 669 q 222 639 222 651 q 197 593 222 610 q 190 564 197 575 q 197 536 197 550 q 192 511 197 522 q 200 485 200 497 q 193 456 200 472 q 185 422 186 438 q 204 403 197 415 q 211 376 211 390 q 203 349 211 361 q 219 329 214 343 q 225 300 225 315 q 219 275 225 285 q 262 241 250 258 q 279 186 274 224 q 302 172 289 182 q 319 156 315 163 q 369 145 343 157 q 404 114 394 133 q 431 126 413 121 q 468 131 450 131 q 494 125 488 131 q 542 149 514 149 q 554 147 550 149 q 589 173 576 165 q 618 185 601 181 q 635 225 619 206 q 643 252 636 236 q 657 276 650 268 q 656 290 656 281 q 665 330 656 308 q 688 363 675 351 q 710 388 693 378 q 744 399 726 399 q 761 396 750 399 z "},"Ĉ":{"ha":868,"x_min":68,"x_max":801,"o":"m 688 363 q 710 388 693 378 q 744 399 726 399 q 761 396 750 399 q 801 349 801 385 q 774 283 801 317 q 776 264 776 272 q 769 228 776 246 q 747 194 761 210 q 735 156 743 172 q 713 119 728 140 q 680 88 696 97 q 636 71 664 79 q 614 35 629 51 q 576 19 599 19 q 553 24 565 19 q 526 6 543 13 q 490 0 508 0 q 453 10 467 0 q 410 3 436 3 q 343 14 375 3 q 293 49 311 25 q 238 64 260 46 q 213 89 218 75 q 163 181 161 114 q 125 219 138 197 q 106 274 113 240 q 94 303 94 285 q 96 317 94 311 q 83 350 83 329 q 88 369 83 360 q 68 429 68 390 q 83 483 68 464 q 74 514 74 497 q 81 540 74 526 q 74 574 74 549 q 82 630 74 601 q 103 668 90 658 q 99 692 99 676 q 106 733 99 714 q 128 754 114 753 q 151 800 128 783 q 166 843 150 819 q 203 875 182 867 q 228 926 207 906 q 274 950 249 947 q 299 972 281 963 q 336 981 318 981 q 360 975 350 981 q 407 994 381 994 q 436 983 429 994 q 456 986 447 986 q 493 968 481 986 q 510 972 499 972 q 553 962 529 972 q 582 942 578 951 q 635 913 611 936 q 654 867 658 890 q 682 840 674 857 q 688 807 690 822 q 704 783 700 797 q 710 765 708 768 q 738 706 738 742 q 735 688 738 699 q 736 674 736 682 q 719 634 736 650 q 679 618 701 618 q 640 635 657 618 q 597 718 601 676 q 571 740 581 724 q 563 775 561 756 q 544 797 550 783 q 539 824 538 810 q 500 839 514 824 q 485 838 496 838 q 451 842 469 838 q 424 854 433 847 q 407 853 418 853 q 386 856 392 853 q 351 844 368 844 q 332 847 346 844 q 303 833 317 835 q 291 793 300 811 q 268 772 282 775 q 263 740 271 756 q 239 714 254 724 q 232 692 238 703 q 218 676 226 682 q 221 660 219 669 q 222 639 222 651 q 197 593 222 610 q 190 564 197 575 q 197 536 197 550 q 192 511 197 522 q 200 485 200 497 q 193 456 200 472 q 185 422 186 438 q 204 403 197 415 q 211 376 211 390 q 203 349 211 361 q 219 329 214 343 q 225 300 225 315 q 219 275 225 285 q 262 241 250 258 q 279 186 274 224 q 302 172 289 182 q 319 156 315 163 q 369 145 343 157 q 404 114 394 133 q 431 126 413 121 q 468 131 450 131 q 494 125 488 131 q 542 149 514 149 q 554 147 550 149 q 589 173 576 165 q 618 185 601 181 q 635 225 619 206 q 643 252 636 236 q 657 276 650 268 q 656 290 656 281 q 665 330 656 308 q 688 363 675 351 m 497 1224 q 526 1205 508 1224 q 546 1171 544 1186 q 574 1145 563 1164 q 588 1111 585 1126 q 613 1074 613 1096 q 592 1044 613 1057 q 574 1040 583 1040 q 544 1052 557 1040 q 529 1079 532 1064 q 503 1102 517 1085 q 486 1132 489 1119 q 456 1144 474 1131 q 435 1171 438 1158 q 414 1138 431 1156 q 386 1118 397 1119 q 371 1092 382 1106 q 349 1075 360 1078 q 330 1045 343 1058 q 300 1032 317 1032 q 274 1040 289 1032 q 262 1056 267 1046 q 257 1075 257 1065 q 274 1111 257 1097 q 286 1141 276 1126 q 310 1163 296 1156 q 322 1187 311 1176 q 347 1200 332 1197 q 367 1224 353 1218 q 377 1237 368 1231 q 394 1246 386 1243 q 411 1268 399 1258 q 436 1278 424 1278 q 460 1268 450 1278 q 486 1255 475 1269 q 497 1224 497 1240 z "},"Ċ":{"ha":871,"x_min":68,"x_max":801,"o":"m 688 363 q 710 388 693 378 q 744 399 726 399 q 761 396 750 399 q 801 349 801 385 q 774 283 801 317 q 776 264 776 272 q 769 228 776 246 q 747 194 761 210 q 735 156 743 172 q 713 119 728 140 q 680 88 696 97 q 636 71 664 79 q 614 35 629 51 q 576 19 599 19 q 553 24 565 19 q 526 6 543 13 q 490 0 508 0 q 453 10 467 0 q 410 3 436 3 q 343 14 375 3 q 293 49 311 25 q 238 64 260 46 q 213 89 218 75 q 163 181 161 114 q 125 219 138 197 q 106 274 113 240 q 94 303 94 285 q 96 317 94 311 q 83 350 83 329 q 88 369 83 360 q 68 429 68 390 q 83 483 68 464 q 74 514 74 497 q 81 540 74 526 q 74 574 74 549 q 82 630 74 601 q 103 668 90 658 q 99 692 99 676 q 106 733 99 714 q 128 754 114 753 q 151 800 128 783 q 166 843 150 819 q 203 875 182 867 q 228 926 207 906 q 274 950 249 947 q 299 972 281 963 q 336 981 318 981 q 360 975 350 981 q 407 994 381 994 q 436 983 429 994 q 456 986 447 986 q 493 968 481 986 q 510 972 499 972 q 553 962 529 972 q 582 942 578 951 q 635 913 611 936 q 654 867 658 890 q 682 840 674 857 q 688 807 690 822 q 704 783 700 797 q 710 765 708 768 q 738 706 738 742 q 735 688 738 699 q 736 674 736 682 q 719 634 736 650 q 679 618 701 618 q 640 635 657 618 q 597 718 601 676 q 571 740 581 724 q 563 775 561 756 q 544 797 550 783 q 539 824 538 810 q 500 839 514 824 q 485 838 496 838 q 451 842 469 838 q 424 854 433 847 q 407 853 418 853 q 386 856 392 853 q 351 844 368 844 q 332 847 346 844 q 303 833 317 835 q 291 793 300 811 q 268 772 282 775 q 263 740 271 756 q 239 714 254 724 q 232 692 238 703 q 218 676 226 682 q 221 660 219 669 q 222 639 222 651 q 197 593 222 610 q 190 564 197 575 q 197 536 197 550 q 192 511 197 522 q 200 485 200 497 q 193 456 200 472 q 185 422 186 438 q 204 403 197 415 q 211 376 211 390 q 203 349 211 361 q 219 329 214 343 q 225 300 225 315 q 219 275 225 285 q 262 241 250 258 q 279 186 274 224 q 302 172 289 182 q 319 156 315 163 q 369 145 343 157 q 404 114 394 133 q 431 126 413 121 q 468 131 450 131 q 494 125 488 131 q 542 149 514 149 q 554 147 550 149 q 589 173 576 165 q 618 185 601 181 q 635 225 619 206 q 643 252 636 236 q 657 276 650 268 q 656 290 656 281 q 665 330 656 308 q 688 363 675 351 m 458 1061 q 415 1047 443 1047 q 383 1056 394 1047 q 356 1079 365 1064 q 347 1113 347 1094 q 358 1148 347 1132 q 386 1172 368 1164 q 431 1192 406 1192 q 457 1185 443 1192 q 497 1164 483 1182 q 511 1122 511 1146 q 497 1081 511 1099 q 458 1061 483 1063 z "},"D":{"ha":871,"x_min":94,"x_max":819,"o":"m 700 840 q 753 808 728 833 q 778 760 779 783 q 807 726 794 750 q 819 679 819 701 q 811 651 819 663 q 817 613 817 635 q 810 569 817 590 q 819 522 819 550 q 809 474 819 496 q 779 443 799 451 q 768 411 778 429 q 750 385 758 393 l 751 372 q 736 333 751 347 q 715 318 724 321 q 706 294 717 304 q 676 278 694 283 q 665 253 674 261 q 639 239 657 244 q 623 215 635 225 q 596 201 611 204 q 576 172 588 179 q 540 164 564 164 q 482 99 536 118 q 462 79 474 85 q 437 71 450 74 q 418 67 424 68 q 371 38 400 51 q 314 25 342 25 q 288 29 300 25 q 262 8 279 17 q 226 0 244 0 q 194 10 208 0 q 143 69 143 10 q 146 99 143 79 q 124 144 124 118 q 133 176 124 163 q 126 201 126 193 q 136 228 126 211 q 118 300 118 260 q 133 357 118 335 q 119 422 119 386 q 139 504 119 465 q 124 541 131 518 q 118 586 118 564 q 133 640 118 621 q 117 674 124 653 q 111 715 111 694 q 122 758 111 743 q 121 771 121 763 q 128 799 121 788 q 121 857 118 819 q 94 904 94 874 q 103 933 94 919 q 126 954 111 947 q 146 976 132 968 q 175 985 160 985 q 210 974 194 985 q 253 988 219 988 q 283 983 271 988 q 296 972 294 979 q 350 979 324 979 q 408 968 386 979 q 438 976 421 976 q 478 960 464 976 q 496 963 489 963 q 538 949 518 963 q 564 914 558 935 q 590 921 578 921 q 624 911 608 921 q 649 889 640 901 q 681 876 667 889 q 700 840 696 863 m 321 147 q 352 167 329 160 q 396 174 375 174 q 438 200 414 200 q 453 231 438 219 q 497 254 469 243 q 517 294 500 276 q 554 311 535 313 q 583 333 565 326 q 614 368 593 358 q 640 407 618 394 q 651 442 643 425 q 669 465 660 460 q 681 515 672 490 q 703 543 689 539 q 699 565 699 554 q 701 586 699 572 q 692 647 692 600 q 696 685 692 672 q 687 696 694 688 q 679 714 679 704 q 664 725 669 717 q 656 736 658 733 q 619 751 635 736 q 601 789 604 767 q 574 794 590 788 q 550 811 558 800 q 508 817 533 807 q 476 850 482 828 q 461 849 472 849 q 428 858 442 849 q 399 853 415 853 q 346 868 371 853 q 297 858 322 858 q 250 872 269 858 q 231 868 242 868 q 229 867 229 868 q 229 867 229 867 q 238 844 235 861 q 242 804 242 826 q 228 733 242 749 q 240 692 235 722 q 246 632 246 663 q 236 571 246 590 q 246 521 246 553 q 229 457 246 481 q 242 381 239 429 l 244 349 q 243 318 246 336 q 240 286 240 300 q 244 257 240 272 q 247 228 247 238 q 243 204 247 215 q 254 181 249 197 q 256 153 260 164 q 286 161 271 161 q 321 147 310 161 z "},"Ǆ":{"ha":1725,"x_min":94,"x_max":1644,"o":"m 700 840 q 753 808 728 833 q 778 760 779 783 q 807 726 794 750 q 819 679 819 701 q 811 651 819 663 q 817 613 817 635 q 810 569 817 590 q 819 522 819 550 q 809 474 819 496 q 779 443 799 451 q 768 411 778 429 q 750 385 758 393 l 751 372 q 736 333 751 347 q 715 318 724 321 q 706 294 717 304 q 676 278 694 283 q 665 253 674 261 q 639 239 657 244 q 623 215 635 225 q 596 201 611 204 q 576 172 588 179 q 540 164 564 164 q 482 99 536 118 q 462 79 474 85 q 437 71 450 74 q 418 67 424 68 q 371 38 400 51 q 314 25 342 25 q 288 29 300 25 q 262 8 279 17 q 226 0 244 0 q 194 10 208 0 q 143 69 143 10 q 146 99 143 79 q 124 144 124 118 q 133 176 124 163 q 126 201 126 193 q 136 228 126 211 q 118 300 118 260 q 133 357 118 335 q 119 422 119 386 q 139 504 119 465 q 124 541 131 518 q 118 586 118 564 q 133 640 118 621 q 117 674 124 653 q 111 715 111 694 q 122 758 111 743 q 121 771 121 763 q 128 799 121 788 q 121 857 118 819 q 94 904 94 874 q 103 933 94 919 q 126 954 111 947 q 146 976 132 968 q 175 985 160 985 q 210 974 194 985 q 253 988 219 988 q 283 983 271 988 q 296 972 294 979 q 350 979 324 979 q 408 968 386 979 q 438 976 421 976 q 478 960 464 976 q 496 963 489 963 q 538 949 518 963 q 564 914 558 935 q 590 921 578 921 q 624 911 608 921 q 649 889 640 901 q 681 876 667 889 q 700 840 696 863 m 321 147 q 352 167 329 160 q 396 174 375 174 q 438 200 414 200 q 453 231 438 219 q 497 254 469 243 q 517 294 500 276 q 554 311 535 313 q 583 333 565 326 q 614 368 593 358 q 640 407 618 394 q 651 442 643 425 q 669 465 660 460 q 681 515 672 490 q 703 543 689 539 q 699 565 699 554 q 701 586 699 572 q 692 647 692 600 q 696 685 692 672 q 687 696 694 688 q 679 714 679 704 q 664 725 669 717 q 656 736 658 733 q 619 751 635 736 q 601 789 604 767 q 574 794 590 788 q 550 811 558 800 q 508 817 533 807 q 476 850 482 828 q 461 849 472 849 q 428 858 442 849 q 399 853 415 853 q 346 868 371 853 q 297 858 322 858 q 250 872 269 858 q 231 868 242 868 q 229 867 229 868 q 229 867 229 867 q 238 844 235 861 q 242 804 242 826 q 228 733 242 749 q 240 692 235 722 q 246 632 246 663 q 236 571 246 590 q 246 521 246 553 q 229 457 246 481 q 242 381 239 429 l 244 349 q 243 318 246 336 q 240 286 240 300 q 244 257 240 272 q 247 228 247 238 q 243 204 247 215 q 254 181 249 197 q 256 153 260 164 q 286 161 271 161 q 321 147 310 161 m 1544 979 q 1586 999 1560 999 q 1626 983 1608 999 q 1644 947 1644 968 q 1629 910 1644 926 q 1612 877 1626 892 q 1579 863 1597 863 q 1511 782 1585 814 q 1492 719 1506 744 q 1444 693 1478 693 q 1422 642 1444 671 q 1376 611 1399 613 q 1367 584 1379 599 q 1339 568 1356 569 q 1316 517 1340 543 q 1269 489 1292 492 q 1252 443 1269 464 q 1208 413 1235 422 q 1189 382 1203 399 q 1158 358 1175 365 q 1137 331 1146 340 q 1111 321 1128 322 q 1097 285 1115 307 q 1058 263 1079 264 q 1060 249 1060 257 q 1050 217 1060 228 q 1027 197 1040 206 q 1007 183 1014 188 q 971 122 1007 149 q 992 125 978 122 q 1014 128 1006 128 q 1032 122 1026 128 q 1063 133 1043 133 q 1108 125 1078 133 q 1151 135 1128 135 q 1179 129 1168 135 q 1218 143 1199 143 q 1251 129 1240 143 q 1306 147 1269 147 q 1357 133 1339 147 q 1392 149 1369 149 q 1417 143 1406 149 q 1446 150 1424 150 q 1469 147 1457 150 q 1488 140 1482 144 q 1499 142 1492 142 q 1540 124 1522 142 q 1557 82 1557 106 q 1554 64 1557 69 q 1527 38 1546 47 q 1488 29 1508 29 q 1442 44 1460 29 q 1410 42 1429 39 q 1350 25 1389 25 q 1310 36 1322 25 q 1264 17 1294 17 q 1222 25 1242 17 q 1194 13 1208 13 q 1165 26 1182 13 q 1139 18 1156 18 q 1111 24 1124 18 q 1082 13 1097 13 q 1061 21 1069 13 q 1021 13 1044 13 q 1001 17 1008 13 q 975 7 996 7 q 947 14 958 7 q 919 10 935 10 q 881 18 896 10 q 854 14 868 14 q 811 44 821 14 q 804 69 804 58 q 829 114 804 94 q 847 163 828 136 q 888 199 865 189 q 907 247 889 225 q 951 285 925 269 q 969 331 950 306 q 1010 360 989 356 q 1031 393 1015 376 q 1061 413 1047 410 q 1078 451 1056 428 q 1115 472 1100 475 q 1139 506 1122 489 q 1168 524 1156 524 q 1181 564 1168 539 q 1213 608 1193 589 q 1250 629 1232 628 q 1260 665 1249 642 q 1289 703 1272 688 q 1322 714 1306 718 q 1342 763 1318 739 q 1388 792 1367 788 q 1419 842 1385 817 q 1456 869 1453 867 q 1431 864 1447 864 q 1406 869 1417 864 q 1382 863 1396 863 q 1344 874 1360 863 q 1304 856 1332 856 q 1269 865 1283 856 q 1232 856 1260 856 q 1189 867 1201 856 q 1157 857 1181 857 q 1125 864 1136 857 q 1101 857 1119 857 q 1072 861 1088 857 q 1046 872 1056 865 q 999 857 1029 857 q 966 863 982 857 q 943 875 950 868 q 899 864 925 864 q 850 878 871 864 q 829 915 829 892 q 882 967 829 967 q 925 958 903 967 q 971 969 947 969 q 1017 960 993 969 q 1042 969 1024 965 q 1076 972 1060 972 q 1104 968 1094 972 q 1147 979 1117 979 q 1185 974 1165 979 q 1219 963 1206 969 q 1236 975 1224 971 q 1263 979 1249 979 q 1301 967 1292 979 q 1349 981 1317 981 q 1385 972 1372 981 q 1399 979 1389 976 q 1418 982 1408 982 q 1436 976 1432 982 q 1464 982 1446 982 q 1486 979 1472 982 q 1511 990 1497 990 q 1544 979 1519 990 m 1103 1118 q 1073 1140 1089 1122 q 1056 1167 1057 1158 q 1047 1201 1044 1182 q 1042 1221 1042 1208 q 1053 1250 1042 1236 q 1083 1265 1065 1264 q 1119 1254 1110 1267 q 1133 1213 1128 1242 q 1144 1200 1143 1208 q 1176 1188 1163 1200 q 1190 1157 1189 1175 q 1209 1143 1199 1153 q 1222 1125 1219 1133 q 1246 1151 1228 1140 q 1256 1178 1246 1167 q 1279 1193 1265 1190 q 1285 1228 1275 1211 q 1315 1250 1296 1244 q 1354 1278 1326 1278 q 1389 1265 1374 1278 q 1404 1233 1404 1251 q 1396 1208 1404 1221 q 1372 1172 1393 1183 q 1358 1140 1371 1158 q 1332 1117 1346 1122 q 1275 1053 1329 1079 q 1260 1025 1272 1038 q 1232 1013 1249 1013 q 1213 1017 1224 1013 q 1163 1035 1188 1013 q 1140 1082 1138 1057 q 1117 1092 1128 1083 q 1103 1118 1107 1101 z "},"Ð":{"ha":932,"x_min":38,"x_max":858,"o":"m 850 649 q 856 610 856 632 q 849 567 856 588 q 858 519 858 547 q 848 471 858 493 q 818 440 838 449 q 807 408 817 426 q 789 382 797 390 l 790 369 q 775 331 790 344 q 754 315 763 318 q 744 291 756 301 q 715 275 733 281 q 704 250 713 258 q 678 236 696 242 q 662 212 674 222 q 635 199 650 201 q 615 169 626 176 q 579 161 603 161 q 521 96 575 115 q 501 76 513 82 q 476 68 489 71 q 457 64 463 65 q 410 35 439 49 q 353 22 381 22 q 326 26 339 22 q 301 6 318 14 q 265 -3 283 -3 q 233 7 247 -3 q 182 67 182 7 q 185 96 182 76 q 163 142 163 115 q 172 174 163 160 q 165 199 165 190 q 175 225 165 208 q 157 297 157 257 q 172 354 157 332 q 158 418 158 383 q 165 465 158 440 q 131 474 153 467 q 123 468 129 472 q 100 464 117 464 q 55 481 72 464 q 38 518 38 497 q 52 551 38 538 q 94 567 67 565 q 129 579 110 579 q 158 574 139 579 q 172 638 156 615 q 156 671 163 650 q 150 713 150 692 q 161 756 150 740 q 160 768 160 760 q 167 796 160 785 q 160 854 157 817 q 133 901 133 871 q 142 931 133 917 q 165 951 150 944 q 185 974 171 965 q 214 982 199 982 q 249 971 233 982 q 292 985 258 985 q 321 981 308 985 q 335 969 333 976 q 389 976 363 976 q 447 965 425 976 q 476 974 460 974 q 517 957 503 974 q 535 960 528 960 q 577 946 557 960 q 603 911 597 932 q 629 918 617 918 q 663 908 647 918 q 688 886 679 899 q 720 873 706 886 q 739 838 735 860 q 792 806 767 831 q 817 757 818 781 q 846 723 833 747 q 858 676 858 699 q 850 649 858 660 m 708 463 q 719 512 711 488 q 742 540 728 536 q 738 563 738 551 q 740 583 738 569 q 731 644 731 597 q 735 682 731 669 q 726 693 733 685 q 718 711 718 701 q 703 722 708 714 q 694 733 697 731 q 658 749 674 733 q 640 786 643 764 q 613 791 629 785 q 589 808 597 797 q 547 815 572 804 q 515 847 521 825 q 500 846 511 846 q 467 856 481 846 q 438 850 454 850 q 385 865 410 850 q 336 856 360 856 q 289 869 308 856 q 269 865 281 865 q 268 865 268 865 q 268 864 268 864 q 277 841 274 858 q 281 801 281 824 q 267 731 281 746 q 280 690 274 719 q 286 629 286 660 q 279 578 286 601 l 283 576 q 310 583 294 583 q 343 576 325 583 q 393 566 376 578 q 410 538 410 554 q 392 501 410 518 q 347 482 374 483 q 306 469 324 469 q 279 474 292 469 q 268 454 274 458 q 281 378 278 426 l 283 346 q 282 315 285 333 q 279 283 279 297 q 283 254 279 269 q 286 225 286 235 q 282 201 286 213 q 293 178 288 194 q 294 150 299 161 q 325 158 310 158 q 360 144 349 158 q 391 164 368 157 q 435 171 414 171 q 476 197 453 197 q 492 228 476 217 q 536 251 508 240 q 557 292 539 275 q 593 308 575 310 q 622 331 604 324 q 653 365 632 356 q 679 404 657 392 q 690 440 682 422 q 708 463 699 457 z "},"Ď":{"ha":931,"x_min":94,"x_max":819,"o":"m 700 840 q 753 808 728 833 q 778 760 779 783 q 807 726 794 750 q 819 679 819 701 q 811 651 819 663 q 817 613 817 635 q 810 569 817 590 q 819 522 819 550 q 809 474 819 496 q 779 443 799 451 q 768 411 778 429 q 750 385 758 393 l 751 372 q 736 333 751 347 q 715 318 724 321 q 706 294 717 304 q 676 278 694 283 q 665 253 674 261 q 639 239 657 244 q 623 215 635 225 q 596 201 611 204 q 576 172 588 179 q 540 164 564 164 q 482 99 536 118 q 462 79 474 85 q 437 71 450 74 q 418 67 424 68 q 371 38 400 51 q 314 25 342 25 q 288 29 300 25 q 262 8 279 17 q 226 0 244 0 q 194 10 208 0 q 143 69 143 10 q 146 99 143 79 q 124 144 124 118 q 133 176 124 163 q 126 201 126 193 q 136 228 126 211 q 118 300 118 260 q 133 357 118 335 q 119 422 119 386 q 139 504 119 465 q 124 541 131 518 q 118 586 118 564 q 133 640 118 621 q 117 674 124 653 q 111 715 111 694 q 122 758 111 743 q 121 771 121 763 q 128 799 121 788 q 121 857 118 819 q 94 904 94 874 q 103 933 94 919 q 126 954 111 947 q 146 976 132 968 q 175 985 160 985 q 210 974 194 985 q 253 988 219 988 q 283 983 271 988 q 296 972 294 979 q 350 979 324 979 q 408 968 386 979 q 438 976 421 976 q 478 960 464 976 q 496 963 489 963 q 538 949 518 963 q 564 914 558 935 q 590 921 578 921 q 624 911 608 921 q 649 889 640 901 q 681 876 667 889 q 700 840 696 863 m 321 147 q 352 167 329 160 q 396 174 375 174 q 438 200 414 200 q 453 231 438 219 q 497 254 469 243 q 517 294 500 276 q 554 311 535 313 q 583 333 565 326 q 614 368 593 358 q 640 407 618 394 q 651 442 643 425 q 669 465 660 460 q 681 515 672 490 q 703 543 689 539 q 699 565 699 554 q 701 586 699 572 q 692 647 692 600 q 696 685 692 672 q 687 696 694 688 q 679 714 679 704 q 664 725 669 717 q 656 736 658 733 q 619 751 635 736 q 601 789 604 767 q 574 794 590 788 q 550 811 558 800 q 508 817 533 807 q 476 850 482 828 q 461 849 472 849 q 428 858 442 849 q 399 853 415 853 q 346 868 371 853 q 297 858 322 858 q 250 872 269 858 q 231 868 242 868 q 229 867 229 868 q 229 867 229 867 q 238 844 235 861 q 242 804 242 826 q 228 733 242 749 q 240 692 235 722 q 246 632 246 663 q 236 571 246 590 q 246 521 246 553 q 229 457 246 481 q 242 381 239 429 l 244 349 q 243 318 246 336 q 240 286 240 300 q 244 257 240 272 q 247 228 247 238 q 243 204 247 215 q 254 181 249 197 q 256 153 260 164 q 286 161 271 161 q 321 147 310 161 m 293 1122 q 263 1144 279 1126 q 246 1171 247 1163 q 238 1206 235 1186 q 232 1225 232 1213 q 244 1254 232 1240 q 274 1269 256 1268 q 309 1258 300 1271 q 324 1217 318 1246 q 335 1204 333 1213 q 366 1192 353 1204 q 381 1161 379 1179 q 399 1147 389 1157 q 413 1129 410 1138 q 436 1156 418 1144 q 446 1183 436 1171 q 469 1197 456 1194 q 476 1232 465 1215 q 506 1254 486 1249 q 544 1282 517 1282 q 579 1269 564 1282 q 594 1238 594 1256 q 586 1213 594 1225 q 563 1176 583 1188 q 549 1144 561 1163 q 522 1121 536 1126 q 465 1057 519 1083 q 451 1029 463 1042 q 422 1017 439 1017 q 403 1021 414 1017 q 353 1039 378 1017 q 331 1086 328 1061 q 308 1097 318 1088 q 293 1122 297 1106 z "},"Đ":{"ha":932,"x_min":38,"x_max":858,"o":"m 850 649 q 856 610 856 632 q 849 567 856 588 q 858 519 858 547 q 848 471 858 493 q 818 440 838 449 q 807 408 817 426 q 789 382 797 390 l 790 369 q 775 331 790 344 q 754 315 763 318 q 744 291 756 301 q 715 275 733 281 q 704 250 713 258 q 678 236 696 242 q 662 212 674 222 q 635 199 650 201 q 615 169 626 176 q 579 161 603 161 q 521 96 575 115 q 501 76 513 82 q 476 68 489 71 q 457 64 463 65 q 410 35 439 49 q 353 22 381 22 q 326 26 339 22 q 301 6 318 14 q 265 -3 283 -3 q 233 7 247 -3 q 182 67 182 7 q 185 96 182 76 q 163 142 163 115 q 172 174 163 160 q 165 199 165 190 q 175 225 165 208 q 157 297 157 257 q 172 354 157 332 q 158 418 158 383 q 165 465 158 440 q 131 474 153 467 q 123 468 129 472 q 100 464 117 464 q 55 481 72 464 q 38 518 38 497 q 52 551 38 538 q 94 567 67 565 q 129 579 110 579 q 158 574 139 579 q 172 638 156 615 q 156 671 163 650 q 150 713 150 692 q 161 756 150 740 q 160 768 160 760 q 167 796 160 785 q 160 854 157 817 q 133 901 133 871 q 142 931 133 917 q 165 951 150 944 q 185 974 171 965 q 214 982 199 982 q 249 971 233 982 q 292 985 258 985 q 321 981 308 985 q 335 969 333 976 q 389 976 363 976 q 447 965 425 976 q 476 974 460 974 q 517 957 503 974 q 535 960 528 960 q 577 946 557 960 q 603 911 597 932 q 629 918 617 918 q 663 908 647 918 q 688 886 679 899 q 720 873 706 886 q 739 838 735 860 q 792 806 767 831 q 817 757 818 781 q 846 723 833 747 q 858 676 858 699 q 850 649 858 660 m 708 463 q 719 512 711 488 q 742 540 728 536 q 738 563 738 551 q 740 583 738 569 q 731 644 731 597 q 735 682 731 669 q 726 693 733 685 q 718 711 718 701 q 703 722 708 714 q 694 733 697 731 q 658 749 674 733 q 640 786 643 764 q 613 791 629 785 q 589 808 597 797 q 547 815 572 804 q 515 847 521 825 q 500 846 511 846 q 467 856 481 846 q 438 850 454 850 q 385 865 410 850 q 336 856 360 856 q 289 869 308 856 q 269 865 281 865 q 268 865 268 865 q 268 864 268 864 q 277 841 274 858 q 281 801 281 824 q 267 731 281 746 q 280 690 274 719 q 286 629 286 660 q 279 578 286 601 l 283 576 q 310 583 294 583 q 343 576 325 583 q 393 566 376 578 q 410 538 410 554 q 392 501 410 518 q 347 482 374 483 q 306 469 324 469 q 279 474 292 469 q 268 454 274 458 q 281 378 278 426 l 283 346 q 282 315 285 333 q 279 283 279 297 q 283 254 279 269 q 286 225 286 235 q 282 201 286 213 q 293 178 288 194 q 294 150 299 161 q 325 158 310 158 q 360 144 349 158 q 391 164 368 157 q 435 171 414 171 q 476 197 453 197 q 492 228 476 217 q 536 251 508 240 q 557 292 539 275 q 593 308 575 310 q 622 331 604 324 q 653 365 632 356 q 679 404 657 392 q 690 440 682 422 q 708 463 699 457 z "},"Ḍ":{"ha":889,"x_min":94,"x_max":819,"o":"m 700 840 q 753 808 728 833 q 778 760 779 783 q 807 726 794 750 q 819 679 819 701 q 811 651 819 663 q 817 613 817 635 q 810 569 817 590 q 819 522 819 550 q 809 474 819 496 q 779 443 799 451 q 768 411 778 429 q 750 385 758 393 l 751 372 q 736 333 751 347 q 715 318 724 321 q 706 294 717 304 q 676 278 694 283 q 665 253 674 261 q 639 239 657 244 q 623 215 635 225 q 596 201 611 204 q 576 172 588 179 q 540 164 564 164 q 482 99 536 118 q 462 79 474 85 q 437 71 450 74 q 418 67 424 68 q 371 38 400 51 q 314 25 342 25 q 288 29 300 25 q 262 8 279 17 q 226 0 244 0 q 194 10 208 0 q 143 69 143 10 q 146 99 143 79 q 124 144 124 118 q 133 176 124 163 q 126 201 126 193 q 136 228 126 211 q 118 300 118 260 q 133 357 118 335 q 119 422 119 386 q 139 504 119 465 q 124 541 131 518 q 118 586 118 564 q 133 640 118 621 q 117 674 124 653 q 111 715 111 694 q 122 758 111 743 q 121 771 121 763 q 128 799 121 788 q 121 857 118 819 q 94 904 94 874 q 103 933 94 919 q 126 954 111 947 q 146 976 132 968 q 175 985 160 985 q 210 974 194 985 q 253 988 219 988 q 283 983 271 988 q 296 972 294 979 q 350 979 324 979 q 408 968 386 979 q 438 976 421 976 q 478 960 464 976 q 496 963 489 963 q 538 949 518 963 q 564 914 558 935 q 590 921 578 921 q 624 911 608 921 q 649 889 640 901 q 681 876 667 889 q 700 840 696 863 m 321 147 q 352 167 329 160 q 396 174 375 174 q 438 200 414 200 q 453 231 438 219 q 497 254 469 243 q 517 294 500 276 q 554 311 535 313 q 583 333 565 326 q 614 368 593 358 q 640 407 618 394 q 651 442 643 425 q 669 465 660 460 q 681 515 672 490 q 703 543 689 539 q 699 565 699 554 q 701 586 699 572 q 692 647 692 600 q 696 685 692 672 q 687 696 694 688 q 679 714 679 704 q 664 725 669 717 q 656 736 658 733 q 619 751 635 736 q 601 789 604 767 q 574 794 590 788 q 550 811 558 800 q 508 817 533 807 q 476 850 482 828 q 461 849 472 849 q 428 858 442 849 q 399 853 415 853 q 346 868 371 853 q 297 858 322 858 q 250 872 269 858 q 231 868 242 868 q 229 867 229 868 q 229 867 229 867 q 238 844 235 861 q 242 804 242 826 q 228 733 242 749 q 240 692 235 722 q 246 632 246 663 q 236 571 246 590 q 246 521 246 553 q 229 457 246 481 q 242 381 239 429 l 244 349 q 243 318 246 336 q 240 286 240 300 q 244 257 240 272 q 247 228 247 238 q 243 204 247 215 q 254 181 249 197 q 256 153 260 164 q 286 161 271 161 q 321 147 310 161 m 413 -128 q 450 -117 425 -117 q 475 -122 468 -117 q 506 -169 506 -136 q 497 -199 506 -185 q 472 -219 488 -212 q 436 -235 457 -235 q 414 -229 428 -235 q 381 -213 392 -228 q 369 -178 369 -199 q 381 -144 369 -158 q 413 -128 392 -129 z "},"Ḏ":{"ha":896,"x_min":94,"x_max":819,"o":"m 700 840 q 753 808 728 833 q 778 760 779 783 q 807 726 794 750 q 819 679 819 701 q 811 651 819 663 q 817 613 817 635 q 810 569 817 590 q 819 522 819 550 q 809 474 819 496 q 779 443 799 451 q 768 411 778 429 q 750 385 758 393 l 751 372 q 736 333 751 347 q 715 318 724 321 q 706 294 717 304 q 676 278 694 283 q 665 253 674 261 q 639 239 657 244 q 623 215 635 225 q 596 201 611 204 q 576 172 588 179 q 540 164 564 164 q 482 99 536 118 q 462 79 474 85 q 437 71 450 74 q 418 67 424 68 q 371 38 400 51 q 314 25 342 25 q 288 29 300 25 q 262 8 279 17 q 226 0 244 0 q 194 10 208 0 q 143 69 143 10 q 146 99 143 79 q 124 144 124 118 q 133 176 124 163 q 126 201 126 193 q 136 228 126 211 q 118 300 118 260 q 133 357 118 335 q 119 422 119 386 q 139 504 119 465 q 124 541 131 518 q 118 586 118 564 q 133 640 118 621 q 117 674 124 653 q 111 715 111 694 q 122 758 111 743 q 121 771 121 763 q 128 799 121 788 q 121 857 118 819 q 94 904 94 874 q 103 933 94 919 q 126 954 111 947 q 146 976 132 968 q 175 985 160 985 q 210 974 194 985 q 253 988 219 988 q 283 983 271 988 q 296 972 294 979 q 350 979 324 979 q 408 968 386 979 q 438 976 421 976 q 478 960 464 976 q 496 963 489 963 q 538 949 518 963 q 564 914 558 935 q 590 921 578 921 q 624 911 608 921 q 649 889 640 901 q 681 876 667 889 q 700 840 696 863 m 321 147 q 352 167 329 160 q 396 174 375 174 q 438 200 414 200 q 453 231 438 219 q 497 254 469 243 q 517 294 500 276 q 554 311 535 313 q 583 333 565 326 q 614 368 593 358 q 640 407 618 394 q 651 442 643 425 q 669 465 660 460 q 681 515 672 490 q 703 543 689 539 q 699 565 699 554 q 701 586 699 572 q 692 647 692 600 q 696 685 692 672 q 687 696 694 688 q 679 714 679 704 q 664 725 669 717 q 656 736 658 733 q 619 751 635 736 q 601 789 604 767 q 574 794 590 788 q 550 811 558 800 q 508 817 533 807 q 476 850 482 828 q 461 849 472 849 q 428 858 442 849 q 399 853 415 853 q 346 868 371 853 q 297 858 322 858 q 250 872 269 858 q 231 868 242 868 q 229 867 229 868 q 229 867 229 867 q 238 844 235 861 q 242 804 242 826 q 228 733 242 749 q 240 692 235 722 q 246 632 246 663 q 236 571 246 590 q 246 521 246 553 q 229 457 246 481 q 242 381 239 429 l 244 349 q 243 318 246 336 q 240 286 240 300 q 244 257 240 272 q 247 228 247 238 q 243 204 247 215 q 254 181 249 197 q 256 153 260 164 q 286 161 271 161 q 321 147 310 161 m 242 -201 q 228 -210 235 -208 q 206 -211 222 -211 q 158 -194 176 -211 q 139 -157 139 -178 q 154 -124 139 -137 q 200 -107 169 -110 q 238 -94 213 -94 q 282 -106 263 -94 q 340 -92 306 -92 q 414 -103 372 -92 q 481 -96 451 -96 q 535 -107 519 -96 q 586 -99 551 -99 q 638 -108 622 -99 q 656 -107 644 -107 q 692 -120 678 -107 q 706 -151 706 -133 q 691 -186 706 -171 q 650 -203 676 -201 q 603 -218 625 -218 q 572 -210 586 -218 q 539 -215 561 -215 q 490 -203 501 -215 q 454 -207 475 -207 q 406 -199 428 -207 q 372 -204 390 -204 q 329 -197 353 -204 q 283 -211 303 -211 q 242 -201 265 -211 z "},"ǅ":{"ha":1531,"x_min":94,"x_max":1456,"o":"m 700 840 q 753 808 728 833 q 778 760 779 783 q 807 726 794 750 q 819 679 819 701 q 811 651 819 663 q 817 613 817 635 q 810 569 817 590 q 819 522 819 550 q 809 474 819 496 q 779 443 799 451 q 768 411 778 429 q 750 385 758 393 l 751 372 q 736 333 751 347 q 715 318 724 321 q 706 294 717 304 q 676 278 694 283 q 665 253 674 261 q 639 239 657 244 q 623 215 635 225 q 596 201 611 204 q 576 172 588 179 q 540 164 564 164 q 482 99 536 118 q 462 79 474 85 q 437 71 450 74 q 418 67 424 68 q 371 38 400 51 q 314 25 342 25 q 288 29 300 25 q 262 8 279 17 q 226 0 244 0 q 194 10 208 0 q 143 69 143 10 q 146 99 143 79 q 124 144 124 118 q 133 176 124 163 q 126 201 126 193 q 136 228 126 211 q 118 300 118 260 q 133 357 118 335 q 119 422 119 386 q 139 504 119 465 q 124 541 131 518 q 118 586 118 564 q 133 640 118 621 q 117 674 124 653 q 111 715 111 694 q 122 758 111 743 q 121 771 121 763 q 128 799 121 788 q 121 857 118 819 q 94 904 94 874 q 103 933 94 919 q 126 954 111 947 q 146 976 132 968 q 175 985 160 985 q 210 974 194 985 q 253 988 219 988 q 283 983 271 988 q 296 972 294 979 q 350 979 324 979 q 408 968 386 979 q 438 976 421 976 q 478 960 464 976 q 496 963 489 963 q 538 949 518 963 q 564 914 558 935 q 590 921 578 921 q 624 911 608 921 q 649 889 640 901 q 681 876 667 889 q 700 840 696 863 m 321 147 q 352 167 329 160 q 396 174 375 174 q 438 200 414 200 q 453 231 438 219 q 497 254 469 243 q 517 294 500 276 q 554 311 535 313 q 583 333 565 326 q 614 368 593 358 q 640 407 618 394 q 651 442 643 425 q 669 465 660 460 q 681 515 672 490 q 703 543 689 539 q 699 565 699 554 q 701 586 699 572 q 692 647 692 600 q 696 685 692 672 q 687 696 694 688 q 679 714 679 704 q 664 725 669 717 q 656 736 658 733 q 619 751 635 736 q 601 789 604 767 q 574 794 590 788 q 550 811 558 800 q 508 817 533 807 q 476 850 482 828 q 461 849 472 849 q 428 858 442 849 q 399 853 415 853 q 346 868 371 853 q 297 858 322 858 q 250 872 269 858 q 231 868 242 868 q 229 867 229 868 q 229 867 229 867 q 238 844 235 861 q 242 804 242 826 q 228 733 242 749 q 240 692 235 722 q 246 632 246 663 q 236 571 246 590 q 246 521 246 553 q 229 457 246 481 q 242 381 239 429 l 244 349 q 243 318 246 336 q 240 286 240 300 q 244 257 240 272 q 247 228 247 238 q 243 204 247 215 q 254 181 249 197 q 256 153 260 164 q 286 161 271 161 q 321 147 310 161 m 1360 142 q 1390 150 1369 150 q 1429 131 1415 149 q 1443 90 1443 114 q 1431 53 1443 69 q 1397 33 1419 36 q 1363 21 1381 21 q 1333 26 1349 21 q 1313 33 1317 32 q 1256 18 1290 18 q 1226 24 1243 18 q 1186 11 1204 11 q 1144 33 1161 11 q 1120 18 1138 24 q 1083 13 1103 13 q 1042 21 1058 13 q 976 6 1015 6 q 933 13 949 6 q 889 1 911 1 q 850 10 874 1 q 813 63 813 25 q 824 102 813 82 q 856 133 836 122 q 878 201 857 169 q 924 242 899 232 q 993 308 932 275 q 1021 358 994 324 q 1064 397 1047 392 q 1085 436 1065 414 q 1122 465 1104 458 q 1152 509 1131 489 q 1190 528 1174 529 q 1207 554 1194 542 q 1229 568 1219 567 q 1242 595 1228 579 q 1274 621 1257 611 q 1231 610 1260 615 q 1175 604 1201 604 q 1128 611 1143 604 q 1104 599 1119 603 q 1072 594 1089 594 q 1032 604 1043 594 q 1003 590 1022 596 q 964 583 983 583 q 917 600 932 583 q 903 599 911 599 q 861 616 878 599 q 844 657 844 633 q 851 683 844 669 q 883 710 861 700 q 928 721 904 721 q 964 711 950 721 q 1010 724 979 724 q 1051 707 1042 724 q 1111 728 1082 728 q 1160 714 1133 728 q 1207 731 1181 731 q 1239 724 1225 731 q 1281 739 1254 739 q 1306 736 1297 739 q 1335 740 1331 740 q 1347 739 1343 740 q 1361 744 1351 744 q 1385 738 1374 744 q 1400 743 1389 743 q 1415 739 1408 743 q 1424 728 1422 735 q 1456 693 1456 722 q 1449 671 1456 682 q 1432 653 1443 660 q 1403 599 1426 619 q 1356 578 1381 578 q 1340 538 1358 558 q 1294 507 1321 517 q 1256 454 1282 479 q 1218 429 1231 429 q 1199 377 1219 403 q 1157 349 1178 351 q 1138 308 1157 329 q 1100 282 1118 288 q 1074 237 1094 261 q 1036 203 1053 213 q 1015 161 1035 183 q 975 133 994 139 q 974 132 975 132 q 972 131 972 132 q 1006 128 1000 131 q 1039 142 1021 142 q 1056 139 1044 142 q 1110 161 1079 161 q 1154 149 1132 161 q 1197 164 1165 164 q 1238 157 1218 164 q 1268 139 1258 150 q 1310 153 1282 153 q 1360 142 1338 153 m 1014 908 q 984 931 1000 913 q 967 957 968 949 q 958 992 956 972 q 953 1011 953 999 q 965 1040 953 1026 q 994 1056 976 1054 q 1030 1044 1021 1057 q 1044 1003 1039 1032 q 1056 990 1054 999 q 1087 978 1074 990 q 1101 947 1100 965 q 1120 933 1110 943 q 1133 915 1131 924 q 1157 942 1139 931 q 1167 969 1157 957 q 1190 983 1176 981 q 1197 1018 1186 1001 q 1226 1040 1207 1035 q 1265 1068 1238 1068 q 1300 1055 1285 1068 q 1315 1024 1315 1042 q 1307 999 1315 1011 q 1283 963 1304 974 q 1269 931 1282 949 q 1243 907 1257 913 q 1186 843 1240 869 q 1172 815 1183 828 q 1143 803 1160 803 q 1124 807 1135 803 q 1074 825 1099 803 q 1051 872 1049 847 q 1028 883 1039 874 q 1014 908 1018 892 z "},"E":{"ha":722,"x_min":79,"x_max":688,"o":"m 553 975 q 589 985 567 985 q 653 964 621 985 q 678 951 668 964 q 688 921 688 939 q 674 879 688 897 q 635 861 660 861 q 596 872 617 861 q 567 861 585 861 q 526 875 547 861 q 485 868 513 868 q 422 881 444 868 q 379 871 401 871 q 344 876 361 871 q 310 869 326 869 q 265 882 288 869 q 221 865 240 868 q 231 814 231 842 q 215 758 231 779 q 232 700 232 732 q 219 650 232 675 q 232 615 232 636 q 222 582 232 601 q 253 589 235 589 q 272 586 267 589 q 306 597 288 597 q 342 582 324 597 q 369 586 358 586 q 393 583 376 586 q 417 586 410 586 q 451 575 440 586 q 476 582 463 582 q 497 575 493 582 q 517 579 510 579 q 543 574 526 579 q 578 583 561 583 q 618 566 601 583 q 635 528 635 549 q 622 497 635 510 q 583 483 610 485 q 542 467 571 467 q 494 481 515 467 q 454 467 481 467 q 415 478 431 467 q 392 469 404 469 q 378 475 383 469 q 336 461 363 461 q 300 469 317 461 q 276 463 286 463 q 249 472 263 463 q 233 465 239 467 q 218 465 228 464 q 231 426 231 440 q 222 397 231 414 q 232 369 232 386 q 225 343 232 357 q 235 314 235 332 q 225 286 235 297 q 233 260 233 269 q 222 232 233 251 q 228 217 228 226 q 219 200 228 204 q 233 168 233 188 q 231 144 233 161 l 239 146 q 271 132 254 146 q 325 147 292 147 q 351 144 338 147 q 375 160 360 154 q 408 165 390 165 q 453 153 438 165 q 482 175 461 167 q 524 183 503 183 q 549 179 539 183 q 576 188 564 188 q 615 169 599 188 q 632 128 632 151 q 606 82 632 99 q 583 63 600 71 q 547 56 567 56 q 517 63 528 56 q 488 44 506 51 q 451 36 469 36 q 408 51 424 36 q 347 26 385 26 q 324 29 340 26 q 269 13 296 13 q 233 24 249 13 q 189 0 218 0 q 145 19 164 0 q 132 65 126 39 q 119 90 124 74 q 115 124 115 107 q 117 142 115 136 q 99 203 99 160 q 103 237 99 221 q 113 260 107 253 q 106 289 106 274 q 108 307 106 296 q 96 340 96 319 q 106 371 96 360 q 99 396 99 385 q 108 425 99 411 q 97 474 97 450 q 115 529 97 503 q 101 574 107 547 q 94 624 94 600 q 115 685 94 668 q 108 717 108 715 q 100 764 100 750 q 110 814 100 785 q 99 846 103 824 q 96 878 94 868 q 79 918 79 894 q 91 952 79 936 q 122 974 103 968 q 149 990 132 983 q 183 996 165 996 q 224 983 207 996 q 271 990 247 990 q 325 975 304 990 q 354 981 338 981 q 378 974 369 981 q 418 981 386 981 q 483 967 460 981 q 521 982 499 982 q 553 975 535 982 z "},"É":{"ha":778,"x_min":79,"x_max":688,"o":"m 553 975 q 589 985 567 985 q 653 964 621 985 q 678 951 668 964 q 688 921 688 939 q 674 879 688 897 q 635 861 660 861 q 596 872 617 861 q 567 861 585 861 q 526 875 547 861 q 485 868 513 868 q 422 881 444 868 q 379 871 401 871 q 344 876 361 871 q 310 869 326 869 q 265 882 288 869 q 221 865 240 868 q 231 814 231 842 q 215 758 231 779 q 232 700 232 732 q 219 650 232 675 q 232 615 232 636 q 222 582 232 601 q 253 589 235 589 q 272 586 267 589 q 306 597 288 597 q 342 582 324 597 q 369 586 358 586 q 393 583 376 586 q 417 586 410 586 q 451 575 440 586 q 476 582 463 582 q 497 575 493 582 q 517 579 510 579 q 543 574 526 579 q 578 583 561 583 q 618 566 601 583 q 635 528 635 549 q 622 497 635 510 q 583 483 610 485 q 542 467 571 467 q 494 481 515 467 q 454 467 481 467 q 415 478 431 467 q 392 469 404 469 q 378 475 383 469 q 336 461 363 461 q 300 469 317 461 q 276 463 286 463 q 249 472 263 463 q 233 465 239 467 q 218 465 228 464 q 231 426 231 440 q 222 397 231 414 q 232 369 232 386 q 225 343 232 357 q 235 314 235 332 q 225 286 235 297 q 233 260 233 269 q 222 232 233 251 q 228 217 228 226 q 219 200 228 204 q 233 168 233 188 q 231 144 233 161 l 239 146 q 271 132 254 146 q 325 147 292 147 q 351 144 338 147 q 375 160 360 154 q 408 165 390 165 q 453 153 438 165 q 482 175 461 167 q 524 183 503 183 q 549 179 539 183 q 576 188 564 188 q 615 169 599 188 q 632 128 632 151 q 606 82 632 99 q 583 63 600 71 q 547 56 567 56 q 517 63 528 56 q 488 44 506 51 q 451 36 469 36 q 408 51 424 36 q 347 26 385 26 q 324 29 340 26 q 269 13 296 13 q 233 24 249 13 q 189 0 218 0 q 145 19 164 0 q 132 65 126 39 q 119 90 124 74 q 115 124 115 107 q 117 142 115 136 q 99 203 99 160 q 103 237 99 221 q 113 260 107 253 q 106 289 106 274 q 108 307 106 296 q 96 340 96 319 q 106 371 96 360 q 99 396 99 385 q 108 425 99 411 q 97 474 97 450 q 115 529 97 503 q 101 574 107 547 q 94 624 94 600 q 115 685 94 668 q 108 717 108 715 q 100 764 100 750 q 110 814 100 785 q 99 846 103 824 q 96 878 94 868 q 79 918 79 894 q 91 952 79 936 q 122 974 103 968 q 149 990 132 983 q 183 996 165 996 q 224 983 207 996 q 271 990 247 990 q 325 975 304 990 q 354 981 338 981 q 378 974 369 981 q 418 981 386 981 q 483 967 460 981 q 521 982 499 982 q 553 975 535 982 m 413 1100 q 392 1058 410 1081 q 357 1035 374 1036 q 321 1018 339 1018 q 289 1032 303 1018 q 275 1065 275 1046 q 306 1113 275 1093 q 318 1135 307 1121 q 328 1171 318 1156 q 364 1188 339 1186 q 373 1218 363 1204 q 400 1236 383 1232 q 416 1258 404 1249 q 442 1267 428 1267 q 468 1275 454 1275 q 502 1258 488 1275 q 517 1222 517 1242 q 488 1186 517 1196 q 465 1158 486 1168 q 447 1122 464 1140 q 413 1100 431 1103 z "},"Ĕ":{"ha":776,"x_min":79,"x_max":688,"o":"m 553 975 q 589 985 567 985 q 653 964 621 985 q 678 951 668 964 q 688 921 688 939 q 674 879 688 897 q 635 861 660 861 q 596 872 617 861 q 567 861 585 861 q 526 875 547 861 q 485 868 513 868 q 422 881 444 868 q 379 871 401 871 q 344 876 361 871 q 310 869 326 869 q 265 882 288 869 q 221 865 240 868 q 231 814 231 842 q 215 758 231 779 q 232 700 232 732 q 219 650 232 675 q 232 615 232 636 q 222 582 232 601 q 253 589 235 589 q 272 586 267 589 q 306 597 288 597 q 342 582 324 597 q 369 586 358 586 q 393 583 376 586 q 417 586 410 586 q 451 575 440 586 q 476 582 463 582 q 497 575 493 582 q 517 579 510 579 q 543 574 526 579 q 578 583 561 583 q 618 566 601 583 q 635 528 635 549 q 622 497 635 510 q 583 483 610 485 q 542 467 571 467 q 494 481 515 467 q 454 467 481 467 q 415 478 431 467 q 392 469 404 469 q 378 475 383 469 q 336 461 363 461 q 300 469 317 461 q 276 463 286 463 q 249 472 263 463 q 233 465 239 467 q 218 465 228 464 q 231 426 231 440 q 222 397 231 414 q 232 369 232 386 q 225 343 232 357 q 235 314 235 332 q 225 286 235 297 q 233 260 233 269 q 222 232 233 251 q 228 217 228 226 q 219 200 228 204 q 233 168 233 188 q 231 144 233 161 l 239 146 q 271 132 254 146 q 325 147 292 147 q 351 144 338 147 q 375 160 360 154 q 408 165 390 165 q 453 153 438 165 q 482 175 461 167 q 524 183 503 183 q 549 179 539 183 q 576 188 564 188 q 615 169 599 188 q 632 128 632 151 q 606 82 632 99 q 583 63 600 71 q 547 56 567 56 q 517 63 528 56 q 488 44 506 51 q 451 36 469 36 q 408 51 424 36 q 347 26 385 26 q 324 29 340 26 q 269 13 296 13 q 233 24 249 13 q 189 0 218 0 q 145 19 164 0 q 132 65 126 39 q 119 90 124 74 q 115 124 115 107 q 117 142 115 136 q 99 203 99 160 q 103 237 99 221 q 113 260 107 253 q 106 289 106 274 q 108 307 106 296 q 96 340 96 319 q 106 371 96 360 q 99 396 99 385 q 108 425 99 411 q 97 474 97 450 q 115 529 97 503 q 101 574 107 547 q 94 624 94 600 q 115 685 94 668 q 108 717 108 715 q 100 764 100 750 q 110 814 100 785 q 99 846 103 824 q 96 878 94 868 q 79 918 79 894 q 91 952 79 936 q 122 974 103 968 q 149 990 132 983 q 183 996 165 996 q 224 983 207 996 q 271 990 247 990 q 325 975 304 990 q 354 981 338 981 q 378 974 369 981 q 418 981 386 981 q 483 967 460 981 q 521 982 499 982 q 553 975 535 982 m 238 1090 q 192 1123 213 1100 q 172 1176 171 1146 q 164 1204 164 1192 q 182 1239 164 1225 q 222 1253 200 1253 q 256 1241 242 1253 q 269 1204 269 1229 q 303 1181 292 1190 q 319 1157 315 1172 q 338 1160 331 1160 q 368 1155 353 1160 q 390 1143 383 1150 q 475 1169 424 1168 q 474 1181 474 1174 q 482 1207 474 1194 q 504 1226 490 1219 q 522 1260 506 1247 q 557 1274 538 1274 q 594 1257 578 1274 q 607 1217 607 1243 q 601 1183 607 1200 q 583 1157 594 1167 q 569 1120 586 1142 q 525 1082 553 1099 q 469 1063 497 1065 q 438 1045 460 1053 q 394 1038 415 1038 q 363 1047 372 1038 q 332 1040 353 1040 q 292 1050 303 1040 q 260 1058 275 1046 q 238 1090 244 1069 z "},"Ě":{"ha":778,"x_min":79,"x_max":688,"o":"m 553 975 q 589 985 567 985 q 653 964 621 985 q 678 951 668 964 q 688 921 688 939 q 674 879 688 897 q 635 861 660 861 q 596 872 617 861 q 567 861 585 861 q 526 875 547 861 q 485 868 513 868 q 422 881 444 868 q 379 871 401 871 q 344 876 361 871 q 310 869 326 869 q 265 882 288 869 q 221 865 240 868 q 231 814 231 842 q 215 758 231 779 q 232 700 232 732 q 219 650 232 675 q 232 615 232 636 q 222 582 232 601 q 253 589 235 589 q 272 586 267 589 q 306 597 288 597 q 342 582 324 597 q 369 586 358 586 q 393 583 376 586 q 417 586 410 586 q 451 575 440 586 q 476 582 463 582 q 497 575 493 582 q 517 579 510 579 q 543 574 526 579 q 578 583 561 583 q 618 566 601 583 q 635 528 635 549 q 622 497 635 510 q 583 483 610 485 q 542 467 571 467 q 494 481 515 467 q 454 467 481 467 q 415 478 431 467 q 392 469 404 469 q 378 475 383 469 q 336 461 363 461 q 300 469 317 461 q 276 463 286 463 q 249 472 263 463 q 233 465 239 467 q 218 465 228 464 q 231 426 231 440 q 222 397 231 414 q 232 369 232 386 q 225 343 232 357 q 235 314 235 332 q 225 286 235 297 q 233 260 233 269 q 222 232 233 251 q 228 217 228 226 q 219 200 228 204 q 233 168 233 188 q 231 144 233 161 l 239 146 q 271 132 254 146 q 325 147 292 147 q 351 144 338 147 q 375 160 360 154 q 408 165 390 165 q 453 153 438 165 q 482 175 461 167 q 524 183 503 183 q 549 179 539 183 q 576 188 564 188 q 615 169 599 188 q 632 128 632 151 q 606 82 632 99 q 583 63 600 71 q 547 56 567 56 q 517 63 528 56 q 488 44 506 51 q 451 36 469 36 q 408 51 424 36 q 347 26 385 26 q 324 29 340 26 q 269 13 296 13 q 233 24 249 13 q 189 0 218 0 q 145 19 164 0 q 132 65 126 39 q 119 90 124 74 q 115 124 115 107 q 117 142 115 136 q 99 203 99 160 q 103 237 99 221 q 113 260 107 253 q 106 289 106 274 q 108 307 106 296 q 96 340 96 319 q 106 371 96 360 q 99 396 99 385 q 108 425 99 411 q 97 474 97 450 q 115 529 97 503 q 101 574 107 547 q 94 624 94 600 q 115 685 94 668 q 108 717 108 715 q 100 764 100 750 q 110 814 100 785 q 99 846 103 824 q 96 878 94 868 q 79 918 79 894 q 91 952 79 936 q 122 974 103 968 q 149 990 132 983 q 183 996 165 996 q 224 983 207 996 q 271 990 247 990 q 325 975 304 990 q 354 981 338 981 q 378 974 369 981 q 418 981 386 981 q 483 967 460 981 q 521 982 499 982 q 553 975 535 982 m 275 1143 q 245 1165 261 1147 q 228 1192 229 1183 q 219 1226 217 1207 q 214 1246 214 1233 q 226 1275 214 1261 q 256 1290 238 1289 q 291 1279 282 1292 q 306 1238 300 1267 q 317 1225 315 1233 q 348 1213 335 1225 q 363 1182 361 1200 q 381 1168 371 1178 q 394 1150 392 1158 q 418 1176 400 1165 q 428 1203 418 1192 q 451 1218 438 1215 q 458 1253 447 1236 q 488 1275 468 1269 q 526 1303 499 1303 q 561 1290 546 1303 q 576 1258 576 1276 q 568 1233 576 1246 q 544 1197 565 1208 q 531 1165 543 1183 q 504 1142 518 1147 q 447 1078 501 1104 q 433 1050 444 1063 q 404 1038 421 1038 q 385 1042 396 1038 q 335 1060 360 1038 q 313 1107 310 1082 q 290 1117 300 1108 q 275 1143 279 1126 z "},"Ḝ":{"ha":778,"x_min":79,"x_max":688,"o":"m 365 1063 q 329 1088 346 1069 q 314 1132 313 1107 q 307 1154 307 1146 q 321 1181 307 1171 q 353 1192 335 1192 q 381 1181 369 1192 q 392 1151 392 1171 q 429 1115 425 1135 q 443 1117 433 1117 q 486 1106 472 1117 q 556 1126 511 1122 q 558 1153 553 1139 q 576 1171 564 1167 q 592 1198 579 1188 q 621 1208 604 1208 q 651 1196 639 1208 q 660 1167 660 1186 q 640 1117 660 1133 q 628 1086 642 1104 q 594 1055 615 1068 q 551 1040 572 1042 q 524 1027 542 1033 q 489 1021 506 1021 q 464 1028 471 1021 q 439 1022 458 1022 q 408 1029 417 1022 q 382 1037 394 1028 q 365 1063 369 1046 m 653 964 q 678 951 668 964 q 688 921 688 939 q 674 879 688 897 q 635 861 660 861 q 596 872 617 861 q 567 861 585 861 q 526 875 547 861 q 485 868 513 868 q 422 881 444 868 q 379 871 401 871 q 344 876 361 871 q 310 869 326 869 q 265 882 288 869 q 221 865 240 868 q 231 814 231 842 q 215 758 231 779 q 232 700 232 732 q 219 650 232 675 q 232 615 232 636 q 222 582 232 601 q 253 589 235 589 q 272 586 267 589 q 306 597 288 597 q 342 582 324 597 q 369 586 358 586 q 393 583 376 586 q 417 586 410 586 q 451 575 440 586 q 476 582 463 582 q 497 575 493 582 q 517 579 510 579 q 543 574 526 579 q 578 583 561 583 q 618 566 601 583 q 635 528 635 549 q 622 497 635 510 q 583 483 610 485 q 542 467 571 467 q 494 481 515 467 q 454 467 481 467 q 415 478 431 467 q 392 469 404 469 q 378 475 383 469 q 336 461 363 461 q 300 469 317 461 q 276 463 286 463 q 249 472 263 463 q 233 465 239 467 q 218 465 228 464 q 231 426 231 440 q 222 397 231 414 q 232 369 232 386 q 225 343 232 357 q 235 314 235 332 q 225 286 235 297 q 233 260 233 269 q 222 232 233 251 q 228 217 228 226 q 219 200 228 204 q 233 168 233 188 q 231 144 233 161 l 239 146 q 271 132 254 146 q 325 147 292 147 q 351 144 338 147 q 375 160 360 154 q 408 165 390 165 q 453 153 438 165 q 482 175 461 167 q 524 183 503 183 q 549 179 539 183 q 576 188 564 188 q 615 169 599 188 q 632 128 632 151 q 606 82 632 99 q 583 63 600 71 q 547 56 567 56 q 517 63 528 56 q 486 42 507 50 q 446 36 465 35 q 463 -19 467 11 q 475 -45 469 -29 q 481 -78 481 -61 q 460 -122 481 -111 q 450 -158 467 -142 q 414 -174 433 -175 q 378 -194 400 -194 q 343 -181 358 -194 q 328 -149 328 -167 q 339 -119 328 -132 q 351 -92 340 -104 q 375 -79 361 -81 l 382 -69 q 368 -35 372 -58 q 342 -19 350 -32 l 331 -21 q 314 -15 321 -21 q 290 15 294 -6 q 268 13 283 13 q 233 24 249 13 q 189 0 218 0 q 145 19 164 0 q 132 65 126 39 q 119 90 124 74 q 115 124 115 107 q 117 142 115 136 q 99 203 99 160 q 103 237 99 221 q 113 260 107 253 q 106 289 106 274 q 108 307 106 296 q 96 340 96 319 q 106 371 96 360 q 99 396 99 385 q 108 425 99 411 q 97 474 97 450 q 115 529 97 503 q 101 574 107 547 q 94 624 94 600 q 115 685 94 668 q 108 717 108 715 q 100 764 100 750 q 110 814 100 785 q 99 846 103 824 q 96 878 94 868 q 79 918 79 894 q 91 952 79 936 q 122 974 103 968 q 149 990 132 983 q 183 996 165 996 q 224 983 207 996 q 271 990 247 990 q 325 975 304 990 q 354 981 338 981 q 378 974 369 981 q 418 981 386 981 q 483 967 460 981 q 521 982 499 982 q 553 975 535 982 q 589 985 567 985 q 653 964 621 985 z "},"Ê":{"ha":776,"x_min":79,"x_max":688,"o":"m 553 975 q 589 985 567 985 q 653 964 621 985 q 678 951 668 964 q 688 921 688 939 q 674 879 688 897 q 635 861 660 861 q 596 872 617 861 q 567 861 585 861 q 526 875 547 861 q 485 868 513 868 q 422 881 444 868 q 379 871 401 871 q 344 876 361 871 q 310 869 326 869 q 265 882 288 869 q 221 865 240 868 q 231 814 231 842 q 215 758 231 779 q 232 700 232 732 q 219 650 232 675 q 232 615 232 636 q 222 582 232 601 q 253 589 235 589 q 272 586 267 589 q 306 597 288 597 q 342 582 324 597 q 369 586 358 586 q 393 583 376 586 q 417 586 410 586 q 451 575 440 586 q 476 582 463 582 q 497 575 493 582 q 517 579 510 579 q 543 574 526 579 q 578 583 561 583 q 618 566 601 583 q 635 528 635 549 q 622 497 635 510 q 583 483 610 485 q 542 467 571 467 q 494 481 515 467 q 454 467 481 467 q 415 478 431 467 q 392 469 404 469 q 378 475 383 469 q 336 461 363 461 q 300 469 317 461 q 276 463 286 463 q 249 472 263 463 q 233 465 239 467 q 218 465 228 464 q 231 426 231 440 q 222 397 231 414 q 232 369 232 386 q 225 343 232 357 q 235 314 235 332 q 225 286 235 297 q 233 260 233 269 q 222 232 233 251 q 228 217 228 226 q 219 200 228 204 q 233 168 233 188 q 231 144 233 161 l 239 146 q 271 132 254 146 q 325 147 292 147 q 351 144 338 147 q 375 160 360 154 q 408 165 390 165 q 453 153 438 165 q 482 175 461 167 q 524 183 503 183 q 549 179 539 183 q 576 188 564 188 q 615 169 599 188 q 632 128 632 151 q 606 82 632 99 q 583 63 600 71 q 547 56 567 56 q 517 63 528 56 q 488 44 506 51 q 451 36 469 36 q 408 51 424 36 q 347 26 385 26 q 324 29 340 26 q 269 13 296 13 q 233 24 249 13 q 189 0 218 0 q 145 19 164 0 q 132 65 126 39 q 119 90 124 74 q 115 124 115 107 q 117 142 115 136 q 99 203 99 160 q 103 237 99 221 q 113 260 107 253 q 106 289 106 274 q 108 307 106 296 q 96 340 96 319 q 106 371 96 360 q 99 396 99 385 q 108 425 99 411 q 97 474 97 450 q 115 529 97 503 q 101 574 107 547 q 94 624 94 600 q 115 685 94 668 q 108 717 108 715 q 100 764 100 750 q 110 814 100 785 q 99 846 103 824 q 96 878 94 868 q 79 918 79 894 q 91 952 79 936 q 122 974 103 968 q 149 990 132 983 q 183 996 165 996 q 224 983 207 996 q 271 990 247 990 q 325 975 304 990 q 354 981 338 981 q 378 974 369 981 q 418 981 386 981 q 483 967 460 981 q 521 982 499 982 q 553 975 535 982 m 461 1246 q 490 1227 472 1246 q 510 1193 508 1208 q 538 1167 526 1186 q 551 1133 549 1149 q 576 1096 576 1118 q 556 1067 576 1079 q 538 1063 547 1063 q 508 1074 521 1063 q 493 1101 496 1086 q 467 1124 481 1107 q 450 1154 453 1142 q 419 1167 438 1153 q 399 1193 401 1181 q 378 1160 394 1178 q 350 1140 361 1142 q 335 1114 346 1128 q 313 1097 324 1100 q 294 1067 307 1081 q 264 1054 281 1054 q 238 1063 253 1054 q 226 1078 231 1068 q 221 1097 221 1088 q 238 1133 221 1119 q 250 1163 240 1149 q 274 1185 260 1178 q 285 1209 275 1199 q 311 1222 296 1219 q 331 1246 317 1240 q 341 1259 332 1253 q 358 1268 350 1265 q 375 1290 363 1281 q 400 1300 388 1300 q 424 1290 414 1300 q 450 1277 439 1292 q 461 1246 461 1263 z "},"Ế":{"ha":776,"x_min":79,"x_max":688,"o":"m 553 975 q 589 985 567 985 q 653 964 621 985 q 678 951 668 964 q 688 921 688 939 q 674 879 688 897 q 635 861 660 861 q 596 872 617 861 q 567 861 585 861 q 526 875 547 861 q 485 868 513 868 q 422 881 444 868 q 379 871 401 871 q 344 876 361 871 q 310 869 326 869 q 265 882 288 869 q 221 865 240 868 q 231 814 231 842 q 215 758 231 779 q 232 700 232 732 q 219 650 232 675 q 232 615 232 636 q 222 582 232 601 q 253 589 235 589 q 272 586 267 589 q 306 597 288 597 q 342 582 324 597 q 369 586 358 586 q 393 583 376 586 q 417 586 410 586 q 451 575 440 586 q 476 582 463 582 q 497 575 493 582 q 517 579 510 579 q 543 574 526 579 q 578 583 561 583 q 618 566 601 583 q 635 528 635 549 q 622 497 635 510 q 583 483 610 485 q 542 467 571 467 q 494 481 515 467 q 454 467 481 467 q 415 478 431 467 q 392 469 404 469 q 378 475 383 469 q 336 461 363 461 q 300 469 317 461 q 276 463 286 463 q 249 472 263 463 q 233 465 239 467 q 218 465 228 464 q 231 426 231 440 q 222 397 231 414 q 232 369 232 386 q 225 343 232 357 q 235 314 235 332 q 225 286 235 297 q 233 260 233 269 q 222 232 233 251 q 228 217 228 226 q 219 200 228 204 q 233 168 233 188 q 231 144 233 161 l 239 146 q 271 132 254 146 q 325 147 292 147 q 351 144 338 147 q 375 160 360 154 q 408 165 390 165 q 453 153 438 165 q 482 175 461 167 q 524 183 503 183 q 549 179 539 183 q 576 188 564 188 q 615 169 599 188 q 632 128 632 151 q 606 82 632 99 q 583 63 600 71 q 547 56 567 56 q 517 63 528 56 q 488 44 506 51 q 451 36 469 36 q 408 51 424 36 q 347 26 385 26 q 324 29 340 26 q 269 13 296 13 q 233 24 249 13 q 189 0 218 0 q 145 19 164 0 q 132 65 126 39 q 119 90 124 74 q 115 124 115 107 q 117 142 115 136 q 99 203 99 160 q 103 237 99 221 q 113 260 107 253 q 106 289 106 274 q 108 307 106 296 q 96 340 96 319 q 106 371 96 360 q 99 396 99 385 q 108 425 99 411 q 97 474 97 450 q 115 529 97 503 q 101 574 107 547 q 94 624 94 600 q 115 685 94 668 q 108 717 108 715 q 100 764 100 750 q 110 814 100 785 q 99 846 103 824 q 96 878 94 868 q 79 918 79 894 q 91 952 79 936 q 122 974 103 968 q 149 990 132 983 q 183 996 165 996 q 224 983 207 996 q 271 990 247 990 q 325 975 304 990 q 354 981 338 981 q 378 974 369 981 q 418 981 386 981 q 483 967 460 981 q 521 982 499 982 q 553 975 535 982 m 457 1228 q 486 1209 468 1228 q 506 1175 504 1190 q 533 1149 522 1168 q 547 1115 544 1131 q 572 1078 572 1100 q 551 1049 572 1061 q 533 1044 543 1044 q 504 1056 517 1044 q 489 1083 492 1068 q 463 1106 476 1089 q 446 1136 449 1124 q 415 1149 433 1135 q 394 1175 397 1163 q 374 1142 390 1160 q 346 1122 357 1124 q 331 1096 342 1110 q 308 1079 319 1082 q 290 1049 303 1063 q 260 1036 276 1036 q 233 1044 249 1036 q 222 1060 226 1050 q 217 1079 217 1069 q 233 1115 217 1101 q 246 1145 236 1131 q 269 1167 256 1160 q 281 1191 271 1181 q 307 1204 292 1201 q 326 1228 313 1222 q 337 1241 328 1235 q 354 1250 346 1247 q 371 1272 358 1263 q 396 1282 383 1282 q 419 1272 410 1282 q 446 1259 435 1274 q 457 1228 457 1244 m 678 1408 q 686 1372 686 1392 q 671 1333 686 1347 q 610 1263 664 1282 q 586 1237 601 1246 q 557 1228 571 1228 q 531 1239 540 1228 q 524 1271 521 1250 q 521 1286 521 1282 q 529 1311 521 1299 q 550 1331 538 1324 q 590 1375 554 1354 q 585 1401 585 1388 q 603 1441 585 1425 q 643 1457 622 1457 q 669 1447 658 1457 q 679 1419 679 1438 l 678 1408 z "},"Ệ":{"ha":776,"x_min":79,"x_max":688,"o":"m 553 975 q 589 985 567 985 q 653 964 621 985 q 678 951 668 964 q 688 921 688 939 q 674 879 688 897 q 635 861 660 861 q 596 872 617 861 q 567 861 585 861 q 526 875 547 861 q 485 868 513 868 q 422 881 444 868 q 379 871 401 871 q 344 876 361 871 q 310 869 326 869 q 265 882 288 869 q 221 865 240 868 q 231 814 231 842 q 215 758 231 779 q 232 700 232 732 q 219 650 232 675 q 232 615 232 636 q 222 582 232 601 q 253 589 235 589 q 272 586 267 589 q 306 597 288 597 q 342 582 324 597 q 369 586 358 586 q 393 583 376 586 q 417 586 410 586 q 451 575 440 586 q 476 582 463 582 q 497 575 493 582 q 517 579 510 579 q 543 574 526 579 q 578 583 561 583 q 618 566 601 583 q 635 528 635 549 q 622 497 635 510 q 583 483 610 485 q 542 467 571 467 q 494 481 515 467 q 454 467 481 467 q 415 478 431 467 q 392 469 404 469 q 378 475 383 469 q 336 461 363 461 q 300 469 317 461 q 276 463 286 463 q 249 472 263 463 q 233 465 239 467 q 218 465 228 464 q 231 426 231 440 q 222 397 231 414 q 232 369 232 386 q 225 343 232 357 q 235 314 235 332 q 225 286 235 297 q 233 260 233 269 q 222 232 233 251 q 228 217 228 226 q 219 200 228 204 q 233 168 233 188 q 231 144 233 161 l 239 146 q 271 132 254 146 q 325 147 292 147 q 351 144 338 147 q 375 160 360 154 q 408 165 390 165 q 453 153 438 165 q 482 175 461 167 q 524 183 503 183 q 549 179 539 183 q 576 188 564 188 q 615 169 599 188 q 632 128 632 151 q 606 82 632 99 q 583 63 600 71 q 547 56 567 56 q 517 63 528 56 q 488 44 506 51 q 451 36 469 36 q 408 51 424 36 q 347 26 385 26 q 324 29 340 26 q 269 13 296 13 q 233 24 249 13 q 189 0 218 0 q 145 19 164 0 q 132 65 126 39 q 119 90 124 74 q 115 124 115 107 q 117 142 115 136 q 99 203 99 160 q 103 237 99 221 q 113 260 107 253 q 106 289 106 274 q 108 307 106 296 q 96 340 96 319 q 106 371 96 360 q 99 396 99 385 q 108 425 99 411 q 97 474 97 450 q 115 529 97 503 q 101 574 107 547 q 94 624 94 600 q 115 685 94 668 q 108 717 108 715 q 100 764 100 750 q 110 814 100 785 q 99 846 103 824 q 96 878 94 868 q 79 918 79 894 q 91 952 79 936 q 122 974 103 968 q 149 990 132 983 q 183 996 165 996 q 224 983 207 996 q 271 990 247 990 q 325 975 304 990 q 354 981 338 981 q 378 974 369 981 q 418 981 386 981 q 483 967 460 981 q 521 982 499 982 q 553 975 535 982 m 408 -106 q 446 -94 421 -94 q 471 -100 464 -94 q 501 -147 501 -114 q 492 -176 501 -162 q 468 -197 483 -190 q 432 -212 453 -212 q 410 -207 424 -212 q 376 -191 388 -206 q 365 -156 365 -176 q 376 -122 365 -136 q 408 -106 388 -107 m 489 1236 q 518 1217 500 1236 q 538 1183 536 1199 q 565 1158 554 1176 q 579 1124 576 1139 q 604 1086 604 1108 q 583 1057 604 1069 q 565 1053 575 1053 q 536 1065 549 1053 q 521 1092 524 1076 q 494 1115 508 1097 q 478 1144 481 1132 q 447 1157 465 1143 q 426 1183 429 1171 q 406 1150 422 1168 q 378 1131 389 1132 q 363 1104 374 1118 q 340 1088 351 1090 q 322 1058 335 1071 q 292 1044 308 1044 q 265 1053 281 1044 q 253 1068 258 1058 q 249 1088 249 1078 q 265 1124 249 1110 q 278 1153 268 1139 q 301 1175 288 1168 q 313 1199 303 1189 q 339 1213 324 1210 q 358 1236 344 1231 q 369 1249 360 1243 q 386 1258 378 1256 q 403 1281 390 1271 q 428 1290 415 1290 q 451 1281 442 1290 q 478 1267 467 1282 q 489 1236 489 1253 z "},"Ề":{"ha":775,"x_min":79,"x_max":688,"o":"m 553 975 q 589 985 567 985 q 653 964 621 985 q 678 951 668 964 q 688 921 688 939 q 674 879 688 897 q 635 861 660 861 q 596 872 617 861 q 567 861 585 861 q 526 875 547 861 q 485 868 513 868 q 422 881 444 868 q 379 871 401 871 q 344 876 361 871 q 310 869 326 869 q 265 882 288 869 q 221 865 240 868 q 231 814 231 842 q 215 758 231 779 q 232 700 232 732 q 219 650 232 675 q 232 615 232 636 q 222 582 232 601 q 253 589 235 589 q 272 586 267 589 q 306 597 288 597 q 342 582 324 597 q 369 586 358 586 q 393 583 376 586 q 417 586 410 586 q 451 575 440 586 q 476 582 463 582 q 497 575 493 582 q 517 579 510 579 q 543 574 526 579 q 578 583 561 583 q 618 566 601 583 q 635 528 635 549 q 622 497 635 510 q 583 483 610 485 q 542 467 571 467 q 494 481 515 467 q 454 467 481 467 q 415 478 431 467 q 392 469 404 469 q 378 475 383 469 q 336 461 363 461 q 300 469 317 461 q 276 463 286 463 q 249 472 263 463 q 233 465 239 467 q 218 465 228 464 q 231 426 231 440 q 222 397 231 414 q 232 369 232 386 q 225 343 232 357 q 235 314 235 332 q 225 286 235 297 q 233 260 233 269 q 222 232 233 251 q 228 217 228 226 q 219 200 228 204 q 233 168 233 188 q 231 144 233 161 l 239 146 q 271 132 254 146 q 325 147 292 147 q 351 144 338 147 q 375 160 360 154 q 408 165 390 165 q 453 153 438 165 q 482 175 461 167 q 524 183 503 183 q 549 179 539 183 q 576 188 564 188 q 615 169 599 188 q 632 128 632 151 q 606 82 632 99 q 583 63 600 71 q 547 56 567 56 q 517 63 528 56 q 488 44 506 51 q 451 36 469 36 q 408 51 424 36 q 347 26 385 26 q 324 29 340 26 q 269 13 296 13 q 233 24 249 13 q 189 0 218 0 q 145 19 164 0 q 132 65 126 39 q 119 90 124 74 q 115 124 115 107 q 117 142 115 136 q 99 203 99 160 q 103 237 99 221 q 113 260 107 253 q 106 289 106 274 q 108 307 106 296 q 96 340 96 319 q 106 371 96 360 q 99 396 99 385 q 108 425 99 411 q 97 474 97 450 q 115 529 97 503 q 101 574 107 547 q 94 624 94 600 q 115 685 94 668 q 108 717 108 715 q 100 764 100 750 q 110 814 100 785 q 99 846 103 824 q 96 878 94 868 q 79 918 79 894 q 91 952 79 936 q 122 974 103 968 q 149 990 132 983 q 183 996 165 996 q 224 983 207 996 q 271 990 247 990 q 325 975 304 990 q 354 981 338 981 q 378 974 369 981 q 418 981 386 981 q 483 967 460 981 q 521 982 499 982 q 553 975 535 982 m 460 1257 q 489 1238 471 1257 q 508 1204 507 1219 q 536 1178 525 1197 q 550 1144 547 1160 q 575 1107 575 1129 q 554 1078 575 1090 q 536 1074 546 1074 q 507 1085 519 1074 q 492 1113 494 1097 q 465 1135 479 1118 q 449 1165 451 1153 q 418 1178 436 1164 q 397 1204 400 1192 q 376 1171 393 1189 q 349 1151 360 1153 q 333 1125 344 1139 q 311 1108 322 1111 q 292 1078 306 1092 q 263 1065 279 1065 q 236 1074 251 1065 q 224 1089 229 1079 q 219 1108 219 1099 q 236 1144 219 1131 q 249 1174 239 1160 q 272 1196 258 1189 q 284 1220 274 1210 q 310 1233 294 1231 q 329 1257 315 1251 q 340 1270 331 1264 q 357 1279 349 1276 q 374 1301 361 1292 q 399 1311 386 1311 q 422 1301 413 1311 q 449 1288 438 1303 q 460 1257 460 1274 m 613 1379 q 645 1352 632 1372 q 658 1311 658 1332 q 639 1272 658 1283 q 615 1265 628 1265 q 576 1282 600 1265 q 529 1314 550 1288 q 513 1375 510 1339 q 483 1425 489 1394 q 453 1467 453 1436 q 467 1505 453 1488 q 503 1522 482 1522 q 535 1508 519 1522 q 581 1463 581 1503 l 579 1451 q 600 1422 593 1438 q 613 1379 607 1406 z "},"Ể":{"ha":776,"x_min":79,"x_max":688,"o":"m 553 975 q 589 985 567 985 q 653 964 621 985 q 678 951 668 964 q 688 921 688 939 q 674 879 688 897 q 635 861 660 861 q 596 872 617 861 q 567 861 585 861 q 526 875 547 861 q 485 868 513 868 q 422 881 444 868 q 379 871 401 871 q 344 876 361 871 q 310 869 326 869 q 265 882 288 869 q 221 865 240 868 q 231 814 231 842 q 215 758 231 779 q 232 700 232 732 q 219 650 232 675 q 232 615 232 636 q 222 582 232 601 q 253 589 235 589 q 272 586 267 589 q 306 597 288 597 q 342 582 324 597 q 369 586 358 586 q 393 583 376 586 q 417 586 410 586 q 451 575 440 586 q 476 582 463 582 q 497 575 493 582 q 517 579 510 579 q 543 574 526 579 q 578 583 561 583 q 618 566 601 583 q 635 528 635 549 q 622 497 635 510 q 583 483 610 485 q 542 467 571 467 q 494 481 515 467 q 454 467 481 467 q 415 478 431 467 q 392 469 404 469 q 378 475 383 469 q 336 461 363 461 q 300 469 317 461 q 276 463 286 463 q 249 472 263 463 q 233 465 239 467 q 218 465 228 464 q 231 426 231 440 q 222 397 231 414 q 232 369 232 386 q 225 343 232 357 q 235 314 235 332 q 225 286 235 297 q 233 260 233 269 q 222 232 233 251 q 228 217 228 226 q 219 200 228 204 q 233 168 233 188 q 231 144 233 161 l 239 146 q 271 132 254 146 q 325 147 292 147 q 351 144 338 147 q 375 160 360 154 q 408 165 390 165 q 453 153 438 165 q 482 175 461 167 q 524 183 503 183 q 549 179 539 183 q 576 188 564 188 q 615 169 599 188 q 632 128 632 151 q 606 82 632 99 q 583 63 600 71 q 547 56 567 56 q 517 63 528 56 q 488 44 506 51 q 451 36 469 36 q 408 51 424 36 q 347 26 385 26 q 324 29 340 26 q 269 13 296 13 q 233 24 249 13 q 189 0 218 0 q 145 19 164 0 q 132 65 126 39 q 119 90 124 74 q 115 124 115 107 q 117 142 115 136 q 99 203 99 160 q 103 237 99 221 q 113 260 107 253 q 106 289 106 274 q 108 307 106 296 q 96 340 96 319 q 106 371 96 360 q 99 396 99 385 q 108 425 99 411 q 97 474 97 450 q 115 529 97 503 q 101 574 107 547 q 94 624 94 600 q 115 685 94 668 q 108 717 108 715 q 100 764 100 750 q 110 814 100 785 q 99 846 103 824 q 96 878 94 868 q 79 918 79 894 q 91 952 79 936 q 122 974 103 968 q 149 990 132 983 q 183 996 165 996 q 224 983 207 996 q 271 990 247 990 q 325 975 304 990 q 354 981 338 981 q 378 974 369 981 q 418 981 386 981 q 483 967 460 981 q 521 982 499 982 q 553 975 535 982 m 475 1260 q 504 1241 486 1260 q 524 1207 522 1222 q 551 1181 540 1200 q 565 1147 563 1163 q 590 1110 590 1132 q 569 1081 590 1093 q 551 1076 561 1076 q 522 1088 535 1076 q 507 1115 510 1100 q 481 1138 494 1121 q 464 1168 467 1156 q 433 1181 451 1167 q 413 1207 415 1194 q 392 1174 408 1192 q 364 1154 375 1156 q 349 1128 360 1142 q 326 1111 338 1114 q 308 1081 321 1094 q 278 1068 294 1068 q 251 1076 267 1068 q 240 1092 244 1082 q 235 1111 235 1101 q 251 1147 235 1133 q 264 1177 254 1163 q 288 1199 274 1192 q 299 1223 289 1213 q 325 1236 310 1233 q 344 1260 331 1254 q 355 1273 346 1267 q 372 1282 364 1279 q 389 1304 376 1294 q 414 1314 401 1314 q 438 1304 428 1314 q 464 1291 453 1306 q 475 1260 475 1276 m 513 1404 q 496 1408 503 1404 q 475 1443 475 1419 q 490 1478 475 1463 q 525 1493 504 1494 q 551 1500 539 1500 q 579 1489 571 1500 q 625 1465 603 1489 q 643 1410 647 1440 q 654 1390 650 1403 q 658 1365 658 1378 q 640 1329 658 1340 q 631 1291 646 1311 q 599 1272 617 1271 q 561 1251 585 1251 q 525 1264 542 1251 q 508 1293 508 1276 q 518 1315 508 1306 q 528 1339 519 1329 q 550 1351 538 1349 l 557 1360 q 544 1390 547 1369 q 519 1404 529 1394 l 513 1404 z "},"Ễ":{"ha":775,"x_min":79,"x_max":688,"o":"m 553 975 q 589 985 567 985 q 653 964 621 985 q 678 951 668 964 q 688 921 688 939 q 674 879 688 897 q 635 861 660 861 q 596 872 617 861 q 567 861 585 861 q 526 875 547 861 q 485 868 513 868 q 422 881 444 868 q 379 871 401 871 q 344 876 361 871 q 310 869 326 869 q 265 882 288 869 q 221 865 240 868 q 231 814 231 842 q 215 758 231 779 q 232 700 232 732 q 219 650 232 675 q 232 615 232 636 q 222 582 232 601 q 253 589 235 589 q 272 586 267 589 q 306 597 288 597 q 342 582 324 597 q 369 586 358 586 q 393 583 376 586 q 417 586 410 586 q 451 575 440 586 q 476 582 463 582 q 497 575 493 582 q 517 579 510 579 q 543 574 526 579 q 578 583 561 583 q 618 566 601 583 q 635 528 635 549 q 622 497 635 510 q 583 483 610 485 q 542 467 571 467 q 494 481 515 467 q 454 467 481 467 q 415 478 431 467 q 392 469 404 469 q 378 475 383 469 q 336 461 363 461 q 300 469 317 461 q 276 463 286 463 q 249 472 263 463 q 233 465 239 467 q 218 465 228 464 q 231 426 231 440 q 222 397 231 414 q 232 369 232 386 q 225 343 232 357 q 235 314 235 332 q 225 286 235 297 q 233 260 233 269 q 222 232 233 251 q 228 217 228 226 q 219 200 228 204 q 233 168 233 188 q 231 144 233 161 l 239 146 q 271 132 254 146 q 325 147 292 147 q 351 144 338 147 q 375 160 360 154 q 408 165 390 165 q 453 153 438 165 q 482 175 461 167 q 524 183 503 183 q 549 179 539 183 q 576 188 564 188 q 615 169 599 188 q 632 128 632 151 q 606 82 632 99 q 583 63 600 71 q 547 56 567 56 q 517 63 528 56 q 488 44 506 51 q 451 36 469 36 q 408 51 424 36 q 347 26 385 26 q 324 29 340 26 q 269 13 296 13 q 233 24 249 13 q 189 0 218 0 q 145 19 164 0 q 132 65 126 39 q 119 90 124 74 q 115 124 115 107 q 117 142 115 136 q 99 203 99 160 q 103 237 99 221 q 113 260 107 253 q 106 289 106 274 q 108 307 106 296 q 96 340 96 319 q 106 371 96 360 q 99 396 99 385 q 108 425 99 411 q 97 474 97 450 q 115 529 97 503 q 101 574 107 547 q 94 624 94 600 q 115 685 94 668 q 108 717 108 715 q 100 764 100 750 q 110 814 100 785 q 99 846 103 824 q 96 878 94 868 q 79 918 79 894 q 91 952 79 936 q 122 974 103 968 q 149 990 132 983 q 183 996 165 996 q 224 983 207 996 q 271 990 247 990 q 325 975 304 990 q 354 981 338 981 q 378 974 369 981 q 418 981 386 981 q 483 967 460 981 q 521 982 499 982 q 553 975 535 982 m 474 1225 q 503 1206 485 1225 q 522 1172 521 1188 q 550 1147 539 1165 q 564 1113 561 1128 q 589 1075 589 1097 q 568 1046 589 1058 q 550 1042 560 1042 q 521 1053 533 1042 q 506 1081 508 1065 q 479 1103 493 1086 q 463 1133 465 1121 q 432 1146 450 1132 q 411 1172 414 1160 q 390 1139 407 1157 q 363 1119 374 1121 q 347 1093 358 1107 q 325 1076 336 1079 q 306 1047 319 1060 q 276 1033 293 1033 q 250 1042 265 1033 q 238 1057 243 1047 q 233 1076 233 1067 q 250 1113 233 1099 q 263 1142 253 1128 q 286 1164 272 1157 q 298 1188 288 1178 q 324 1201 308 1199 q 343 1225 329 1219 q 353 1238 344 1232 q 371 1247 363 1244 q 388 1269 375 1260 q 413 1279 400 1279 q 436 1269 426 1279 q 463 1256 451 1271 q 474 1225 474 1242 m 354 1358 q 340 1357 350 1357 q 325 1363 329 1357 q 308 1354 319 1357 q 290 1356 297 1351 q 281 1338 292 1349 q 263 1325 271 1328 q 245 1299 258 1308 q 217 1290 232 1290 q 189 1299 201 1290 q 169 1335 169 1314 q 185 1371 169 1353 q 233 1432 189 1415 q 258 1446 239 1439 q 290 1454 276 1453 q 307 1457 294 1457 q 340 1451 324 1457 q 358 1435 357 1444 q 374 1438 367 1438 q 396 1432 386 1438 q 410 1417 406 1426 q 472 1396 433 1418 q 501 1415 481 1407 q 533 1421 522 1424 q 554 1471 533 1449 q 588 1486 568 1486 q 622 1472 607 1486 q 638 1438 638 1458 q 635 1422 638 1433 q 563 1329 638 1351 q 524 1311 549 1318 q 475 1304 500 1304 q 439 1310 451 1304 q 410 1316 424 1308 q 394 1335 397 1324 q 373 1342 388 1333 q 354 1358 358 1350 z "},"Ȅ":{"ha":833,"x_min":78,"x_max":688,"o":"m 553 975 q 589 985 567 985 q 653 964 621 985 q 678 951 668 964 q 688 921 688 939 q 674 879 688 897 q 635 861 660 861 q 596 872 617 861 q 567 861 585 861 q 526 875 547 861 q 485 868 513 868 q 422 881 444 868 q 379 871 401 871 q 344 876 361 871 q 310 869 326 869 q 265 882 288 869 q 221 865 240 868 q 231 814 231 842 q 215 758 231 779 q 232 700 232 732 q 219 650 232 675 q 232 615 232 636 q 222 582 232 601 q 253 589 235 589 q 272 586 267 589 q 306 597 288 597 q 342 582 324 597 q 369 586 358 586 q 393 583 376 586 q 417 586 410 586 q 451 575 440 586 q 476 582 463 582 q 497 575 493 582 q 517 579 510 579 q 543 574 526 579 q 578 583 561 583 q 618 566 601 583 q 635 528 635 549 q 622 497 635 510 q 583 483 610 485 q 542 467 571 467 q 494 481 515 467 q 454 467 481 467 q 415 478 431 467 q 392 469 404 469 q 378 475 383 469 q 336 461 363 461 q 300 469 317 461 q 276 463 286 463 q 249 472 263 463 q 233 465 239 467 q 218 465 228 464 q 231 426 231 440 q 222 397 231 414 q 232 369 232 386 q 225 343 232 357 q 235 314 235 332 q 225 286 235 297 q 233 260 233 269 q 222 232 233 251 q 228 217 228 226 q 219 200 228 204 q 233 168 233 188 q 231 144 233 161 l 239 146 q 271 132 254 146 q 325 147 292 147 q 351 144 338 147 q 375 160 360 154 q 408 165 390 165 q 453 153 438 165 q 482 175 461 167 q 524 183 503 183 q 549 179 539 183 q 576 188 564 188 q 615 169 599 188 q 632 128 632 151 q 606 82 632 99 q 583 63 600 71 q 547 56 567 56 q 517 63 528 56 q 488 44 506 51 q 451 36 469 36 q 408 51 424 36 q 347 26 385 26 q 324 29 340 26 q 269 13 296 13 q 233 24 249 13 q 189 0 218 0 q 145 19 164 0 q 132 65 126 39 q 119 90 124 74 q 115 124 115 107 q 117 142 115 136 q 99 203 99 160 q 103 237 99 221 q 113 260 107 253 q 106 289 106 274 q 108 307 106 296 q 96 340 96 319 q 106 371 96 360 q 99 396 99 385 q 108 425 99 411 q 97 474 97 450 q 115 529 97 503 q 101 574 107 547 q 94 624 94 600 q 115 685 94 668 q 108 717 108 715 q 100 764 100 750 q 110 814 100 785 q 99 846 103 824 q 96 878 94 868 q 79 918 79 894 q 91 952 79 936 q 122 974 103 968 q 149 990 132 983 q 183 996 165 996 q 224 983 207 996 q 271 990 247 990 q 325 975 304 990 q 354 981 338 981 q 378 974 369 981 q 418 981 386 981 q 483 967 460 981 q 521 982 499 982 q 553 975 535 982 m 353 1192 q 324 1254 324 1221 q 334 1285 324 1274 q 361 1297 344 1297 q 425 1257 390 1297 q 461 1233 442 1251 q 489 1196 481 1214 q 523 1180 506 1192 q 546 1154 540 1168 q 565 1111 565 1131 q 546 1079 565 1093 q 517 1068 531 1068 q 493 1075 506 1068 q 468 1090 481 1082 q 424 1101 446 1090 q 397 1133 401 1111 q 365 1155 374 1140 q 353 1192 356 1169 m 107 1192 q 78 1254 78 1221 q 88 1285 78 1274 q 115 1297 99 1297 q 179 1257 144 1297 q 215 1233 196 1251 q 243 1196 235 1214 q 277 1180 260 1192 q 300 1154 294 1168 q 319 1111 319 1131 q 300 1079 319 1093 q 271 1068 285 1068 q 247 1075 260 1068 q 222 1090 235 1082 q 178 1101 200 1090 q 151 1133 156 1111 q 119 1155 128 1140 q 107 1192 110 1169 z "},"Ë":{"ha":776,"x_min":79,"x_max":688,"o":"m 553 975 q 589 985 567 985 q 653 964 621 985 q 678 951 668 964 q 688 921 688 939 q 674 879 688 897 q 635 861 660 861 q 596 872 617 861 q 567 861 585 861 q 526 875 547 861 q 485 868 513 868 q 422 881 444 868 q 379 871 401 871 q 344 876 361 871 q 310 869 326 869 q 265 882 288 869 q 221 865 240 868 q 231 814 231 842 q 215 758 231 779 q 232 700 232 732 q 219 650 232 675 q 232 615 232 636 q 222 582 232 601 q 253 589 235 589 q 272 586 267 589 q 306 597 288 597 q 342 582 324 597 q 369 586 358 586 q 393 583 376 586 q 417 586 410 586 q 451 575 440 586 q 476 582 463 582 q 497 575 493 582 q 517 579 510 579 q 543 574 526 579 q 578 583 561 583 q 618 566 601 583 q 635 528 635 549 q 622 497 635 510 q 583 483 610 485 q 542 467 571 467 q 494 481 515 467 q 454 467 481 467 q 415 478 431 467 q 392 469 404 469 q 378 475 383 469 q 336 461 363 461 q 300 469 317 461 q 276 463 286 463 q 249 472 263 463 q 233 465 239 467 q 218 465 228 464 q 231 426 231 440 q 222 397 231 414 q 232 369 232 386 q 225 343 232 357 q 235 314 235 332 q 225 286 235 297 q 233 260 233 269 q 222 232 233 251 q 228 217 228 226 q 219 200 228 204 q 233 168 233 188 q 231 144 233 161 l 239 146 q 271 132 254 146 q 325 147 292 147 q 351 144 338 147 q 375 160 360 154 q 408 165 390 165 q 453 153 438 165 q 482 175 461 167 q 524 183 503 183 q 549 179 539 183 q 576 188 564 188 q 615 169 599 188 q 632 128 632 151 q 606 82 632 99 q 583 63 600 71 q 547 56 567 56 q 517 63 528 56 q 488 44 506 51 q 451 36 469 36 q 408 51 424 36 q 347 26 385 26 q 324 29 340 26 q 269 13 296 13 q 233 24 249 13 q 189 0 218 0 q 145 19 164 0 q 132 65 126 39 q 119 90 124 74 q 115 124 115 107 q 117 142 115 136 q 99 203 99 160 q 103 237 99 221 q 113 260 107 253 q 106 289 106 274 q 108 307 106 296 q 96 340 96 319 q 106 371 96 360 q 99 396 99 385 q 108 425 99 411 q 97 474 97 450 q 115 529 97 503 q 101 574 107 547 q 94 624 94 600 q 115 685 94 668 q 108 717 108 715 q 100 764 100 750 q 110 814 100 785 q 99 846 103 824 q 96 878 94 868 q 79 918 79 894 q 91 952 79 936 q 122 974 103 968 q 149 990 132 983 q 183 996 165 996 q 224 983 207 996 q 271 990 247 990 q 325 975 304 990 q 354 981 338 981 q 378 974 369 981 q 418 981 386 981 q 483 967 460 981 q 521 982 499 982 q 553 975 535 982 m 531 1082 q 497 1064 517 1064 q 467 1076 481 1064 q 454 1103 454 1088 q 471 1136 454 1119 q 501 1179 472 1165 q 540 1201 518 1201 q 578 1185 561 1201 q 594 1147 594 1168 q 572 1108 594 1125 q 565 1088 574 1094 q 542 1081 556 1081 l 531 1082 m 221 1136 q 213 1106 213 1119 q 229 1074 213 1086 q 267 1061 246 1061 q 304 1074 289 1061 q 319 1111 319 1086 q 318 1124 319 1119 q 324 1147 324 1135 q 307 1180 324 1168 q 269 1192 290 1192 q 231 1178 246 1192 q 221 1136 217 1164 z "},"Ė":{"ha":778,"x_min":79,"x_max":688,"o":"m 553 975 q 589 985 567 985 q 653 964 621 985 q 678 951 668 964 q 688 921 688 939 q 674 879 688 897 q 635 861 660 861 q 596 872 617 861 q 567 861 585 861 q 526 875 547 861 q 485 868 513 868 q 422 881 444 868 q 379 871 401 871 q 344 876 361 871 q 310 869 326 869 q 265 882 288 869 q 221 865 240 868 q 231 814 231 842 q 215 758 231 779 q 232 700 232 732 q 219 650 232 675 q 232 615 232 636 q 222 582 232 601 q 253 589 235 589 q 272 586 267 589 q 306 597 288 597 q 342 582 324 597 q 369 586 358 586 q 393 583 376 586 q 417 586 410 586 q 451 575 440 586 q 476 582 463 582 q 497 575 493 582 q 517 579 510 579 q 543 574 526 579 q 578 583 561 583 q 618 566 601 583 q 635 528 635 549 q 622 497 635 510 q 583 483 610 485 q 542 467 571 467 q 494 481 515 467 q 454 467 481 467 q 415 478 431 467 q 392 469 404 469 q 378 475 383 469 q 336 461 363 461 q 300 469 317 461 q 276 463 286 463 q 249 472 263 463 q 233 465 239 467 q 218 465 228 464 q 231 426 231 440 q 222 397 231 414 q 232 369 232 386 q 225 343 232 357 q 235 314 235 332 q 225 286 235 297 q 233 260 233 269 q 222 232 233 251 q 228 217 228 226 q 219 200 228 204 q 233 168 233 188 q 231 144 233 161 l 239 146 q 271 132 254 146 q 325 147 292 147 q 351 144 338 147 q 375 160 360 154 q 408 165 390 165 q 453 153 438 165 q 482 175 461 167 q 524 183 503 183 q 549 179 539 183 q 576 188 564 188 q 615 169 599 188 q 632 128 632 151 q 606 82 632 99 q 583 63 600 71 q 547 56 567 56 q 517 63 528 56 q 488 44 506 51 q 451 36 469 36 q 408 51 424 36 q 347 26 385 26 q 324 29 340 26 q 269 13 296 13 q 233 24 249 13 q 189 0 218 0 q 145 19 164 0 q 132 65 126 39 q 119 90 124 74 q 115 124 115 107 q 117 142 115 136 q 99 203 99 160 q 103 237 99 221 q 113 260 107 253 q 106 289 106 274 q 108 307 106 296 q 96 340 96 319 q 106 371 96 360 q 99 396 99 385 q 108 425 99 411 q 97 474 97 450 q 115 529 97 503 q 101 574 107 547 q 94 624 94 600 q 115 685 94 668 q 108 717 108 715 q 100 764 100 750 q 110 814 100 785 q 99 846 103 824 q 96 878 94 868 q 79 918 79 894 q 91 952 79 936 q 122 974 103 968 q 149 990 132 983 q 183 996 165 996 q 224 983 207 996 q 271 990 247 990 q 325 975 304 990 q 354 981 338 981 q 378 974 369 981 q 418 981 386 981 q 483 967 460 981 q 521 982 499 982 q 553 975 535 982 m 436 1079 q 393 1065 421 1065 q 361 1074 372 1065 q 334 1097 343 1082 q 325 1131 325 1113 q 335 1166 325 1150 q 364 1190 346 1182 q 408 1210 383 1210 q 435 1203 421 1210 q 475 1182 461 1200 q 489 1140 489 1164 q 475 1099 489 1117 q 436 1079 461 1081 z "},"Ẹ":{"ha":764,"x_min":79,"x_max":688,"o":"m 553 975 q 589 985 567 985 q 653 964 621 985 q 678 951 668 964 q 688 921 688 939 q 674 879 688 897 q 635 861 660 861 q 596 872 617 861 q 567 861 585 861 q 526 875 547 861 q 485 868 513 868 q 422 881 444 868 q 379 871 401 871 q 344 876 361 871 q 310 869 326 869 q 265 882 288 869 q 221 865 240 868 q 231 814 231 842 q 215 758 231 779 q 232 700 232 732 q 219 650 232 675 q 232 615 232 636 q 222 582 232 601 q 253 589 235 589 q 272 586 267 589 q 306 597 288 597 q 342 582 324 597 q 369 586 358 586 q 393 583 376 586 q 417 586 410 586 q 451 575 440 586 q 476 582 463 582 q 497 575 493 582 q 517 579 510 579 q 543 574 526 579 q 578 583 561 583 q 618 566 601 583 q 635 528 635 549 q 622 497 635 510 q 583 483 610 485 q 542 467 571 467 q 494 481 515 467 q 454 467 481 467 q 415 478 431 467 q 392 469 404 469 q 378 475 383 469 q 336 461 363 461 q 300 469 317 461 q 276 463 286 463 q 249 472 263 463 q 233 465 239 467 q 218 465 228 464 q 231 426 231 440 q 222 397 231 414 q 232 369 232 386 q 225 343 232 357 q 235 314 235 332 q 225 286 235 297 q 233 260 233 269 q 222 232 233 251 q 228 217 228 226 q 219 200 228 204 q 233 168 233 188 q 231 144 233 161 l 239 146 q 271 132 254 146 q 325 147 292 147 q 351 144 338 147 q 375 160 360 154 q 408 165 390 165 q 453 153 438 165 q 482 175 461 167 q 524 183 503 183 q 549 179 539 183 q 576 188 564 188 q 615 169 599 188 q 632 128 632 151 q 606 82 632 99 q 583 63 600 71 q 547 56 567 56 q 517 63 528 56 q 488 44 506 51 q 451 36 469 36 q 408 51 424 36 q 347 26 385 26 q 324 29 340 26 q 269 13 296 13 q 233 24 249 13 q 189 0 218 0 q 145 19 164 0 q 132 65 126 39 q 119 90 124 74 q 115 124 115 107 q 117 142 115 136 q 99 203 99 160 q 103 237 99 221 q 113 260 107 253 q 106 289 106 274 q 108 307 106 296 q 96 340 96 319 q 106 371 96 360 q 99 396 99 385 q 108 425 99 411 q 97 474 97 450 q 115 529 97 503 q 101 574 107 547 q 94 624 94 600 q 115 685 94 668 q 108 717 108 715 q 100 764 100 750 q 110 814 100 785 q 99 846 103 824 q 96 878 94 868 q 79 918 79 894 q 91 952 79 936 q 122 974 103 968 q 149 990 132 983 q 183 996 165 996 q 224 983 207 996 q 271 990 247 990 q 325 975 304 990 q 354 981 338 981 q 378 974 369 981 q 418 981 386 981 q 483 967 460 981 q 521 982 499 982 q 553 975 535 982 m 351 -75 q 389 -64 364 -64 q 414 -69 407 -64 q 444 -117 444 -83 q 435 -146 444 -132 q 411 -167 426 -160 q 375 -182 396 -182 q 353 -176 367 -182 q 319 -160 331 -175 q 308 -125 308 -146 q 319 -91 308 -106 q 351 -75 331 -76 z "},"È":{"ha":778,"x_min":79,"x_max":688,"o":"m 553 975 q 589 985 567 985 q 653 964 621 985 q 678 951 668 964 q 688 921 688 939 q 674 879 688 897 q 635 861 660 861 q 596 872 617 861 q 567 861 585 861 q 526 875 547 861 q 485 868 513 868 q 422 881 444 868 q 379 871 401 871 q 344 876 361 871 q 310 869 326 869 q 265 882 288 869 q 221 865 240 868 q 231 814 231 842 q 215 758 231 779 q 232 700 232 732 q 219 650 232 675 q 232 615 232 636 q 222 582 232 601 q 253 589 235 589 q 272 586 267 589 q 306 597 288 597 q 342 582 324 597 q 369 586 358 586 q 393 583 376 586 q 417 586 410 586 q 451 575 440 586 q 476 582 463 582 q 497 575 493 582 q 517 579 510 579 q 543 574 526 579 q 578 583 561 583 q 618 566 601 583 q 635 528 635 549 q 622 497 635 510 q 583 483 610 485 q 542 467 571 467 q 494 481 515 467 q 454 467 481 467 q 415 478 431 467 q 392 469 404 469 q 378 475 383 469 q 336 461 363 461 q 300 469 317 461 q 276 463 286 463 q 249 472 263 463 q 233 465 239 467 q 218 465 228 464 q 231 426 231 440 q 222 397 231 414 q 232 369 232 386 q 225 343 232 357 q 235 314 235 332 q 225 286 235 297 q 233 260 233 269 q 222 232 233 251 q 228 217 228 226 q 219 200 228 204 q 233 168 233 188 q 231 144 233 161 l 239 146 q 271 132 254 146 q 325 147 292 147 q 351 144 338 147 q 375 160 360 154 q 408 165 390 165 q 453 153 438 165 q 482 175 461 167 q 524 183 503 183 q 549 179 539 183 q 576 188 564 188 q 615 169 599 188 q 632 128 632 151 q 606 82 632 99 q 583 63 600 71 q 547 56 567 56 q 517 63 528 56 q 488 44 506 51 q 451 36 469 36 q 408 51 424 36 q 347 26 385 26 q 324 29 340 26 q 269 13 296 13 q 233 24 249 13 q 189 0 218 0 q 145 19 164 0 q 132 65 126 39 q 119 90 124 74 q 115 124 115 107 q 117 142 115 136 q 99 203 99 160 q 103 237 99 221 q 113 260 107 253 q 106 289 106 274 q 108 307 106 296 q 96 340 96 319 q 106 371 96 360 q 99 396 99 385 q 108 425 99 411 q 97 474 97 450 q 115 529 97 503 q 101 574 107 547 q 94 624 94 600 q 115 685 94 668 q 108 717 108 715 q 100 764 100 750 q 110 814 100 785 q 99 846 103 824 q 96 878 94 868 q 79 918 79 894 q 91 952 79 936 q 122 974 103 968 q 149 990 132 983 q 183 996 165 996 q 224 983 207 996 q 271 990 247 990 q 325 975 304 990 q 354 981 338 981 q 378 974 369 981 q 418 981 386 981 q 483 967 460 981 q 521 982 499 982 q 553 975 535 982 m 288 1179 q 258 1242 258 1208 q 269 1273 258 1261 q 296 1285 279 1285 q 360 1244 325 1285 q 396 1220 376 1239 q 424 1183 415 1201 q 458 1167 440 1179 q 481 1142 475 1156 q 500 1099 500 1118 q 481 1067 500 1081 q 451 1056 465 1056 q 428 1063 440 1056 q 403 1078 415 1069 q 358 1088 381 1078 q 332 1121 336 1099 q 299 1142 308 1128 q 288 1179 290 1157 z "},"Ẻ":{"ha":775,"x_min":79,"x_max":688,"o":"m 553 975 q 589 985 567 985 q 653 964 621 985 q 678 951 668 964 q 688 921 688 939 q 674 879 688 897 q 635 861 660 861 q 596 872 617 861 q 567 861 585 861 q 526 875 547 861 q 485 868 513 868 q 422 881 444 868 q 379 871 401 871 q 344 876 361 871 q 310 869 326 869 q 265 882 288 869 q 221 865 240 868 q 231 814 231 842 q 215 758 231 779 q 232 700 232 732 q 219 650 232 675 q 232 615 232 636 q 222 582 232 601 q 253 589 235 589 q 272 586 267 589 q 306 597 288 597 q 342 582 324 597 q 369 586 358 586 q 393 583 376 586 q 417 586 410 586 q 451 575 440 586 q 476 582 463 582 q 497 575 493 582 q 517 579 510 579 q 543 574 526 579 q 578 583 561 583 q 618 566 601 583 q 635 528 635 549 q 622 497 635 510 q 583 483 610 485 q 542 467 571 467 q 494 481 515 467 q 454 467 481 467 q 415 478 431 467 q 392 469 404 469 q 378 475 383 469 q 336 461 363 461 q 300 469 317 461 q 276 463 286 463 q 249 472 263 463 q 233 465 239 467 q 218 465 228 464 q 231 426 231 440 q 222 397 231 414 q 232 369 232 386 q 225 343 232 357 q 235 314 235 332 q 225 286 235 297 q 233 260 233 269 q 222 232 233 251 q 228 217 228 226 q 219 200 228 204 q 233 168 233 188 q 231 144 233 161 l 239 146 q 271 132 254 146 q 325 147 292 147 q 351 144 338 147 q 375 160 360 154 q 408 165 390 165 q 453 153 438 165 q 482 175 461 167 q 524 183 503 183 q 549 179 539 183 q 576 188 564 188 q 615 169 599 188 q 632 128 632 151 q 606 82 632 99 q 583 63 600 71 q 547 56 567 56 q 517 63 528 56 q 488 44 506 51 q 451 36 469 36 q 408 51 424 36 q 347 26 385 26 q 324 29 340 26 q 269 13 296 13 q 233 24 249 13 q 189 0 218 0 q 145 19 164 0 q 132 65 126 39 q 119 90 124 74 q 115 124 115 107 q 117 142 115 136 q 99 203 99 160 q 103 237 99 221 q 113 260 107 253 q 106 289 106 274 q 108 307 106 296 q 96 340 96 319 q 106 371 96 360 q 99 396 99 385 q 108 425 99 411 q 97 474 97 450 q 115 529 97 503 q 101 574 107 547 q 94 624 94 600 q 115 685 94 668 q 108 717 108 715 q 100 764 100 750 q 110 814 100 785 q 99 846 103 824 q 96 878 94 868 q 79 918 79 894 q 91 952 79 936 q 122 974 103 968 q 149 990 132 983 q 183 996 165 996 q 224 983 207 996 q 271 990 247 990 q 325 975 304 990 q 354 981 338 981 q 378 974 369 981 q 418 981 386 981 q 483 967 460 981 q 521 982 499 982 q 553 975 535 982 m 378 1147 q 361 1151 368 1147 q 340 1186 340 1163 q 355 1222 340 1206 q 390 1236 369 1238 q 417 1243 404 1243 q 444 1232 436 1243 q 490 1208 468 1232 q 508 1153 513 1183 q 519 1133 515 1146 q 524 1108 524 1121 q 506 1072 524 1083 q 497 1034 511 1054 q 464 1015 482 1014 q 426 994 450 994 q 390 1007 407 994 q 374 1036 374 1019 q 383 1058 374 1049 q 394 1082 385 1072 q 415 1094 403 1092 l 422 1103 q 410 1133 413 1113 q 385 1147 394 1138 l 378 1147 z "}}}
